<?xml version="1.0" encoding="UTF-8"?>
<svg version="1.1" xmlns="http://www.w3.org/2000/svg" width="1280" height="1280">
<path d="M0 0 C12.1273844 -0.0465575 24.25474717 -0.08198734 36.3822031 -0.10362434 C42.01484419 -0.11401453 47.64742366 -0.12808564 53.2800293 -0.15087891 C58.7265425 -0.17277853 64.17299683 -0.18460436 69.6195507 -0.18975449 C71.68652204 -0.19341975 73.75349055 -0.20057607 75.82043648 -0.21146011 C113.43777667 -0.40147535 113.43777667 -0.40147535 124.44921875 9.1171875 C128.12696461 13.03923605 131.03026855 16.61260305 132 22 C132.14179688 22.7425 132.28359375 23.485 132.4296875 24.25 C134.45946896 38.16850143 130.30470489 51.88290224 122.40625 63.3046875 C116.31779821 70.91525223 107.48879528 75.8954812 98 78 C96.68 78 95.36 78 94 78 C94 78.66 94 79.32 94 80 C94.88429687 80.24363281 95.76859375 80.48726562 96.6796875 80.73828125 C104.46740586 83.69761423 110.61611631 90.49660573 114 98 C117.95448655 110.62708463 113.83851072 123.98562727 108.35546875 135.43359375 C101.52639108 147.78142944 92.57623776 155.21456939 79 159.3125 C69.40293718 161.99469798 59.75144563 162.1463036 49.84912109 162.11352539 C48.09128799 162.11374443 48.09128799 162.11374443 46.29794312 162.1139679 C42.45642187 162.11327584 38.61495019 162.10551676 34.7734375 162.09765625 C32.09729938 162.09578956 29.42116394 162.09431759 26.74502563 162.09336853 C20.44130807 162.09027315 14.13760806 162.08208417 7.83389819 162.07201904 C0.65121773 162.06080191 -6.53146362 162.0553334 -13.71415067 162.05032361 C-28.47610938 162.03989987 -43.23805438 162.0223355 -58 162 C-54.45286771 154.49056193 -47.31389766 149.2053477 -41.09765625 143.87890625 C-38.635741 141.67372704 -36.3227636 139.35113323 -34 137 C-30.45767801 133.41441301 -26.82444339 130.05108338 -22.99609375 126.77734375 C-19.9347036 124.05144841 -17.10034836 121.10858642 -14.22265625 118.19140625 C-11.5729856 115.57898932 -8.78827197 113.16697379 -5.96484375 110.74609375 C-3.89179676 108.90384325 -1.94564198 106.97598338 0 105 C2.53972186 102.4207494 5.12451314 99.97782611 7.875 97.625 C11.06682509 94.88378551 14.04302977 91.99314112 17 89 C20.51926642 85.4378157 24.12541261 82.09813308 27.93359375 78.8515625 C30.41843571 76.62506895 32.72998106 74.26029086 35.0625 71.875 C38.81595949 68.06932856 42.52822282 64.91637642 47 62 C46.34415969 69.44632775 44.41491339 76.42365273 42.4375 83.6171875 C42.08218511 84.9236439 41.72729314 86.23021539 41.37280273 87.53689575 C40.63305857 90.25924459 39.88975144 92.98058475 39.14355469 95.70117188 C38.18669208 99.19012985 37.23654796 102.68087242 36.28874207 106.17230034 C35.55793998 108.86303823 34.82481302 111.55313783 34.09085083 114.24301529 C33.56890874 116.15619622 33.04799774 118.06965835 32.52709961 119.98312378 C32.2100708 121.13837555 31.89304199 122.29362732 31.56640625 123.48388672 C31.28740479 124.50344452 31.00840332 125.52300232 30.72094727 126.57345581 C30 129 30 129 29 131 C39.31070573 130.81769584 39.31070573 130.81769584 48 126 C51.33558189 118.84024463 53.26305704 110.94923091 55.36328125 103.35546875 C55.82706429 101.69865082 55.82706429 101.69865082 56.30021667 100.00836182 C57.30843127 96.40254371 58.31053729 92.79505984 59.3125 89.1875 C60.01397691 86.67381292 60.71580492 84.1602238 61.41796875 81.64672852 C63.4327013 74.43095487 65.43957274 67.21300602 67.44550323 59.99478149 C68.36712665 56.67927552 69.28978682 53.36405814 70.21240234 50.04882812 C74.48313083 34.7014907 78.74589968 19.35195502 83 4 C79.49338533 6.76646291 76.30647326 9.61290708 73.1875 12.8125 C69.5392338 16.50406906 65.80461346 19.98282575 61.86328125 23.35546875 C59.38369142 25.5439537 57.0937882 27.89544013 54.77734375 30.25390625 C52.93406426 32.06477643 51.02177201 33.75321354 49.0625 35.4375 C46.25423653 37.85617779 43.60029407 40.35899683 41 43 C37.7784145 46.27202128 34.41407855 49.29316055 30.93359375 52.28515625 C29.04505403 53.96004299 27.26844352 55.69947587 25.5 57.5 C23.10946833 59.93389732 20.64953738 62.21355559 18.0625 64.4375 C15.25423653 66.85617779 12.60029407 69.35899683 10 72 C6.79970478 75.25029983 3.45775424 78.24724245 0 81.21875 C-2.08337078 83.0742521 -4.04281207 85.01223101 -6 87 C-9.82865082 90.88099565 -13.85923302 94.45760975 -18 98 C-19.4817291 99.26784473 -20.96095675 100.53861955 -22.4375 101.8125 C-23.42556641 102.65748047 -23.42556641 102.65748047 -24.43359375 103.51953125 C-26.11019986 104.93469208 -26.11019986 104.93469208 -27 107 C-27.99 107 -28.98 107 -30 107 C-26.79773576 93.72134233 -23.14248427 80.58320986 -19.4375 67.4375 C-18.81925868 65.23832584 -18.20117799 63.03910652 -17.58325195 60.83984375 C-16.33220515 56.38878945 -15.07972586 51.93814179 -13.82617188 47.48779297 C-12.37056156 42.31899114 -10.91930781 37.14898324 -9.47044373 31.97828674 C-8.44988151 28.33680923 -7.4275859 24.69582006 -6.40481567 21.05496216 C-5.92836601 19.35792569 -5.45251108 17.66072214 -4.9772644 15.96334839 C-4.32401527 13.63126721 -3.66822347 11.29991644 -3.01171875 8.96875 C-2.72521454 7.94274437 -2.72521454 7.94274437 -2.43292236 6.89601135 C-1.11426185 2.2285237 -1.11426185 2.2285237 0 0 Z " fill="#000000" transform="translate(76,559)"/>
<path d="M0 0 C8.1200113 -0.06998596 16.23989333 -0.12305486 24.36013317 -0.15543652 C28.13204405 -0.17099016 31.90374627 -0.1920359 35.67553711 -0.22631836 C39.3260276 -0.25928481 42.97631936 -0.27693011 46.6269474 -0.28463173 C48.00898676 -0.29010925 49.39101716 -0.300802 50.7729702 -0.31719017 C63.61897686 -0.46325385 75.87503151 0.36851927 86 9 C92.40048623 15.56892008 93.32785495 21.63188522 93.23199463 30.46380615 C92.86390279 36.07447101 91.47762071 41.24576703 89.9296875 46.6328125 C89.61097687 47.79013885 89.29226624 48.94746521 88.96389771 50.13986206 C87.94974453 53.80608829 86.91246101 57.46531028 85.875 61.125 C85.20167579 63.55428629 84.52978993 65.98397172 83.859375 68.4140625 C80.93627984 78.95360778 77.9329889 89.46880049 74.6875 99.9140625 C74.45578094 100.66914093 74.22406189 101.42421936 73.98532104 102.20217896 C72.18723895 107.87090776 69.98701623 112.57644914 66 117 C65.43925781 117.6290625 64.87851562 118.258125 64.30078125 118.90625 C52.83970574 130.24718845 35.39969806 131.26648186 20.1594696 131.22659302 C18.72480106 131.21638718 17.29013412 131.20595532 15.85546875 131.1953125 C14.34947398 131.19157115 12.84347674 131.1887295 11.33747864 131.18673706 C7.41996247 131.17918878 3.50260035 131.15961875 -0.41485596 131.1373291 C-4.43084633 131.11667818 -8.44686218 131.10769467 -12.46289062 131.09765625 C-20.30866312 131.07636225 -28.15430978 131.04233623 -36 131 C-34.75138548 123.37936376 -33.02982664 116.02150684 -30.90234375 108.6015625 C-30.59583893 107.51624741 -30.28933411 106.43093231 -29.97354126 105.31272888 C-28.96612579 101.74883266 -27.95179312 98.18694429 -26.9375 94.625 C-25.68166158 90.1905588 -24.42824252 85.75543485 -23.1748867 81.32029152 C-22.61262779 79.33152814 -22.04969085 77.34295762 -21.48664856 75.35441589 C-18.69570841 65.492481 -15.93799928 55.62154828 -13.1953125 45.74609375 C-12.80162304 44.32918223 -12.40793104 42.91227142 -12.01423645 41.49536133 C-10.48417514 35.9874269 -8.9548141 30.47930002 -7.42868042 24.97027588 C-6.37252507 21.15798434 -5.31326244 17.34655963 -4.25390625 13.53515625 C-3.93797516 12.39203476 -3.62204407 11.24891327 -3.29653931 10.07115173 C-3.00733612 9.03197098 -2.71813293 7.99279022 -2.42016602 6.92211914 C-2.04288109 5.56117882 -2.04288109 5.56117882 -1.65797424 4.17274475 C-1 2 -1 2 0 0 Z M47.1875 13.375 C46.11918945 14.39400391 46.11918945 14.39400391 45.02929688 15.43359375 C44.33255859 16.12324219 43.63582031 16.81289063 42.91796875 17.5234375 C42.28656982 18.14138184 41.6551709 18.75932617 41.00463867 19.39599609 C34.45578747 27.90288283 32.04388986 38.0637733 29.35546875 48.25390625 C28.93753009 49.80687798 28.51867553 51.35960349 28.09895325 52.91209412 C27.00606652 56.96477849 25.92622191 61.02082627 24.84899902 65.07769775 C23.96313929 68.40527071 23.06822098 71.73037522 22.17281628 75.05539036 C20.32756847 81.90757662 18.48810076 88.761325 16.66479492 95.61938477 C16.34234299 96.83054459 16.01989105 98.04170441 15.68766785 99.28956604 C14.95901335 101.695497 14.95901335 101.695497 15 103 C19.55917035 103.36473363 23.06312265 103.40656942 27.3125 101.5625 C33.03847509 96.10284934 34.83848603 87.77506218 36.8828125 80.32421875 C37.13894821 79.4123732 37.39508392 78.50052765 37.65898132 77.56105042 C38.48758484 74.60499828 39.3064752 71.64635714 40.125 68.6875 C40.69695389 66.63819113 41.26946927 64.58903889 41.8425293 62.54003906 C43.00387946 58.38306758 44.16113097 54.22498833 45.31494141 50.06591797 C46.64818312 45.26153023 47.99017683 40.45967087 49.33764648 35.65925598 C50.27848672 32.30743468 51.2168594 28.95492659 52.15447998 25.60220337 C52.59195153 24.03838766 53.02997747 22.47472692 53.46856689 20.91122437 C54.07151995 18.75924779 54.67105863 16.60635121 55.26953125 14.453125 C55.60573486 13.24817383 55.94193848 12.04322266 56.28833008 10.80175781 C57.08206346 8.15871453 57.08206346 8.15871453 57 6 C52.97464037 6 49.9053863 10.67889552 47.1875 13.375 Z " fill="#000000" transform="translate(409,590)"/>
<path d="M0 0 C9.62331245 -0.06971238 19.24653709 -0.12291865 28.87004757 -0.15543652 C33.33931884 -0.17104864 37.80841651 -0.19220489 42.27758789 -0.22631836 C46.5958939 -0.25907152 50.9140336 -0.27688646 55.2324543 -0.28463173 C56.87457456 -0.29014673 58.5166864 -0.30091582 60.15873528 -0.31719017 C69.83853684 -0.4092541 78.16393382 -0.37194935 86.8125 4.625 C92.22666703 10.50323849 93.44255433 16.65487754 93.31469727 24.47021484 C92.69284316 31.44520833 90.68842904 38.09170749 88.8125 44.8125 C88.36702216 46.45116533 87.92280055 48.09017261 87.47973633 49.72949219 C86.26771675 54.19622327 85.03559242 58.65717126 83.79846191 63.11700439 C82.68557155 67.13530254 81.58200979 71.15614696 80.47767639 75.17680359 C77.53912641 85.87179573 74.57860534 96.56057699 71.60229492 107.24511719 C69.39793382 115.16241109 67.19961495 123.08138619 65 131 C50.48 131 35.96 131 21 131 C25.59560242 112.61759033 25.59560242 112.61759033 27.36254883 106.23657227 C27.56646744 105.49410751 27.77038605 104.75164276 27.98048401 103.98667908 C28.63754474 101.59609179 29.29722697 99.20623762 29.95703125 96.81640625 C30.42793794 95.10558567 30.89869353 93.39472349 31.36930847 91.68382263 C32.35062191 88.11775904 33.33313285 84.55202858 34.31665039 80.98657227 C35.5553094 76.49614291 36.7919005 72.00514774 38.02768135 67.51392555 C39.232557 63.13538166 40.43848352 58.75712742 41.64453125 54.37890625 C41.87831608 53.52994404 42.11210091 52.68098183 42.35297012 51.80629349 C44.63256709 43.53092082 46.91971018 35.25815628 49.25927734 26.99951172 C49.59166916 25.82468735 49.92406097 24.64986298 50.26652527 23.43943787 C50.86763627 21.32094078 51.47212564 19.20339794 52.08076477 17.08705139 C52.46750618 15.72512917 52.46750618 15.72512917 52.86206055 14.33569336 C53.08411667 13.56221054 53.30617279 12.78872772 53.53495789 11.99180603 C54.11368143 9.85399064 54.11368143 9.85399064 54 7 C51.57356831 9.2187127 49.19092501 11.47998692 46.8125 13.75 C45.80219727 14.67232422 45.80219727 14.67232422 44.77148438 15.61328125 C34.85282988 25.19324998 32.34242351 39.18108994 28.875 52.07421875 C28.40162523 53.81016564 27.92748873 55.54590498 27.45263672 57.28144836 C26.21140001 61.82510916 24.97940885 66.37122235 23.74975586 70.91802979 C22.02359249 77.29418274 20.28484427 83.6669171 18.54736328 90.03999329 C17.62573655 93.42059972 16.70758548 96.80211676 15.79248047 100.18449402 C15.36427882 101.76191773 14.93605711 103.339336 14.5078125 104.91674805 C14.32792786 105.5848349 14.14804321 106.25292175 13.96270752 106.94125366 C11.77003642 115.00134579 9.35858686 122.98080467 7 131 C-7.19 131 -21.38 131 -36 131 C-35.33296156 125.66369247 -34.67517103 121.28739895 -33.25683594 116.22827148 C-33.08225672 115.59946957 -32.9076775 114.97066765 -32.727808 114.32281113 C-32.15201699 112.25403475 -31.56822015 110.18761011 -30.984375 108.12109375 C-30.57196433 106.64510736 -30.1600806 105.16897365 -29.74868774 103.69270325 C-28.64919987 99.75240779 -27.54292336 95.8140494 -26.43523407 91.87605286 C-25.29103781 87.8041843 -24.15271504 83.73067545 -23.01416016 79.65722656 C-21.64449312 74.75776055 -20.27450461 69.85838737 -18.90188599 64.95974731 C-16.19277513 55.28868946 -13.50694061 45.6117571 -10.8515625 35.92578125 C-10.54726318 34.81726303 -10.24296387 33.70874481 -9.92944336 32.56663513 C-8.80562737 28.47171319 -7.68197262 24.37676643 -6.5657959 20.27975464 C-5.82610866 17.56571011 -5.08153931 14.85304948 -4.3359375 12.140625 C-4.02011215 10.97234917 -4.02011215 10.97234917 -3.69790649 9.7804718 C-2.74082171 6.31416338 -1.66931617 3.17951956 0 0 Z " fill="#000000" transform="translate(1059,590)"/>
<path d="M0 0 C1.31614792 -0.00960754 2.63229584 -0.01921509 3.98832703 -0.02911377 C5.44119086 -0.03396681 6.89405672 -0.03824439 8.34692383 -0.04199219 C9.8365326 -0.04774725 11.32614137 -0.05350494 12.81575012 -0.05926514 C15.95236557 -0.0697969 19.08895528 -0.07562257 22.22558594 -0.07910156 C26.2072542 -0.08453399 30.18857133 -0.10843772 34.17013073 -0.13707352 C37.25634164 -0.15590275 40.34247229 -0.16091654 43.42873573 -0.16243744 C44.89366855 -0.16542862 46.35860119 -0.17333452 47.82347679 -0.18662262 C73.08832418 -0.39908372 73.08832418 -0.39908372 82.31567383 7.54394531 C87.96476972 13.43494204 89.17378608 18.83442651 89.07739258 26.84472656 C88.33156911 38.57072881 83.73173108 50.36268847 75.86645508 59.16113281 C70.64950467 62.95617004 65.13926943 64.90656994 58.86645508 66.16113281 C59.38594727 66.50144531 59.90543945 66.84175781 60.44067383 67.19238281 C65.62522044 70.79569063 69.4241871 74.25972529 71.86645508 80.16113281 C73.37690311 89.03355342 70.04732622 97.81897852 67.55395508 106.22363281 C67.14458116 107.64321758 66.73637047 109.06313833 66.3293457 110.48339844 C64.3225807 117.4348614 62.15603087 124.29240544 59.86645508 131.16113281 C45.67645508 131.16113281 31.48645508 131.16113281 16.86645508 131.16113281 C17.56900057 125.54076889 18.42565533 120.52099652 19.94848633 115.14160156 C20.15850784 114.38228836 20.36852936 113.62297516 20.58491516 112.84065247 C21.27754482 110.3417808 21.97818523 107.84523273 22.67895508 105.34863281 C23.17211232 103.57598023 23.66477832 101.80319091 24.15698242 100.03027344 C25.45710161 95.35256859 26.76407271 90.67680484 28.07244873 86.00140381 C29.3687293 81.36442816 30.65827213 76.72558052 31.94848633 72.08691406 C34.43914441 63.13695048 36.93946038 54.18971446 39.4440918 45.24365234 C40.60774792 41.0870286 41.76875152 36.92966979 42.92889404 32.77206421 C43.77234473 29.75090136 44.6175499 26.73023166 45.46331787 23.7097168 C45.85351705 22.31504809 46.24305589 20.92019445 46.63189697 19.52514648 C47.15999571 17.63113952 47.69087849 15.73790947 48.22192383 13.84472656 C48.51736084 12.78825928 48.81279785 11.73179199 49.1171875 10.64331055 C49.86645508 8.16113281 49.86645508 8.16113281 50.86645508 6.16113281 C48.15634343 8.44731638 45.5058537 10.79374951 42.86645508 13.16113281 C42.01438477 13.91007813 41.16231445 14.65902344 40.28442383 15.43066406 C38.9947168 16.62755859 38.9947168 16.62755859 37.67895508 17.84863281 C36.48206055 18.93724609 36.48206055 18.93724609 35.26098633 20.04785156 C27.54886235 30.07487082 25.20498827 44.07624119 21.97973633 56.06347656 C21.43195163 58.07480374 20.88336895 60.08591374 20.33403015 62.09681702 C18.89937624 67.35530047 17.47377336 72.61619097 16.05065918 77.87780762 C13.76503634 86.32286552 11.46626228 94.76434803 9.16606712 103.20544624 C8.36642847 106.14548792 7.57113228 109.08667797 6.77644348 112.02806091 C6.28743026 113.82887638 5.79831529 115.62966422 5.30908203 117.43041992 C5.09035934 118.24450821 4.87163666 119.0585965 4.64628601 119.89735413 C4.33746994 121.03018326 4.33746994 121.03018326 4.02241516 122.18589783 C3.84639424 122.83676833 3.67037333 123.48763884 3.48901844 124.15823269 C2.74915204 126.53851811 1.79219139 128.84679203 0.86645508 131.16113281 C-13.32354492 131.16113281 -27.51354492 131.16113281 -42.13354492 131.16113281 C-41.46873376 125.8426435 -40.81752996 121.47873754 -39.40625 116.43701172 C-39.23325725 115.8129692 -39.06026449 115.18892668 -38.88202953 114.54597378 C-38.31109512 112.4916699 -37.73213167 110.43972342 -37.15307617 108.38769531 C-36.7434016 106.91985137 -36.33423373 105.45186593 -35.92553711 103.98374939 C-34.83166127 100.05981307 -33.73082789 96.13786139 -32.62848282 92.21629715 C-31.48861357 88.15721777 -30.35470907 84.09647294 -29.22021484 80.03588867 C-27.39634781 73.51049355 -25.56876415 66.98614991 -23.73901367 60.46240234 C-21.38920467 52.08290172 -19.05577806 43.69892382 -16.72729492 35.31347656 C-15.76736177 31.8621717 -14.80697723 28.41099297 -13.84628296 24.9598999 C-13.24709912 22.80589301 -12.64880915 20.65163726 -12.05142212 18.49713135 C-11.23430894 15.55220627 -10.41304534 12.608472 -9.59057617 9.66503906 C-9.35298584 8.80506821 -9.11539551 7.94509735 -8.87060547 7.05906677 C-6.99442784 0.37234632 -6.9008768 0.04049554 0 0 Z " fill="#000000" transform="translate(233.133544921875,589.8388671875)"/>
<path d="M0 0 C2.3236885 -0.00970124 4.6464888 -0.04080411 6.9699707 -0.07226562 C19.90277091 -0.16434381 32.15744612 0.83854433 41.99926758 10.09570312 C47.53478472 15.97221722 49.2099596 21.05517012 49.13677979 29.1756897 C48.97481097 32.21096742 48.29995897 34.97371615 47.51879883 37.90820312 C47.34532928 38.56886276 47.17185974 39.2295224 46.99313354 39.91020203 C46.58560898 41.45356918 46.1729926 42.995597 45.75646973 44.53656006 C44.92461009 47.61808594 44.10895464 50.70371974 43.29321289 53.78955078 C41.79909494 59.42172334 40.28329271 65.0476775 38.75090408 70.66955757 C37.85771311 73.94728652 36.97000993 77.22627646 36.09545898 80.5090332 C35.07008109 84.35742057 34.02172108 88.19921674 32.97192383 92.04101562 C32.66545929 93.20272781 32.35899475 94.36444 32.04324341 95.56135559 C28.67496754 107.72714014 24.0005205 117.54631664 13.12426758 124.44726562 C0.41794225 131.38507516 -13.97156318 131.44518623 -28.05664062 131.48046875 C-30.40229445 131.49019873 -32.74707909 131.52131442 -35.0925293 131.55273438 C-46.98009545 131.63761404 -56.99952145 130.7570991 -65.97338867 122.24023438 C-71.12024193 115.87438956 -72.49790638 109.29624794 -71.97338867 101.24023438 C-71.43924084 98.56950588 -70.85403147 96.03487698 -70.125 93.42236328 C-69.92820648 92.68623306 -69.73141296 91.95010284 -69.52865601 91.19166565 C-68.88105743 88.7805007 -68.21882519 86.37365658 -67.55541992 83.96679688 C-67.09599286 82.27598554 -66.63715574 80.5850138 -66.17887878 78.89389038 C-65.2178287 75.3567764 -64.24946089 71.82177034 -63.27587891 68.28808594 C-62.03571517 63.78442422 -60.81419063 59.27595786 -59.59822559 54.76571083 C-58.65442491 51.27351301 -57.70048685 47.7841448 -56.74359703 44.29551315 C-56.28960875 42.63557315 -55.83872471 40.9747806 -55.39115334 39.31309891 C-48.31678092 13.11524516 -48.31678092 13.11524516 -37.22338867 6.05273438 C-25.82723563 -0.45458581 -12.77175003 0.03216053 0 0 Z M11.02661133 6.24023438 C8.42631596 8.72307373 5.84981771 11.22935479 3.27661133 13.74023438 C2.54700195 14.43632813 1.81739258 15.13242187 1.06567383 15.84960938 C0.35668945 16.54570313 -0.35229492 17.24179687 -1.08276367 17.95898438 C-2.05681152 18.90161133 -2.05681152 18.90161133 -3.05053711 19.86328125 C-8.45313178 26.54175532 -10.37890629 34.49329249 -12.53979492 42.66601562 C-13.02004372 44.44107735 -13.02004372 44.44107735 -13.50999451 46.2519989 C-14.52663968 50.01680643 -15.53146789 53.78464919 -16.53588867 57.55273438 C-17.21413856 60.07312847 -17.89316757 62.59331303 -18.57299805 65.11328125 C-20.10702393 70.80439714 -21.63367719 76.49742355 -23.15188599 82.19277954 C-23.70498876 84.24457531 -24.26807836 86.29370204 -24.84054565 88.34017944 C-25.11246735 89.31290802 -25.38438904 90.2856366 -25.66455078 91.2878418 C-25.90765488 92.14592941 -26.15075897 93.00401703 -26.40122986 93.8881073 C-27.21042722 97.21469246 -27.40766851 99.83837565 -26.97338867 103.24023438 C-24.17538698 105.51915152 -24.17538698 105.51915152 -21.09838867 105.17773438 C-17.1155896 103.98289465 -15.65667728 102.4025387 -12.97338867 99.24023438 C-11.96972609 96.76787226 -11.22571611 94.57040499 -10.57104492 92.01367188 C-10.37169846 91.29291473 -10.17235199 90.57215759 -9.96696472 89.82955933 C-9.30713482 87.4288608 -8.67143363 85.02246569 -8.03588867 82.61523438 C-7.57547763 80.91788586 -7.11352621 79.22095453 -6.65014648 77.52441406 C-5.63901917 73.81486226 -4.63728728 70.10291433 -3.63989258 66.38964844 C-1.84144606 59.72044873 0.02403941 53.07051549 1.88989258 46.41992188 C2.86542135 42.92732025 3.83969086 39.43437068 4.81326294 35.94122314 C5.45552788 33.6404469 6.09995819 31.34027403 6.74655151 29.04071045 C7.65544422 25.80215279 8.55331608 22.56073267 9.44848633 19.31835938 C9.72497513 18.34196503 10.00146393 17.36557068 10.28633118 16.35958862 C10.53159042 15.46329742 10.77684967 14.56700623 11.02954102 13.64355469 C11.3561673 12.47098114 11.3561673 12.47098114 11.68939209 11.27471924 C12.22148401 9.04635141 12.22148401 9.04635141 11.02661133 6.24023438 Z " fill="#000000" transform="translate(984.973388671875,589.759765625)"/>
<path d="M0 0 C0.8981543 -0.0033284 1.79630859 -0.0066568 2.72167969 -0.01008606 C4.60741672 -0.01511461 6.49316252 -0.01749566 8.37890625 -0.01733398 C11.24233767 -0.01952539 14.10538623 -0.0377381 16.96875 -0.05664062 C18.8124987 -0.05957455 20.65624921 -0.06155935 22.5 -0.0625 C23.34401367 -0.06968552 24.18802734 -0.07687103 25.05761719 -0.08427429 C34.91262963 -0.04689464 43.44305318 1.70000613 50.7890625 8.6171875 C55.85636895 14.26234468 56.63616124 19.82418709 56.515625 27.13671875 C55.38559322 40.03237553 55.38559322 40.03237553 52.25 43.16796875 C50.89905018 43.26065874 49.54332909 43.28544201 48.18920898 43.28149414 C47.32839218 43.28141861 46.46757538 43.28134308 45.58067322 43.28126526 C44.64526199 43.27610397 43.70985077 43.27094269 42.74609375 43.265625 C41.79307877 43.26421005 40.84006378 43.2627951 39.85816956 43.26133728 C36.80124835 43.25572027 33.74439923 43.24316491 30.6875 43.23046875 C28.62044376 43.22545594 26.55338638 43.22089266 24.48632812 43.21679688 C19.40752412 43.20574531 14.3287743 43.1884693 9.25 43.16796875 C10.31137976 37.65556282 11.41965094 32.2005003 12.94140625 26.79296875 C13.24626953 25.70628906 13.55113281 24.61960937 13.86523438 23.5 C14.17783203 22.40042969 14.49042969 21.30085937 14.8125 20.16796875 C15.12896484 19.03746094 15.44542969 17.90695312 15.77148438 16.7421875 C18.11172519 8.44451837 18.11172519 8.44451837 19.25 6.16796875 C14.71438433 9.99410264 10.3029242 13.95710601 6 18.04296875 C5.19046875 18.80351563 4.3809375 19.5640625 3.546875 20.34765625 C-2.51463603 27.79053203 -4.42861331 37.52111306 -6.859375 46.6171875 C-7.23438245 48.00253985 -7.60981754 49.38777651 -7.98565674 50.77290344 C-8.7668579 53.65862016 -9.54279022 56.54568691 -10.31494141 59.43383789 C-11.30226254 63.12503663 -12.30298807 66.81244518 -13.30767441 70.49895 C-14.08351701 73.35172025 -14.85215365 76.20639406 -15.61865997 79.06168556 C-15.98482128 80.42217877 -16.35321283 81.78207387 -16.72393036 83.14133263 C-17.2409143 85.04105736 -17.74713895 86.94370009 -18.25292969 88.84643555 C-18.54286804 89.92515427 -18.8328064 91.00387299 -19.13153076 92.11528015 C-19.76323241 95.23328231 -19.93560889 97.99565013 -19.75 101.16796875 C-19.42 101.49796875 -19.09 101.82796875 -18.75 102.16796875 C-15.12 102.16796875 -11.49 102.16796875 -7.75 102.16796875 C-3.79 87.97796875 0.17 73.78796875 4.25 59.16796875 C18.44 59.16796875 32.63 59.16796875 47.25 59.16796875 C46.61391967 64.89269174 46.09567487 69.39792335 44.59179688 74.75756836 C44.25474731 75.97169907 43.91769775 77.18582977 43.57043457 78.43675232 C43.20341791 79.73133237 42.8361847 81.02585104 42.46875 82.3203125 C42.09087599 83.67013802 41.71356634 85.02012164 41.33679199 86.37025452 C40.55087965 89.1810742 39.76046437 91.9905707 38.96630859 94.79907227 C37.94787697 98.40089507 36.93744059 102.00489741 35.92989349 105.6097784 C34.96640377 109.05572221 33.9989718 112.50055527 33.03125 115.9453125 C32.75516151 116.93003194 32.75516151 116.93003194 32.47349548 117.9346447 C31.95391599 119.78508822 31.43113789 121.63463273 30.90820312 123.48413086 C30.61143677 124.53620224 30.31467041 125.58827362 30.00891113 126.67222595 C29.25 129.16796875 29.25 129.16796875 28.25 131.16796875 C19.29588011 131.2377555 10.34185515 131.29092464 1.38752174 131.32340527 C-2.77121016 131.3390014 -6.92975476 131.36012772 -11.08837891 131.39428711 C-15.10843346 131.42709825 -19.12830887 131.44486717 -23.14848709 131.45260048 C-24.67534832 131.45810523 -26.20220074 131.46885376 -27.72898483 131.48515892 C-39.53173352 131.60608951 -50.42805997 131.22589652 -59.375 122.6015625 C-64.80788642 116.76382156 -66.05146416 110.96092276 -65.98910522 103.13919067 C-65.51632335 97.26420455 -63.79066472 91.66333419 -62.20703125 86.0078125 C-61.83680963 84.65064253 -61.46766555 83.29317821 -61.09953308 81.93544006 C-60.13124886 78.37640221 -59.14765177 74.8217739 -58.16088867 71.26782227 C-57.17469189 67.70407485 -56.20454986 64.13596452 -55.23242188 60.56835938 C-53.10087933 52.7599693 -50.93420877 44.96179208 -48.75 37.16796875 C-48.47715179 36.19082916 -48.20430359 35.21368958 -47.92318726 34.2069397 C-47.24836887 31.8009724 -46.56462481 29.39785201 -45.875 26.99609375 C-45.52308594 25.76665039 -45.17117188 24.53720703 -44.80859375 23.27050781 C-42.05296063 15.19426573 -37.16335861 9.36035086 -29.75 5.16796875 C-20.01916819 0.67681561 -10.57701485 0.01394569 0 0 Z " fill="#000000" transform="translate(565.75,589.83203125)"/>
<path d="M0 0 C2.81720008 0.00317996 5.63336686 -0.02045161 8.45043945 -0.0456543 C20.05830446 -0.08726391 30.4984473 -0.07324826 39.93286133 7.56958008 C44.57625802 12.36310968 46.72635285 18.78364207 46.87426758 25.37817383 C46.62426758 30.31567383 46.62426758 30.31567383 43.62426758 41.31567383 C29.76426758 41.31567383 15.90426758 41.31567383 1.62426758 41.31567383 C2.26726133 36.17172381 2.84164213 31.9871586 4.21801758 27.13598633 C4.52610352 26.04286133 4.83418945 24.94973633 5.15161133 23.82348633 C5.47258789 22.7071582 5.79356445 21.59083008 6.12426758 20.44067383 C6.44524414 19.30114258 6.7662207 18.16161133 7.09692383 16.98754883 C9.47194529 8.6203184 9.47194529 8.6203184 10.62426758 6.31567383 C7.91412212 8.60188592 5.26139364 10.94565218 2.62426758 13.31567383 C1.7605957 14.08782227 0.89692383 14.8599707 0.00708008 15.65551758 C-8.744567 23.87479443 -11.91717261 31.39311881 -12.37573242 43.31567383 C-12.37573242 43.97567383 -12.37573242 44.63567383 -12.37573242 45.31567383 C-11.17819336 45.54641602 -9.9806543 45.7771582 -8.74682617 46.01489258 C23.58128412 52.41378995 23.58128412 52.41378995 33.18676758 63.19067383 C38.65162626 74.85751166 33.53570838 89.84007511 29.47094727 101.12036133 C24.86403109 113.06539889 18.2946873 121.78315497 6.62426758 127.31567383 C-2.66395102 130.67774732 -12.18863526 131.46181568 -21.99682617 131.51879883 C-22.78162857 131.5244989 -23.56643097 131.53019897 -24.37501526 131.53607178 C-26.02115564 131.54544071 -27.6673141 131.55202307 -29.31347656 131.5559082 C-31.8039664 131.56563763 -34.29363758 131.59674741 -36.78393555 131.62817383 C-47.61466917 131.70000725 -57.57160351 131.48182527 -66.37573242 124.31567383 C-71.46811495 119.10486379 -74.39573394 113.62189723 -74.81323242 106.31567383 C-74.63635715 100.73427641 -73.40462413 88.34456553 -69.37573242 84.31567383 C-68.0247826 84.22298384 -66.66906151 84.19820057 -65.31494141 84.20214844 C-64.4541246 84.20222397 -63.5933078 84.2022995 -62.70640564 84.20237732 C-61.77099442 84.2075386 -60.83558319 84.21269989 -59.87182617 84.21801758 C-58.91881119 84.21943253 -57.9657962 84.22084747 -56.98390198 84.2223053 C-53.92698077 84.22792231 -50.87013165 84.24047767 -47.81323242 84.25317383 C-45.74617618 84.25818664 -43.6791188 84.26274992 -41.61206055 84.2668457 C-36.53325654 84.27789727 -31.45450672 84.29517328 -26.37573242 84.31567383 C-26.60389648 85.26829102 -26.83206055 86.2209082 -27.06713867 87.20239258 C-27.49833008 89.0837793 -27.49833008 89.0837793 -27.93823242 91.00317383 C-28.22827148 92.24454102 -28.51831055 93.4859082 -28.81713867 94.76489258 C-29.33815198 98.07678837 -29.29426238 100.13427536 -28.37573242 103.31567383 C-23.75718269 104.23614054 -23.75718269 104.23614054 -19.12573242 103.81567383 C-16.36439116 101.44880989 -15.19764014 98.77377444 -14.37573242 95.31567383 C-14.14308997 91.63299333 -14.19586089 87.99970931 -14.37573242 84.31567383 C-21.82128227 80.59577541 -29.15537371 78.87978359 -37.29174805 77.3371582 C-44.7268181 75.80047358 -50.46599122 73.3785593 -55.75073242 67.81567383 C-60.48930272 60.52556567 -60.45903228 52.95108356 -58.85864258 44.62573242 C-58.18743362 41.61108272 -57.45544011 38.61980431 -56.68823242 35.62817383 C-56.44459961 34.66669434 -56.2009668 33.70521484 -55.94995117 32.71459961 C-52.89556606 21.46698069 -48.44471875 11.46022678 -38.31713867 5.00317383 C-26.68620577 -0.80162204 -12.65522221 -0.02988115 0 0 Z " fill="#000000" transform="translate(790.375732421875,589.684326171875)"/>
<path d="M0 0 C1.90346443 0.00424484 1.90346443 0.00424484 3.84538269 0.00857544 C7.17111352 0.01778263 10.49655339 0.03565617 13.82220459 0.0579834 C17.23496019 0.07867732 20.64774622 0.08762676 24.06054688 0.09765625 C30.72143236 0.11955934 37.38218382 0.15291682 44.04296875 0.1953125 C43.49710163 4.39690384 42.8200908 8.40559654 41.6328125 12.47265625 C41.36533203 13.39755859 41.09785156 14.32246094 40.82226562 15.27539062 C40.54447266 16.21833984 40.26667969 17.16128906 39.98046875 18.1328125 C39.69880859 19.10283203 39.41714844 20.07285156 39.12695312 21.07226562 C38.43650409 23.44787841 37.74174874 25.82213955 37.04296875 28.1953125 C35.88772705 28.2046582 34.73248535 28.21400391 33.54223633 28.22363281 C29.24611193 28.2635786 24.95070019 28.32934996 20.6550293 28.40283203 C18.79770072 28.43101509 16.9402528 28.4522429 15.08276367 28.46630859 C12.40872214 28.48777534 9.7361114 28.53444319 7.0625 28.5859375 C6.23522903 28.58716614 5.40795807 28.58839478 4.55561829 28.58966064 C0.72182796 28.68652638 -1.50683248 28.93908235 -4.89453125 30.8671875 C-7.29325822 33.57484143 -8.0684394 35.56464577 -8.9765625 39.0546875 C-9.42612305 40.72724609 -9.42612305 40.72724609 -9.88476562 42.43359375 C-10.17673828 43.59246094 -10.46871094 44.75132812 -10.76953125 45.9453125 C-11.23649414 47.70681641 -11.23649414 47.70681641 -11.71289062 49.50390625 C-12.47737099 52.39717039 -13.22466516 55.29378407 -13.95703125 58.1953125 C-13.62703125 58.5253125 -13.29703125 58.8553125 -12.95703125 59.1953125 C-12.065 58.70160156 -11.17296875 58.20789063 -10.25390625 57.69921875 C-9.07174517 57.05184482 -7.88944621 56.40472261 -6.70703125 55.7578125 C-6.12050781 55.43232422 -5.53398438 55.10683594 -4.9296875 54.77148438 C0.38642438 51.87450206 4.09178877 51.06810083 10.12109375 51.09765625 C11.86132812 51.10249023 11.86132812 51.10249023 13.63671875 51.10742188 C15.4465625 51.11999023 15.4465625 51.11999023 17.29296875 51.1328125 C19.12601563 51.13958008 19.12601563 51.13958008 20.99609375 51.14648438 C24.01176821 51.15826435 27.02734373 51.17471397 30.04296875 51.1953125 C28.58759049 60.23169093 25.81401888 68.32795209 23.04296875 77.1953125 C8.85296875 77.1953125 -5.33703125 77.1953125 -19.95703125 77.1953125 C-20.61703125 80.4953125 -21.27703125 83.7953125 -21.95703125 87.1953125 C-22.32828125 88.3915625 -22.69953125 89.5878125 -23.08203125 90.8203125 C-24.29164746 94.90487813 -24.29164746 94.90487813 -23.95703125 102.1953125 C-4.65203125 102.6903125 -4.65203125 102.6903125 15.04296875 103.1953125 C16.52112902 106.15163305 15.48109324 107.92770469 14.609375 111.078125 C14.29033203 112.24472656 13.97128906 113.41132812 13.64257812 114.61328125 C13.30033203 115.83660156 12.95808594 117.05992187 12.60546875 118.3203125 C12.26708984 119.55136719 11.92871094 120.78242187 11.58007812 122.05078125 C10.7407382 125.10077704 9.89477281 128.14877857 9.04296875 131.1953125 C1.53571132 131.27174738 -5.97144471 131.32407344 -13.47900391 131.36010742 C-16.02982331 131.37513886 -18.5806171 131.39556955 -21.13134766 131.42163086 C-24.81028588 131.45826222 -28.4888806 131.47509596 -32.16796875 131.48828125 C-33.29753998 131.50376511 -34.42711121 131.51924896 -35.59091187 131.53520203 C-46.10330687 131.53740687 -55.25724592 129.79220538 -62.95703125 122.1953125 C-67.91838129 116.09777543 -70.42536373 109.57646108 -69.6940918 101.70654297 C-69.01243572 95.59532194 -67.44023558 89.80151678 -65.7890625 83.890625 C-65.47176682 82.73142548 -65.15447113 81.57222595 -64.82756042 80.37789917 C-64.15630153 77.93123539 -63.48120688 75.48562109 -62.80249023 73.04101562 C-61.78278564 69.36805462 -60.77407791 65.69222388 -59.76757812 62.015625 C-57.85992705 55.06719284 -55.91446232 48.12985975 -53.95703125 41.1953125 C-53.67760681 40.19479858 -53.39818237 39.19428467 -53.11029053 38.16345215 C-52.34617674 35.43862529 -51.56665947 32.71875371 -50.78125 30 C-50.46000908 28.84457199 -50.46000908 28.84457199 -50.13227844 27.665802 C-47.25987799 17.90702723 -42.82486502 10.27561374 -33.96484375 5.01171875 C-23.51338947 -0.21400839 -11.42600913 -0.09815871 0 0 Z " fill="#000000" transform="translate(685.95703125,589.8046875)"/>
<path d="M0 0 C1.90346443 0.00424484 1.90346443 0.00424484 3.84538269 0.00857544 C7.17111352 0.01778263 10.49655339 0.03565617 13.82220459 0.0579834 C17.23496019 0.07867732 20.64774622 0.08762676 24.06054688 0.09765625 C30.72143236 0.11955934 37.38218382 0.15291682 44.04296875 0.1953125 C43.49710163 4.39690384 42.8200908 8.40559654 41.6328125 12.47265625 C41.36533203 13.39755859 41.09785156 14.32246094 40.82226562 15.27539062 C40.54447266 16.21833984 40.26667969 17.16128906 39.98046875 18.1328125 C39.69880859 19.10283203 39.41714844 20.07285156 39.12695312 21.07226562 C38.43650409 23.44787841 37.74174874 25.82213955 37.04296875 28.1953125 C35.30225098 28.2250415 35.30225098 28.2250415 33.52636719 28.25537109 C29.21739141 28.33149162 24.90875047 28.42019916 20.60009766 28.51269531 C18.73590713 28.5509584 16.87164345 28.58581596 15.00732422 28.6171875 C12.32623159 28.66289606 9.64564142 28.72088072 6.96484375 28.78125 C6.1324115 28.79280121 5.29997925 28.80435242 4.44232178 28.81625366 C-1.11941125 28.80927091 -1.11941125 28.80927091 -5.95703125 31.1953125 C-7.12756874 33.35796583 -7.12756874 33.35796583 -7.84375 35.95703125 C-8.29137695 37.38885742 -8.29137695 37.38885742 -8.74804688 38.84960938 C-9.04388672 39.85056641 -9.33972656 40.85152344 -9.64453125 41.8828125 C-9.95197266 42.86443359 -10.25941406 43.84605469 -10.57617188 44.85742188 C-12.14202258 49.96613829 -13.39938977 54.87913039 -13.95703125 60.1953125 C-12.9928125 59.62941406 -12.02859375 59.06351563 -11.03515625 58.48046875 C-9.75926426 57.73932561 -8.48321426 56.99845443 -7.20703125 56.2578125 C-6.25570313 55.69803711 -6.25570313 55.69803711 -5.28515625 55.12695312 C0.20579463 51.95249715 3.82303153 51.0667834 10.12109375 51.09765625 C11.86132812 51.10249023 11.86132812 51.10249023 13.63671875 51.10742188 C15.4465625 51.11999023 15.4465625 51.11999023 17.29296875 51.1328125 C19.12601563 51.13958008 19.12601563 51.13958008 20.99609375 51.14648438 C24.01176821 51.15826435 27.02734373 51.17471397 30.04296875 51.1953125 C28.58759049 60.23169093 25.81401888 68.32795209 23.04296875 77.1953125 C8.85296875 77.1953125 -5.33703125 77.1953125 -19.95703125 77.1953125 C-20.61703125 80.4953125 -21.27703125 83.7953125 -21.95703125 87.1953125 C-22.32828125 88.3915625 -22.69953125 89.5878125 -23.08203125 90.8203125 C-24.29164746 94.90487813 -24.29164746 94.90487813 -23.95703125 102.1953125 C-4.65203125 102.6903125 -4.65203125 102.6903125 15.04296875 103.1953125 C13.91707376 113.32836739 13.91707376 113.32836739 12.88671875 116.9765625 C12.55994141 118.14445313 12.55994141 118.14445313 12.2265625 119.3359375 C11.88818359 120.50382813 11.88818359 120.50382813 11.54296875 121.6953125 C11.31738281 122.50484375 11.09179688 123.314375 10.859375 124.1484375 C9.18502086 130.05326039 9.18502086 130.05326039 8.04296875 131.1953125 C6.41391364 131.30968146 4.77994482 131.35491514 3.14697266 131.37231445 C2.10143219 131.38514969 1.05589172 131.39798492 -0.02133179 131.41120911 C-1.16284698 131.41859604 -2.30436218 131.42598297 -3.48046875 131.43359375 C-4.65155182 131.4416655 -5.82263489 131.44973724 -7.02920532 131.45805359 C-9.51929229 131.47192222 -12.00939849 131.48263186 -14.49951172 131.49047852 C-18.28130232 131.50758306 -22.06219417 131.55143246 -25.84375 131.59570312 C-28.26431649 131.6058392 -30.68489042 131.61435243 -33.10546875 131.62109375 C-34.22674164 131.63860184 -35.34801453 131.65610992 -36.50326538 131.67414856 C-46.01065629 131.64832413 -55.35726676 129.79502765 -62.45703125 123.01953125 C-67.58297463 116.78563657 -69.72218364 110.16805878 -69.95703125 102.1953125 C-69.58698682 99.04530553 -68.83464173 96.05012923 -68.01953125 92.98828125 C-67.79499268 92.09852097 -67.5704541 91.20876068 -67.33911133 90.29203796 C-66.56438457 87.25444197 -65.76287369 84.22479667 -64.95703125 81.1953125 C-64.66086914 80.06917542 -64.36470703 78.94303833 -64.05957031 77.78277588 C-62.08872935 70.30329599 -60.0685834 62.83826796 -58.01855469 55.38012695 C-57.12498345 52.12779502 -56.24464295 48.8720275 -55.36705017 45.61535358 C-54.51044503 42.44806871 -53.63896207 39.28487762 -52.76953125 36.12109375 C-52.46104248 34.96990555 -52.15255371 33.81871735 -51.8347168 32.63264465 C-48.5419036 20.79011969 -44.72208254 11.5009128 -33.8984375 4.94921875 C-23.51082899 -0.25411542 -11.35188924 -0.09752196 0 0 Z " fill="#000000" transform="translate(1217.95703125,589.8046875)"/>
<path d="M0 0 C28.71 0 57.42 0 87 0 C85.875 9 85.875 9 84.58984375 13.15625 C84.22814087 14.34444336 84.22814087 14.34444336 83.85913086 15.55664062 C83.55499268 16.52794922 83.25085449 17.49925781 82.9375 18.5 C81.968125 21.635 80.99875 24.77 80 28 C72.41 28 64.82 28 57 28 C56.34 31.63 55.68 35.26 55 39 C54.08599592 42.55575779 53.14048457 46.07860459 52.12890625 49.60546875 C51.85047882 50.59251297 51.57205139 51.57955719 51.28518677 52.59651184 C50.38215263 55.79480852 49.47232409 58.99112899 48.5625 62.1875 C47.2973648 66.65955981 46.03555557 71.13255666 44.7734375 75.60546875 C44.45644394 76.72694305 44.13945038 77.84841736 43.81285095 79.00387573 C40.46716375 90.85335616 37.21105102 102.72715724 33.97781372 114.60775757 C33.32405492 117.00977999 32.66800468 119.41116709 32.01171875 121.8125 C31.82070587 122.51840775 31.62969299 123.22431549 31.43289185 123.95161438 C30.11305222 128.77389555 30.11305222 128.77389555 29 131 C14.81 131 0.62 131 -14 131 C-13.28103446 125.96724123 -12.44260799 121.52204101 -11.12988281 116.6628418 C-10.84910385 115.61738693 -10.84910385 115.61738693 -10.56265259 114.55081177 C-9.94739844 112.26567867 -9.32575513 109.98235235 -8.703125 107.69921875 C-8.26806302 106.09651915 -7.83306656 104.49380177 -7.39813232 102.8910675 C-6.48667699 99.53726786 -5.57152317 96.18450102 -4.65429688 92.83227539 C-3.48658099 88.56180634 -2.33254136 84.28777197 -1.18187332 80.01268291 C-0.28820487 76.70162276 0.61506822 73.39323695 1.52091217 70.08548927 C1.95010882 68.51215932 2.37588462 66.93789162 2.79799652 65.3626461 C8.90370835 42.61819005 8.90370835 42.61819005 18.125 35.5 C19.15882813 34.6853125 20.19265625 33.870625 21.2578125 33.03125 C23.13705419 31.63921912 25.05412282 30.29725145 27 29 C15.78 28.67 4.56 28.34 -7 28 C-5.11324907 18.56624537 -2.57488915 9.26960093 0 0 Z " fill="#000000" transform="translate(848,590)"/>
<path d="M0 0 C14.19 0 28.38 0 43 0 C41.87499403 10.12505373 41.87499403 10.12505373 40.94651794 13.46247864 C40.73793655 14.22531662 40.52935516 14.9881546 40.31445312 15.77410889 C39.97401978 16.97804291 39.97401978 16.97804291 39.62670898 18.20629883 C39.26537621 19.51605934 39.26537621 19.51605934 38.89674377 20.85227966 C38.10314037 23.72241092 37.29972551 26.58969331 36.49609375 29.45703125 C35.93318657 31.48443414 35.37086539 33.51199982 34.80909729 35.53971863 C33.32727246 40.88179482 31.83697575 46.22147249 30.34503174 51.56072998 C28.85664248 56.89376615 27.3771403 62.22926589 25.89648438 67.56445312 C20.0164984 88.7345092 14.07271986 109.88434985 8 131 C-6.19 131 -20.38 131 -35 131 C-33.87499978 121.99999824 -33.87499978 121.99999824 -33.03590393 118.97735596 C-32.84704117 118.286353 -32.65817841 117.59535004 -32.46359253 116.88340759 C-32.25848053 116.15521317 -32.05336853 115.42701874 -31.84204102 114.67675781 C-31.62387222 113.8848555 -31.40570343 113.09295319 -31.18092346 112.27705383 C-30.46057855 109.66757 -29.73228775 107.06037592 -29.00390625 104.453125 C-28.49071898 102.60037486 -27.97802858 100.74748703 -27.46580505 98.89447021 C-26.11175736 94.00131462 -24.75096244 89.11006039 -23.38873291 84.21917725 C-22.04222174 79.38031126 -20.70202579 74.53969803 -19.36132812 69.69921875 C-16.75381198 60.2890763 -14.13920631 50.88091729 -11.52227783 41.47338867 C-9.5709677 34.4584355 -7.6226292 27.44265751 -5.67428589 20.42687988 C-3.78324303 13.61781277 -1.89156224 6.80892284 0 0 Z " fill="#000000" transform="translate(345,590)"/>
<path d="M0 0 C27.72 0 55.44 0 84 0 C82.36901913 3.26196173 81.4706324 4.77898439 79.0234375 7.20703125 C78.43892822 7.79025146 77.85441895 8.37347168 77.25219727 8.97436523 C76.63272217 9.58094971 76.01324707 10.18753418 75.375 10.8125 C74.74198975 11.43906494 74.10897949 12.06562988 73.45678711 12.71118164 C69.65891952 16.44678113 65.78838218 20.05188006 61.72265625 23.49609375 C59.28159971 25.62717486 57.04685876 27.9432209 54.77734375 30.25390625 C52.93406426 32.06477643 51.02177201 33.75321354 49.0625 35.4375 C46.25423653 37.85617779 43.60029407 40.35899683 41 43 C37.7784145 46.27202128 34.41407855 49.29316055 30.93359375 52.28515625 C29.04505403 53.96004299 27.26844352 55.69947587 25.5 57.5 C23.10946833 59.93389732 20.64953738 62.21355559 18.0625 64.4375 C15.25423653 66.85617779 12.60029407 69.35899683 10 72 C6.79970478 75.25029983 3.45775424 78.24724245 0 81.21875 C-2.08337078 83.0742521 -4.04281207 85.01223101 -6 87 C-9.82865082 90.88099565 -13.85923302 94.45760975 -18 98 C-19.4817291 99.26784473 -20.96095675 100.53861955 -22.4375 101.8125 C-23.42556641 102.65748047 -23.42556641 102.65748047 -24.43359375 103.51953125 C-26.11019986 104.93469208 -26.11019986 104.93469208 -27 107 C-27.99 107 -28.98 107 -30 107 C-26.79773576 93.72134233 -23.14248427 80.58320986 -19.4375 67.4375 C-18.81925868 65.23832584 -18.20117799 63.03910652 -17.58325195 60.83984375 C-16.33220515 56.38878945 -15.07972586 51.93814179 -13.82617188 47.48779297 C-12.37056156 42.31899114 -10.91930781 37.14898324 -9.47044373 31.97828674 C-8.44988151 28.33680923 -7.4275859 24.69582006 -6.40481567 21.05496216 C-5.92836601 19.35792569 -5.45251108 17.66072214 -4.9772644 15.96334839 C-4.32401527 13.63126721 -3.66822347 11.29991644 -3.01171875 8.96875 C-2.72521454 7.94274437 -2.72521454 7.94274437 -2.43292236 6.89601135 C-1.11426185 2.2285237 -1.11426185 2.2285237 0 0 Z " fill="#CA3132" transform="translate(76,559)"/>
</svg>
