<?xml version="1.0" encoding="UTF-8"?>
<svg version="1.1" xmlns="http://www.w3.org/2000/svg" width="416" height="215">
<path d="M0 0 C0.71309326 -0.01313232 1.42618652 -0.02626465 2.16088867 -0.03979492 C6.91040864 -0.04697026 10.80158071 0.69174301 15.3125 2.1875 C15.3125 2.5175 15.3125 2.8475 15.3125 3.1875 C14.0440625 3.29964844 14.0440625 3.29964844 12.75 3.4140625 C3.19646255 4.52140434 -2.26647546 6.98905521 -8.4375 14.3125 C-9.18 15.26125 -9.9225 16.21 -10.6875 17.1875 C-11.8321875 18.2703125 -11.8321875 18.2703125 -13 19.375 C-15.02820926 21.14070505 -15.02820926 21.14070505 -14.6875 24.1875 C-15.6235177 26.83811892 -16.59591734 29.44858294 -17.625 32.0625 C-19.33457358 36.41774777 -20.93942345 40.54798677 -21.6875 45.1875 C-21.93628906 46.46496094 -22.18507812 47.74242187 -22.44140625 49.05859375 C-25.40825612 65.34202131 -26.21303484 81.65104247 -22.66748047 97.91064453 C-21.90746451 101.4112974 -21.6892404 103.76270167 -22.6875 107.1875 C-21.99919208 108.89188152 -21.30133747 110.59424309 -20.51953125 112.2578125 C-18.81358321 116.2143305 -17.99073968 120.45470185 -17.25 124.6875 C-16.1358248 129.6393898 -14.09306346 134.29905601 -12.0625 138.9375 C-10.6875 142.1875 -10.6875 142.1875 -10.22851562 144.15405273 C-9.64406724 146.35074526 -8.79482638 148.00901361 -7.65625 149.97265625 C-7.25792969 150.66810547 -6.85960938 151.36355469 -6.44921875 152.08007812 C-6.03285156 152.79615234 -5.61648437 153.51222656 -5.1875 154.25 C-4.36220794 155.67701428 -3.53919582 157.10535018 -2.71875 158.53515625 C-2.35330078 159.16429932 -1.98785156 159.79344238 -1.61132812 160.44165039 C-0.6875 162.1875 -0.6875 162.1875 0.3125 165.1875 C0.9725 165.1875 1.6325 165.1875 2.3125 165.1875 C2.3125 166.1775 2.3125 167.1675 2.3125 168.1875 C3.3025 168.5175 4.2925 168.8475 5.3125 169.1875 C6.75 170.7890625 6.75 170.7890625 8.3125 172.8125 C14.25685797 179.79994827 22.13611378 185.02224461 31.3125 186.1875 C38.14222384 186.25233915 42.61454148 184.86743154 48.3125 181.1875 C48.9725 181.1875 49.6325 181.1875 50.3125 181.1875 C50.6425 180.1975 50.9725 179.2075 51.3125 178.1875 C99.8225 178.1875 148.3325 178.1875 198.3125 178.1875 C197.9825 178.8475 197.6525 179.5075 197.3125 180.1875 C194.75593567 180.64665222 194.75593567 180.64665222 191.27661133 180.94604492 C189.96396301 181.06370209 188.6513147 181.18135925 187.29888916 181.30258179 C185.8307821 181.42452489 184.36266235 181.54631541 182.89453125 181.66796875 C181.36001293 181.80210248 179.82557007 181.93710187 178.29119873 182.07290649 C174.97885291 182.36427865 171.666067 182.64970861 168.35281372 182.93057251 C163.0995623 183.37591297 157.84744482 183.83370603 152.59545898 184.29370117 C147.11811622 184.77278043 141.64069014 185.25081449 136.16285706 185.72425842 C123.29904884 186.8361032 110.43778136 187.97395397 97.578125 189.1328125 C96.70141836 189.21179338 95.82471172 189.29077427 94.92143822 189.37214851 C90.58670188 189.7627597 86.25200353 190.15379042 81.91732788 190.54507446 C73.90474466 191.26822047 65.89186948 191.98810965 57.87890625 192.70703125 C57.14512064 192.77290876 56.41133503 192.83878628 55.65531349 192.90666008 C45.62401285 193.8069287 35.59172312 194.69495144 25.55653381 195.55097961 C21.39011743 195.90860216 17.22954117 196.29510412 13.07006836 196.7265625 C-0.47736821 198.09592691 -16.27967126 199.57248099 -28.6875 193.1875 C-30.14736328 192.49333984 -30.14736328 192.49333984 -31.63671875 191.78515625 C-39.50310267 187.66562869 -50.74046725 180.02859825 -53.6875 171.1875 C-54.28820312 170.59453125 -54.88890625 170.0015625 -55.5078125 169.390625 C-63.87594788 160.93250967 -67.93506559 148.23240128 -71.6875 137.1875 C-72.06310059 136.12208984 -72.06310059 136.12208984 -72.44628906 135.03515625 C-77.59439788 120.16715897 -79.44822591 104.85075021 -79.6875 89.1875 C-79.70264648 88.29256836 -79.71779297 87.39763672 -79.73339844 86.47558594 C-79.77326148 83.69197891 -79.7976594 80.90884852 -79.8125 78.125 C-79.81733398 77.28074463 -79.82216797 76.43648926 -79.82714844 75.56665039 C-79.8023682 66.58823787 -79.02798751 58.16228558 -76.375 49.5625 C-76.15279785 48.82539795 -75.9305957 48.0882959 -75.70166016 47.32885742 C-74.14328021 42.30288688 -72.28620298 37.77854194 -69.6875 33.1875 C-69.213125 32.135625 -68.73875 31.08375 -68.25 30 C-66.44450725 26.75011304 -64.40670356 24.72130332 -61.6875 22.1875 C-61.25308594 21.66414063 -60.81867187 21.14078125 -60.37109375 20.6015625 C-49.55715153 8.12176495 -27.49390736 1.5514733 -11.59375 0.3125 C-7.72876795 0.14626421 -3.86827136 0.04447244 0 0 Z M-44.6875 26.1875 C-43.6875 28.1875 -43.6875 28.1875 -43.6875 28.1875 Z M-45.6875 28.1875 C-44.6875 30.1875 -44.6875 30.1875 -44.6875 30.1875 Z M-30.6875 28.1875 C-29.6875 30.1875 -29.6875 30.1875 -29.6875 30.1875 Z M-31.6875 30.1875 C-30.6875 32.1875 -30.6875 32.1875 -30.6875 32.1875 Z M-47.6875 32.1875 C-49.3375 37.1375 -50.9875 42.0875 -52.6875 47.1875 C-52.0275 47.8475 -51.3675 48.5075 -50.6875 49.1875 C-49.98940555 46.91944205 -49.30378983 44.64883393 -48.625 42.375 C-48.42583984 41.73240234 -48.22667969 41.08980469 -48.02148438 40.42773438 C-46.80640735 36.32834225 -46.80640735 36.32834225 -47.6875 32.1875 Z M-32.6875 33.1875 C-33.6775 33.8475 -34.6675 34.5075 -35.6875 35.1875 C-34.6975 35.6825 -34.6975 35.6825 -33.6875 36.1875 C-33.0275 35.8575 -32.3675 35.5275 -31.6875 35.1875 C-32.0175 34.5275 -32.3475 33.8675 -32.6875 33.1875 Z M-37.6875 35.1875 C-40.31137135 36.57842892 -40.31137135 36.57842892 -42.6875 38.1875 C-41.6975 38.6825 -41.6975 38.6825 -40.6875 39.1875 C-38.06362865 37.79657108 -38.06362865 37.79657108 -35.6875 36.1875 C-36.3475 35.8575 -37.0075 35.5275 -37.6875 35.1875 Z M-61.6875 37.1875 C-61.3575 37.8475 -61.0275 38.5075 -60.6875 39.1875 C-60.3575 38.5275 -60.0275 37.8675 -59.6875 37.1875 C-60.3475 37.1875 -61.0075 37.1875 -61.6875 37.1875 Z M-34.6875 38.1875 C-33.6875 41.1875 -33.6875 41.1875 -33.6875 41.1875 Z M-63.6875 41.1875 C-64.0175 43.1675 -64.3475 45.1475 -64.6875 47.1875 C-64.0275 46.1975 -63.3675 45.2075 -62.6875 44.1875 C-63.0175 43.1975 -63.3475 42.2075 -63.6875 41.1875 Z M-35.6875 41.1875 C-37.68535435 45.3080746 -37.86585515 48.63944365 -37.6875 53.1875 C-37.3575 53.1875 -37.0275 53.1875 -36.6875 53.1875 C-36.336875 51.95 -35.98625 50.7125 -35.625 49.4375 C-35.42777344 48.74140625 -35.23054688 48.0453125 -35.02734375 47.328125 C-34.65263841 44.96791204 -34.96096676 43.44330949 -35.6875 41.1875 Z M-65.6875 47.1875 C-68.87854195 58.69768935 -68.87854195 58.69768935 -70.50878906 70.49536133 C-70.63557475 72.4052873 -70.7955758 74.31313848 -70.97851562 76.21850586 C-71.75431606 84.85804472 -71.47076513 93.01578553 -70.5 101.625 C-70.36271484 102.89037598 -70.22542969 104.15575195 -70.08398438 105.45947266 C-68.72858787 117.16256844 -66.35795717 127.34851449 -61.6875 138.1875 C-60.92223039 140.50786294 -60.31464828 142.82363339 -59.6875 145.1875 C-58.41871406 143.5767395 -58.41871406 143.5767395 -57.6875 141.1875 C-58.4060923 137.59453851 -59.30516673 134.79923324 -61.25 131.6875 C-63.05224357 128.55316336 -63.33771284 125.75532907 -63.6875 122.1875 C-64.3475 122.1875 -65.0075 122.1875 -65.6875 122.1875 C-65.378125 121.1046875 -65.378125 121.1046875 -65.0625 120 C-64.620458 116.68468502 -65.39867239 115.22003555 -66.6875 112.1875 C-66.88579842 109.34522269 -66.96377886 107.74005772 -65.6875 105.1875 C-66.3475 105.1875 -67.0075 105.1875 -67.6875 105.1875 C-67.65494792 103.26692708 -67.62239583 101.34635417 -67.58984375 99.42578125 C-67.6323623 97.13638453 -67.6323623 97.13638453 -68.1796875 94.73046875 C-69.82576948 86.48739667 -68.56960309 77.73737846 -67.8125 69.4375 C-67.73410889 68.550625 -67.65571777 67.66375 -67.57495117 66.75 C-67.17501352 62.65169357 -66.64848177 58.77130055 -65.5546875 54.796875 C-64.73120606 51.36941171 -64.6978634 50.35608098 -65.6875 47.1875 Z M-52.6875 49.1875 C-54.72811541 56.36609349 -56.06119729 62.71355426 -55.6875 70.1875 C-55.0275 69.8575 -54.3675 69.5275 -53.6875 69.1875 C-53.20585976 66.74956793 -52.84531367 64.39936982 -52.5625 61.9375 C-52.43294922 60.93396484 -52.43294922 60.93396484 -52.30078125 59.91015625 C-51.85607081 56.31717823 -51.58929302 52.80712856 -51.6875 49.1875 C-52.0175 49.1875 -52.3475 49.1875 -52.6875 49.1875 Z M-38.6875 53.1875 C-38.6875 53.8475 -38.6875 54.5075 -38.6875 55.1875 C-40.3375 55.8475 -41.9875 56.5075 -43.6875 57.1875 C-41.05643239 58.24020463 -41.05643239 58.24020463 -39.6875 58.1875 C-40.01933021 61.42261969 -40.41050932 64.64790816 -40.8125 67.875 C-40.9053125 68.78701172 -40.998125 69.69902344 -41.09375 70.63867188 C-41.69551476 75.23548601 -42.13650309 78.27521091 -45.8046875 81.33203125 C-46.75601563 81.94433594 -47.70734375 82.55664062 -48.6875 83.1875 C-48.3575 83.8475 -48.0275 84.5075 -47.6875 85.1875 C-46.0375 83.8675 -44.3875 82.5475 -42.6875 81.1875 C-41.08024365 84.40201269 -41.63001815 87.62362536 -41.6875 91.1875 C-40.05353813 90.18277845 -40.05353813 90.18277845 -38.6875 88.1875 C-38.35651087 85.46725904 -38.19899174 82.96290705 -38.17578125 80.23828125 C-38.15783005 79.46566452 -38.13987885 78.69304779 -38.12138367 77.89701843 C-38.06723896 75.431401 -38.03337269 72.96597757 -38 70.5 C-37.96683048 68.82744694 -37.93234115 67.15491949 -37.89648438 65.48242188 C-37.81151051 61.3842545 -37.7447198 57.28614506 -37.6875 53.1875 C-38.0175 53.1875 -38.3475 53.1875 -38.6875 53.1875 Z M-47.3125 59.6875 C-47.76625 60.1825 -48.22 60.6775 -48.6875 61.1875 C-48.3575 61.8475 -48.0275 62.5075 -47.6875 63.1875 C-46.3675 61.5375 -45.0475 59.8875 -43.6875 58.1875 C-45.81114481 57.96140663 -45.81114481 57.96140663 -47.3125 59.6875 Z M-55.6875 71.1875 C-56.44177297 76.16656259 -56.44177297 76.16656259 -56.6875 81.1875 C-56.0275 81.1875 -55.3675 81.1875 -54.6875 81.1875 C-54.6875 77.8875 -54.6875 74.5875 -54.6875 71.1875 C-55.0175 71.1875 -55.3475 71.1875 -55.6875 71.1875 Z M-67.6875 81.1875 C-67.0275 82.5075 -66.3675 83.8275 -65.6875 85.1875 C-65.0275 84.8575 -64.3675 84.5275 -63.6875 84.1875 C-65.0075 83.1975 -66.3275 82.2075 -67.6875 81.1875 Z M-55.6875 82.1875 C-55.6875 85.1875 -55.6875 85.1875 -55.6875 85.1875 Z M-56.6875 85.1875 C-56.81636183 92.58989645 -56.48475902 99.82709083 -55.6875 107.1875 C-55.0275 107.1875 -54.3675 107.1875 -53.6875 107.1875 C-53.996875 108.4559375 -53.996875 108.4559375 -54.3125 109.75 C-54.74593012 113.72310946 -53.9637763 116.43374618 -52.6875 120.1875 C-50.11860689 116.38668417 -50.78909411 113.45635704 -51.5 109.0625 C-51.69207031 107.82242188 -51.88414063 106.58234375 -52.08203125 105.3046875 C-52.52187561 102.29502661 -52.52187561 102.29502661 -53.6875 100.1875 C-53.96505815 96.55280996 -54.13485896 92.91838132 -54.30859375 89.27734375 C-54.43363281 88.25769531 -54.55867188 87.23804687 -54.6875 86.1875 C-55.3475 85.8575 -56.0075 85.5275 -56.6875 85.1875 Z M-39.6875 90.1875 C-40.0175 90.5175 -40.3475 90.8475 -40.6875 91.1875 C-40.62881709 92.77193845 -40.54048193 94.35532314 -40.4375 95.9375 C-40.35634328 100.65811567 -40.35634328 100.65811567 -41.796875 102.9609375 C-43.1875 104.3125 -43.1875 104.3125 -45.6875 106.1875 C-43.7075 105.5275 -41.7275 104.8675 -39.6875 104.1875 C-39.55472656 105.10273437 -39.42195313 106.01796875 -39.28515625 106.9609375 C-39.10855469 108.14945313 -38.93195312 109.33796875 -38.75 110.5625 C-38.57597656 111.74585937 -38.40195312 112.92921875 -38.22265625 114.1484375 C-37.85287214 117.09452381 -37.85287214 117.09452381 -36.6875 119.1875 C-36.0275 119.1875 -35.3675 119.1875 -34.6875 119.1875 C-34.59863816 115.98847361 -34.77691469 113.26072544 -35.6875 110.1875 C-36.3475 110.1875 -37.0075 110.1875 -37.6875 110.1875 C-37.4090625 108.82625 -37.4090625 108.82625 -37.125 107.4375 C-36.71407967 104.38494896 -36.86011171 103.03739301 -37.6875 100.1875 C-37.6875 98.52083333 -37.6875 96.85416667 -37.6875 95.1875 C-38.0175 94.8575 -38.3475 94.5275 -38.6875 94.1875 C-39.04912029 92.86155895 -39.38478039 91.52811543 -39.6875 90.1875 Z M-34.6875 119.1875 C-33.6875 121.1875 -33.6875 121.1875 -33.6875 121.1875 Z M-51.6875 120.1875 C-50.6875 122.1875 -50.6875 122.1875 -50.6875 122.1875 Z M-35.6875 121.1875 C-37.3375 123.1675 -38.9875 125.1475 -40.6875 127.1875 C-40.3575 127.8475 -40.0275 128.5075 -39.6875 129.1875 C-38.0375 127.8675 -36.3875 126.5475 -34.6875 125.1875 C-34.584375 125.991875 -34.48125 126.79625 -34.375 127.625 C-33.54425427 131.92977332 -32.45766311 136.16440202 -30.6875 140.1875 C-30.0275 140.5175 -29.3675 140.8475 -28.6875 141.1875 C-27.46779396 137.52838189 -28.04807117 136.74868679 -29.5625 133.3125 C-31.04066747 129.93235481 -32.07375415 126.83079985 -32.6875 123.1875 C-33.3475 123.1875 -34.0075 123.1875 -34.6875 123.1875 C-35.0175 122.5275 -35.3475 121.8675 -35.6875 121.1875 Z M-50.6875 122.1875 C-52.14883311 126.83401427 -51.08010421 129.58096788 -49.25 134 C-48.77691406 135.16144531 -48.30382812 136.32289063 -47.81640625 137.51953125 C-47.44386719 138.39996094 -47.07132813 139.28039062 -46.6875 140.1875 C-46.0275 139.8575 -45.3675 139.5275 -44.6875 139.1875 C-45.85401426 133.25886283 -47.44269358 127.79951606 -49.6875 122.1875 C-50.0175 122.1875 -50.3475 122.1875 -50.6875 122.1875 Z M-45.6875 140.1875 C-44.6875 143.1875 -44.6875 143.1875 -44.6875 143.1875 Z M-28.6875 141.1875 C-30.29657108 143.56362865 -30.29657108 143.56362865 -31.6875 146.1875 C-31.3575 146.8475 -31.0275 147.5075 -30.6875 148.1875 C-29.0375 146.5375 -27.3875 144.8875 -25.6875 143.1875 C-26.3475 143.1875 -27.0075 143.1875 -27.6875 143.1875 C-28.0175 142.5275 -28.3475 141.8675 -28.6875 141.1875 Z M-58.6875 145.1875 C-58.3575 145.8475 -58.0275 146.5075 -57.6875 147.1875 C-57.3575 146.5275 -57.0275 145.8675 -56.6875 145.1875 C-57.3475 145.1875 -58.0075 145.1875 -58.6875 145.1875 Z M-42.6875 145.1875 C-43.0175 146.1775 -43.3475 147.1675 -43.6875 148.1875 C-43.0275 148.8475 -42.3675 149.5075 -41.6875 150.1875 C-41.3575 148.8675 -41.0275 147.5475 -40.6875 146.1875 C-41.3475 145.8575 -42.0075 145.5275 -42.6875 145.1875 Z M-26.6875 145.1875 C-27.0175 145.8475 -27.3475 146.5075 -27.6875 147.1875 C-27.0275 147.1875 -26.3675 147.1875 -25.6875 147.1875 C-26.0175 146.5275 -26.3475 145.8675 -26.6875 145.1875 Z M-25.6875 147.1875 C-24.6875 149.1875 -24.6875 149.1875 -24.6875 149.1875 Z M-57.6875 148.1875 C-57.6875 148.8475 -57.6875 149.5075 -57.6875 150.1875 C-57.0275 150.1875 -56.3675 150.1875 -55.6875 150.1875 C-55.3575 151.1775 -55.0275 152.1675 -54.6875 153.1875 C-54.6875 151.8675 -54.6875 150.5475 -54.6875 149.1875 C-55.6775 148.8575 -56.6675 148.5275 -57.6875 148.1875 Z M-40.6875 149.1875 C-41.0175 150.5075 -41.3475 151.8275 -41.6875 153.1875 C-39.7075 154.1775 -39.7075 154.1775 -37.6875 155.1875 C-38.3475 153.2075 -39.0075 151.2275 -39.6875 149.1875 C-40.0175 149.1875 -40.3475 149.1875 -40.6875 149.1875 Z M-24.6875 149.1875 C-24.11297254 153.11825644 -24.11297254 153.11825644 -21.6875 156.1875 C-21.25363908 152.30952338 -21.25363908 152.30952338 -23.1875 150.4375 C-23.6825 150.025 -24.1775 149.6125 -24.6875 149.1875 Z M-54.6875 153.1875 C-54.0275 154.5075 -53.3675 155.8275 -52.6875 157.1875 C-52.0275 156.8575 -51.3675 156.5275 -50.6875 156.1875 C-52.0075 155.1975 -53.3275 154.2075 -54.6875 153.1875 Z M-20.6875 155.1875 C-20.6875 156.1775 -20.6875 157.1675 -20.6875 158.1875 C-20.0275 157.8575 -19.3675 157.5275 -18.6875 157.1875 C-19.3475 156.5275 -20.0075 155.8675 -20.6875 155.1875 Z M-38.6875 156.1875 C-37.6875 158.1875 -37.6875 158.1875 -37.6875 158.1875 Z M-50.6875 157.1875 C-50.6875 157.5175 -50.6875 157.8475 -50.6875 158.1875 C-49.0375 158.1875 -47.3875 158.1875 -45.6875 158.1875 C-45.6875 157.8575 -45.6875 157.5275 -45.6875 157.1875 C-47.3375 157.1875 -48.9875 157.1875 -50.6875 157.1875 Z M-36.6875 157.1875 C-37.0175 157.8475 -37.3475 158.5075 -37.6875 159.1875 C-37.0275 159.1875 -36.3675 159.1875 -35.6875 159.1875 C-36.0175 158.5275 -36.3475 157.8675 -36.6875 157.1875 Z M-52.6875 158.1875 C-52.0275 159.5075 -51.3675 160.8275 -50.6875 162.1875 C-50.0275 162.1875 -49.3675 162.1875 -48.6875 162.1875 C-49.3475 160.8675 -50.0075 159.5475 -50.6875 158.1875 C-51.3475 158.1875 -52.0075 158.1875 -52.6875 158.1875 Z M-35.6875 159.1875 C-35.3575 160.1775 -35.0275 161.1675 -34.6875 162.1875 C-34.6875 161.1975 -34.6875 160.2075 -34.6875 159.1875 C-35.0175 159.1875 -35.3475 159.1875 -35.6875 159.1875 Z M-20.6875 159.1875 C-18.7075 162.1575 -18.7075 162.1575 -16.6875 165.1875 C-16.3575 164.5275 -16.0275 163.8675 -15.6875 163.1875 C-16.57913577 161.07066159 -16.57913577 161.07066159 -17.6875 159.1875 C-18.6775 159.1875 -19.6675 159.1875 -20.6875 159.1875 Z M-33.6875 162.1875 C-34.01968192 165.19009517 -34.01968192 165.19009517 -32.1875 166.875 C-31.6925 167.308125 -31.1975 167.74125 -30.6875 168.1875 C-30.35531808 165.18490483 -30.35531808 165.18490483 -32.1875 163.5 C-32.6825 163.066875 -33.1775 162.63375 -33.6875 162.1875 Z M-19.6875 163.1875 C-20.3475 163.8475 -21.0075 164.5075 -21.6875 165.1875 C-21.3575 166.1775 -21.0275 167.1675 -20.6875 168.1875 C-20.0275 166.5375 -19.3675 164.8875 -18.6875 163.1875 C-19.0175 163.1875 -19.3475 163.1875 -19.6875 163.1875 Z M-47.6875 165.1875 C-46.6975 166.1775 -45.7075 167.1675 -44.6875 168.1875 C-45.0175 167.1975 -45.3475 166.2075 -45.6875 165.1875 C-46.3475 165.1875 -47.0075 165.1875 -47.6875 165.1875 Z M-15.6875 165.1875 C-14.07481308 167.89974618 -12.43848126 170.56102812 -10.6875 173.1875 C-10.0275 172.8575 -9.3675 172.5275 -8.6875 172.1875 C-9.47095715 171.01530457 -10.26452836 169.84986332 -11.0625 168.6875 C-11.50335938 168.0378125 -11.94421875 167.388125 -12.3984375 166.71875 C-12.82382813 166.2134375 -13.24921875 165.708125 -13.6875 165.1875 C-14.3475 165.1875 -15.0075 165.1875 -15.6875 165.1875 Z M-44.6875 168.1875 C-44.0275 169.8375 -43.3675 171.4875 -42.6875 173.1875 C-41.6975 173.1875 -40.7075 173.1875 -39.6875 173.1875 C-41.3375 171.5375 -42.9875 169.8875 -44.6875 168.1875 Z M-30.6875 168.1875 C-28.7075 171.1575 -28.7075 171.1575 -26.6875 174.1875 C-26.0275 173.8575 -25.3675 173.5275 -24.6875 173.1875 C-25.96812485 171.4800002 -27.30517557 169.81376404 -28.6875 168.1875 C-29.3475 168.1875 -30.0075 168.1875 -30.6875 168.1875 Z M-39.6875 174.1875 C-39.6875 174.8475 -39.6875 175.5075 -39.6875 176.1875 C-39.0275 176.1875 -38.3675 176.1875 -37.6875 176.1875 C-37.6875 176.8475 -37.6875 177.5075 -37.6875 178.1875 C-37.0275 177.8575 -36.3675 177.5275 -35.6875 177.1875 C-36.66600195 176.16645449 -37.66730427 175.1668879 -38.6875 174.1875 C-39.0175 174.1875 -39.3475 174.1875 -39.6875 174.1875 Z M-24.6875 174.1875 C-24.3575 175.1775 -24.0275 176.1675 -23.6875 177.1875 C-23.0275 176.8575 -22.3675 176.5275 -21.6875 176.1875 C-22.6775 175.5275 -23.6675 174.8675 -24.6875 174.1875 Z M-7.6875 174.1875 C-7.3575 175.1775 -7.0275 176.1675 -6.6875 177.1875 C-6.0275 176.8575 -5.3675 176.5275 -4.6875 176.1875 C-5.6775 175.5275 -6.6675 174.8675 -7.6875 174.1875 Z " fill="#FAFAFA" transform="translate(87.6875,9.8125)"/>
<path d="M0 0 C12.0200281 0.04088445 23.377466 2.60637542 35.05859375 5.234375 C53.35817639 9.34858102 71.76625685 12.98548891 90.13671875 16.76757812 C90.80449309 16.90506029 91.47226744 17.04254246 92.16027737 17.18419075 C95.53660126 17.87922462 98.91300605 18.57386199 102.28955078 19.26782227 C110.87064154 21.03176153 119.44947466 22.8061783 128.02639771 24.59029388 C130.03932945 25.00816452 132.05269513 25.42388896 134.06616211 25.83917236 C137.97807857 26.64658215 141.88753907 27.46534281 145.796875 28.28515625 C146.98468567 28.52922714 148.17249634 28.77329803 149.39630127 29.02476501 C151.03076202 29.37034203 151.03076202 29.37034203 152.69824219 29.72290039 C153.65349792 29.9220253 154.60875366 30.12115021 155.59295654 30.3263092 C158 31 158 31 161 33 C153.89320017 33.21441758 147.05269798 32.37844645 140.01171875 31.4609375 C138.06069476 31.21328327 136.10967024 30.96563324 134.1586237 30.71815681 C132.08879387 30.4547496 130.01927612 30.18900452 127.9498291 29.92260742 C121.47883794 29.09003113 115.00579891 28.27362292 108.5328331 27.45656586 C107.06747262 27.27155511 105.60213304 27.08637877 104.13681412 26.90103912 C89.34938207 25.03090388 74.55300097 23.2429364 59.75 21.5 C58.65996674 21.37067078 57.56993347 21.24134155 56.4468689 21.10809326 C53.39716984 20.74654552 50.34710923 20.38825109 47.296875 20.03125 C46.40509048 19.92539581 45.51330597 19.81954163 44.59449768 19.71047974 C43.77795212 19.6158847 42.96140656 19.52128967 42.12011719 19.42382812 C41.41602722 19.34136841 40.71193726 19.25890869 39.98651123 19.1739502 C37.99777525 18.99980519 35.99634598 19 34 19 C36.24270285 22.5347501 37.5736062 23.8549137 41.59326172 25.22265625 C43.0346374 25.52299892 44.48063286 25.80171233 45.9296875 26.0625 C47.0965509 26.29780174 47.0965509 26.29780174 48.2869873 26.53785706 C50.81310606 27.04344168 53.34363253 27.52146221 55.875 28 C57.62625917 28.34663439 59.37707381 28.6955221 61.12744141 29.04663086 C64.56147784 29.73460288 67.99687893 30.41489898 71.43359375 31.08935547 C76.77170421 32.14450304 82.07743753 33.32039983 87.375 34.5625 C92.94531107 35.86430295 98.521671 37.11914278 104.12072754 38.2910614 C107.07603694 38.90963303 110.0296924 39.53594582 112.98345947 40.16183472 C114.44155548 40.46824444 115.90049755 40.77065788 117.36029053 41.06887817 C119.40260548 41.48637983 121.44159646 41.91760661 123.48046875 42.3515625 C124.66535889 42.59729004 125.85024902 42.84301758 127.07104492 43.09619141 C129.95768736 43.98694329 131.16788156 44.65734487 133 47 C132.22253418 46.91024902 131.44506836 46.82049805 130.64404297 46.72802734 C126.72115849 46.27588492 122.79809897 45.82527639 118.875 45.375 C118.13233887 45.28962982 117.38967773 45.20425964 116.62451172 45.11630249 C105.67220783 43.85853672 94.71644903 42.63494427 83.7578125 41.43359375 C81.29573277 41.16294963 78.83365595 40.89227902 76.37158203 40.62158203 C72.68557509 40.21641446 68.99945613 39.81244093 65.31292725 39.41204834 C61.83329668 39.03408412 58.3541203 38.6521597 54.875 38.26953125 C53.82023468 38.156129 52.76546936 38.04272675 51.67874146 37.92588806 C50.70967865 37.81861893 49.74061584 37.71134979 48.7421875 37.60083008 C47.8951123 37.50852615 47.04803711 37.41622223 46.17529297 37.32112122 C44 37 44 37 41 36 C41.165 36.763125 41.33 37.52625 41.5 38.3125 C42 41 42 41 42 44 C39 43 39 43 37.97265625 41.36328125 C37.67230469 40.68652344 37.37195313 40.00976562 37.0625 39.3125 C35.33026227 35.62408507 33.36825723 32.33036173 31 29 C30.4225 28.154375 29.845 27.30875 29.25 26.4375 C25.13288672 21.97729395 20.69824214 18.76211342 14.5 18.3125 C9.07897272 18.69505098 5.56441897 20.98438876 2 25 C-12.27901091 46.90309818 -10.32697325 79.3906682 -5.1875 104.03515625 C-1.09396593 122.25336573 5.64759525 143.46256804 21.4609375 154.7578125 C24.22641742 156.11077037 26.00308504 156.4033717 29.0625 156.375 C29.89910156 156.38273438 30.73570313 156.39046875 31.59765625 156.3984375 C34.45390302 155.92471852 35.78252339 154.80259389 38 153 C38.66 153 39.32 153 40 153 C40.27972656 152.43410156 40.55945313 151.86820313 40.84765625 151.28515625 C41.60550663 149.78230041 42.38373567 148.28951911 43.18359375 146.80859375 C48.02947096 137.64520601 50.13182902 128.13208027 52 118 C52.66 118 53.32 118 54 118 C56.42668892 126.97008227 56.34187242 134.84314291 55 144 C56.62881104 144.07347656 56.62881104 144.07347656 58.29052734 144.1484375 C70.70066656 144.7388339 83.06812456 145.67541895 95.44677734 146.72949219 C98.65565846 147.00260943 101.86489739 147.27117257 105.07421875 147.5390625 C107.14585533 147.71328035 109.21747072 147.88775027 111.2890625 148.0625 C112.7048912 148.18129517 112.7048912 148.18129517 114.14932251 148.30249023 C119.77783234 148.78320269 125.3880757 149.35332319 131 150 C131 150.66 131 151.32 131 152 C130.01107758 152.04043427 129.02215515 152.08086853 128.00326538 152.12252808 C118.67232703 152.51038025 109.34498735 152.94917342 100.01875877 153.43763542 C95.22401307 153.68712616 90.42979913 153.91873941 85.63232422 154.109375 C81.00001979 154.29410939 76.37224308 154.5259597 71.74382401 154.79031754 C69.98004417 154.88280378 68.21529518 154.95843461 66.45005417 155.01671982 C56.81216207 154.98483897 56.81216207 154.98483897 48.675354 159.23687744 C47.04566538 161.83818415 47.04566538 161.83818415 46.02456665 164.54348755 C44.05903873 169.25605927 39.92308544 171.88663474 35.625 174.375 C27.92517368 176.20829198 21.79010034 174.97867247 15 171 C-0.75853715 160.80739209 -9.87474212 139.47327788 -15.25390625 122.36328125 C-15.79091007 120.66230055 -16.3659842 118.97316983 -16.96484375 117.29296875 C-25.56011508 92.02611455 -26.71486962 60.89763208 -20.46899414 35.00585938 C-19.98362495 32.92996491 -19.61117896 30.85066179 -19.25 28.75 C-16.71852075 17.42810855 -11.34452576 8.81897826 -2 2 C-1.34 2 -0.68 2 0 2 C0 1.34 0 0.68 0 0 Z " fill="#FBFBFB" transform="translate(91,17)"/>
<path d="M0 0 C2.191284 -0.01177335 4.37963401 -0.06081627 6.5703125 -0.11157227 C14.80906759 -0.20879755 21.90067161 0.27724156 28.7265625 5.42553711 C32.8075427 10.07631454 34.53878373 16.11742773 34.1484375 22.26538086 C32.87973448 28.76161021 29.06008992 33.61050665 24.7265625 38.42553711 C25.19707031 39.1615918 25.66757812 39.89764648 26.15234375 40.65600586 C26.77496094 41.63182617 27.39757812 42.60764648 28.0390625 43.61303711 C28.96138672 45.05743164 28.96138672 45.05743164 29.90234375 46.53100586 C30.50433594 47.48620117 31.10632813 48.44139648 31.7265625 49.42553711 C32.29761719 50.28791992 32.86867188 51.15030273 33.45703125 52.03881836 C34.7265625 54.42553711 34.7265625 54.42553711 34.7265625 58.42553711 C31.00534315 60.28614678 26.77974565 59.98573315 22.7265625 59.42553711 C20.4140625 57.48803711 20.4140625 57.48803711 18.7265625 54.42553711 C18.31921875 53.70108398 17.911875 52.97663086 17.4921875 52.23022461 C16.63373222 50.70015432 15.79254905 49.16020674 14.97265625 47.60913086 C13.75757552 45.36512405 13.75757552 45.36512405 12.07421875 43.27319336 C10.7265625 41.42553711 10.7265625 41.42553711 10.7265625 39.42553711 C6.4365625 39.42553711 2.1465625 39.42553711 -2.2734375 39.42553711 C-2.25023437 40.70170898 -2.22703125 41.97788086 -2.203125 43.29272461 C-2.18436921 44.96198961 -2.16616881 46.63126091 -2.1484375 48.30053711 C-2.13167969 49.14229492 -2.11492187 49.98405273 -2.09765625 50.85131836 C-2.09121094 51.65698242 -2.08476562 52.46264648 -2.078125 53.29272461 C-2.06765137 54.03635254 -2.05717773 54.77998047 -2.04638672 55.54614258 C-2.2734375 57.42553711 -2.2734375 57.42553711 -4.2734375 59.42553711 C-6.3671875 59.69116211 -6.3671875 59.69116211 -8.7734375 59.67553711 C-9.5675 59.68069336 -10.3615625 59.68584961 -11.1796875 59.69116211 C-13.2734375 59.42553711 -13.2734375 59.42553711 -15.2734375 57.42553711 C-15.51635742 54.55224609 -15.51635742 54.55224609 -15.50390625 50.92163086 C-15.50197266 49.62418945 -15.50003906 48.32674805 -15.49804688 46.98999023 C-15.49184326 46.31331299 -15.48563965 45.63663574 -15.47924805 44.93945312 C-15.46097802 42.8676324 -15.45873845 40.79625814 -15.45898438 38.72436523 C-15.41352007 28.56561968 -15.41352007 28.56561968 -14.2734375 27.42553711 C-12.35745655 27.27922721 -10.43643061 27.198096 -8.515625 27.14428711 C-7.33226562 27.1069043 -6.14890625 27.06952148 -4.9296875 27.03100586 C-3.05796875 26.97879883 -3.05796875 26.97879883 -1.1484375 26.92553711 C9.33570236 26.69186776 9.33570236 26.69186776 19.7265625 25.42553711 C20.62038191 21.93151577 20.95909551 20.00686964 19.6015625 16.61303711 C17.27125543 13.89434553 16.21855124 13.88659188 12.7265625 13.42553711 C10.69218227 13.36860641 8.65597274 13.36338642 6.62109375 13.39819336 C4.89922852 13.4165625 4.89922852 13.4165625 3.14257812 13.43530273 C0.72845809 13.47063132 -1.68560954 13.50973017 -4.09960938 13.55249023 C-5.81567383 13.56892578 -5.81567383 13.56892578 -7.56640625 13.58569336 C-8.6133667 13.60253174 -9.66032715 13.61937012 -10.73901367 13.63671875 C-13.2734375 13.42553711 -13.2734375 13.42553711 -15.2734375 11.42553711 C-15.5390625 9.33178711 -15.5390625 9.33178711 -15.5234375 6.92553711 C-15.52859375 6.13147461 -15.53375 5.33741211 -15.5390625 4.51928711 C-14.69459071 -2.13713757 -5.11880623 0.0130005 0 0 Z " fill="#EEEEEE" transform="translate(240.2734375,72.574462890625)"/>
<path d="M0 0 C4.61598837 0.42848837 4.61598837 0.42848837 7.0625 2.875 C6.74916979 6.59479198 4.69236652 9.02435545 2.5 11.9375 C1.78972656 12.90042969 1.07945312 13.86335938 0.34765625 14.85546875 C-1.18226483 16.87705678 -2.73739754 18.8797974 -4.31640625 20.86328125 C-5.05761719 21.81589844 -5.79882812 22.76851562 -6.5625 23.75 C-7.25601563 24.61367187 -7.94953125 25.47734375 -8.6640625 26.3671875 C-10.26830044 28.82899773 -10.26830044 28.82899773 -9.2109375 31.5078125 C-8.79070312 32.28898437 -8.37046875 33.07015625 -7.9375 33.875 C-7.6075 34.865 -7.2775 35.855 -6.9375 36.875 C-6.2775 36.875 -5.6175 36.875 -4.9375 36.875 C-3.2109375 38.9921875 -3.2109375 38.9921875 -1.3125 41.75 C-0.68085938 42.65492187 -0.04921875 43.55984375 0.6015625 44.4921875 C2.0625 46.875 2.0625 46.875 2.0625 48.875 C2.7225 48.875 3.3825 48.875 4.0625 48.875 C6.25 51.5625 6.25 51.5625 8.0625 54.875 C7.67578125 57.58203125 7.67578125 57.58203125 7.0625 59.875 C2.62716406 61.26408873 -0.5235203 61.42132912 -4.9375 59.875 C-10.5999152 54.4389106 -14.78534688 47.4902948 -18.9375 40.875 C-23.00211003 45.33821226 -26.52572801 49.67342463 -29.625 54.875 C-32.00956562 58.28488181 -33.00384541 59.66943521 -37.11328125 60.57421875 C-40.13127919 60.56357951 -42.96213505 60.36593522 -45.9375 59.875 C-46.62890625 57.6328125 -46.62890625 57.6328125 -46.9375 54.875 C-45.77734375 52.8671875 -45.77734375 52.8671875 -43.875 50.75 C-39.69231715 45.84944864 -35.85699998 40.7694427 -32.0625 35.5625 C-27.20836735 28.93355091 -22.31682988 22.34832027 -17.2265625 15.8984375 C-15.60409705 13.75545413 -14.1416822 11.67426096 -12.7109375 9.4140625 C-6.68482959 0.13056308 -6.68482959 0.13056308 0 0 Z " fill="#EDEDED" transform="translate(389.9375,72.125)"/>
<path d="M0 0 C2.78149414 -0.35644531 2.78149414 -0.35644531 6.28515625 -0.328125 C7.53748047 -0.32296875 8.78980469 -0.3178125 10.08007812 -0.3125 C11.39427734 -0.291875 12.70847656 -0.27125 14.0625 -0.25 C15.38056641 -0.24484375 16.69863281 -0.2396875 18.05664062 -0.234375 C27.84632305 -0.15367695 27.84632305 -0.15367695 29 1 C29.1245486 2.64230364 29.17568524 4.29052276 29.1875 5.9375 C29.20167969 6.83339844 29.21585938 7.72929688 29.23046875 8.65234375 C29 11 29 11 27 13 C24.25514407 13.14507695 21.61519457 13.18652423 18.875 13.125 C18.12089844 13.11597656 17.36679688 13.10695313 16.58984375 13.09765625 C14.72642746 13.0740687 12.86317407 13.03819719 11 13 C11.00222061 13.56154282 11.00444122 14.12308563 11.00672913 14.7016449 C11.02878306 20.52480435 11.04390705 26.34795201 11.05493164 32.17114258 C11.05997308 34.34692873 11.06680607 36.52271147 11.07543945 38.69848633 C11.08751338 41.81853067 11.09323005 44.93853038 11.09765625 48.05859375 C11.10281754 49.03775253 11.10797882 50.01691132 11.11329651 51.02574158 C11.11337204 51.92659988 11.11344757 52.82745819 11.11352539 53.75561523 C11.115746 54.55281479 11.11796661 55.35001434 11.12025452 56.17137146 C11 58 11 58 10 59 C8.14712498 59.07226502 6.29166122 59.0838122 4.4375 59.0625 C3.42558594 59.05347656 2.41367188 59.04445312 1.37109375 59.03515625 C0.19740234 59.01775391 0.19740234 59.01775391 -1 59 C-2.26601979 56.46796041 -2.13384121 54.69775886 -2.14526367 51.86352539 C-2.15164352 50.79223892 -2.15802338 49.72095245 -2.16459656 48.61720276 C-2.16570938 47.45575241 -2.1668222 46.29430206 -2.16796875 45.09765625 C-2.17129715 43.90901474 -2.17462555 42.72037323 -2.17805481 41.49571228 C-2.18312499 38.97802112 -2.18546311 36.46032322 -2.18530273 33.94262695 C-2.18748891 30.08208188 -2.20564312 26.22182258 -2.22460938 22.36132812 C-2.22754328 19.91927181 -2.22952809 17.47721414 -2.23046875 15.03515625 C-2.23765427 13.87573013 -2.24483978 12.71630402 -2.25224304 11.52174377 C-2.24916641 10.44730515 -2.24608978 9.37286652 -2.24291992 8.26586914 C-2.24505745 6.84595421 -2.24505745 6.84595421 -2.24723816 5.39735413 C-2 3 -2 3 0 0 Z " fill="#EFEFEF" transform="translate(121,73)"/>
<path d="M0 0 C1.97909398 -0.02686553 3.95828971 -0.04633375 5.9375 -0.0625 C7.03964844 -0.07410156 8.14179688 -0.08570312 9.27734375 -0.09765625 C12 0 12 0 13 1 C13.50063322 5.34878411 12.48123398 7.2464378 9.8125 10.625 C9.09578125 11.59050781 8.3790625 12.55601563 7.640625 13.55078125 C6.24481175 15.3985356 4.82504625 17.21452166 3.36132812 19.00927734 C-6.52887557 31.19561808 -9.91471358 40.39531138 -9.00097656 56.16845703 C-9.0006543 56.77286621 -9.00033203 57.37727539 -9 58 C-10 59 -10 59 -12.25 59.1328125 C-13.1575 59.13023437 -14.065 59.12765625 -15 59.125 C-16.36125 59.12886719 -16.36125 59.12886719 -17.75 59.1328125 C-20 59 -20 59 -21 58 C-22.51577797 46.4192128 -23.68941717 33.37863061 -16.90112305 23.36523438 C-14.84551374 20.73181739 -12.70190063 18.20811408 -10.45507812 15.73632812 C-8.19451369 13.03882238 -6.64064447 10.10607448 -5 7 C-4.34 7 -3.68 7 -3 7 C-2.690625 6.21625 -2.38125 5.4325 -2.0625 4.625 C-1 2 -1 2 0 0 Z " fill="#F0F0F0" transform="translate(200,73)"/>
<path d="M0 0 C1.77206192 0.00015919 3.54412846 0.00585754 5.31616211 0.01586914 C6.24698105 0.01728409 7.17779999 0.01869904 8.13682556 0.02015686 C11.12241777 0.02577367 14.10793615 0.03832899 17.09350586 0.05102539 C19.11238499 0.05603823 21.13126529 0.06060151 23.15014648 0.06469727 C28.11046158 0.07574856 33.07072118 0.09302444 38.03100586 0.11352539 C40.3235784 4.11670974 40.03402038 6.59996004 39.03100586 11.11352539 C36.37030381 13.77422744 34.37620907 13.36269084 30.75708008 13.39141846 C29.46954834 13.38534576 29.46954834 13.38534576 28.15600586 13.37915039 C26.83560303 13.38202057 26.83560303 13.38202057 25.48852539 13.38494873 C23.62572952 13.38631091 21.76292417 13.38261221 19.90014648 13.37426758 C17.0425085 13.36356846 14.1854992 13.37416171 11.32788086 13.38696289 C9.5205878 13.3856413 7.71329513 13.38307892 5.90600586 13.37915039 C5.04765137 13.38319885 4.18929688 13.38724731 3.30493164 13.39141846 C-2.73907669 13.34344284 -2.73907669 13.34344284 -4.96899414 11.11352539 C-5.19946289 8.76586914 -5.19946289 8.76586914 -5.15649414 6.05102539 C-5.15004883 5.15254883 -5.14360352 4.25407227 -5.13696289 3.32836914 C-4.84257338 -0.55346458 -4.1359582 0.11830107 0 0 Z " fill="#EEEEEE" transform="translate(294.968994140625,72.886474609375)"/>
<path d="M0 0 C1.22052063 -0.0049926 1.22052063 -0.0049926 2.46569824 -0.01008606 C4.1872501 -0.015152 5.90881179 -0.01749449 7.63037109 -0.01733398 C10.27067123 -0.01952248 12.91055497 -0.03768692 15.55078125 -0.05664062 C17.22135273 -0.05957416 18.89192621 -0.06155922 20.5625 -0.0625 C21.35523315 -0.06968552 22.14796631 -0.07687103 22.96472168 -0.08427429 C28.55242318 -0.06085807 28.55242318 -0.06085807 30.78125 2.16796875 C32.22161468 8.15102203 32.22161468 8.15102203 30.82861328 11.36791992 C27.65258945 14.16029098 24.23121298 13.68037175 20.2109375 13.59375 C19.37410431 13.59046188 18.53727112 13.58717377 17.67507935 13.58378601 C15.90814426 13.57336827 14.14124336 13.55342344 12.37451172 13.5246582 C9.65964123 13.48052388 6.94565378 13.46321642 4.23046875 13.45117188 C2.51561214 13.43775063 0.80076649 13.42282844 -0.9140625 13.40625 C-1.73069366 13.39886307 -2.54732483 13.39147614 -3.38870239 13.38386536 C-9.10046849 13.28625026 -9.10046849 13.28625026 -10.21875 12.16796875 C-10.29101502 10.31509373 -10.3025622 8.45962997 -10.28125 6.60546875 C-10.27222656 5.59355469 -10.26320313 4.58164063 -10.25390625 3.5390625 C-10.24230469 2.75660156 -10.23070312 1.97414063 -10.21875 1.16796875 C-7.01175212 -0.43553019 -3.52273791 0.00494515 0 0 Z " fill="#EDEDED" transform="translate(300.21875,95.83203125)"/>
<path d="M0 0 C1.36560059 0.00303635 1.36560059 0.00303635 2.75878906 0.00613403 C3.68723633 0.00517731 4.61568359 0.00422058 5.57226562 0.00323486 C7.53938871 0.00255298 9.50651403 0.00440781 11.47363281 0.00857544 C14.49581932 0.01392358 17.51785721 0.00863071 20.54003906 0.00222778 C22.44628939 0.00288856 24.35253963 0.00416972 26.25878906 0.00613403 C27.16918945 0.0041098 28.07958984 0.00208557 29.01757812 0 C35.39383938 0.02399685 35.39383938 0.02399685 36.50878906 1.13894653 C36.60702843 2.80323705 36.63852537 4.47176584 36.63378906 6.13894653 C36.63765625 7.50019653 36.63765625 7.50019653 36.64160156 8.88894653 C36.50878906 11.13894653 36.50878906 11.13894653 35.50878906 12.13894653 C32.41797441 12.24011574 29.34996351 12.27863211 26.25878906 12.27175903 C25.3303418 12.27271576 24.40189453 12.27367249 23.4453125 12.2746582 C21.47818942 12.27534008 19.5110641 12.27348525 17.54394531 12.26931763 C14.5217588 12.26396948 11.49972092 12.26926236 8.47753906 12.27566528 C6.57128873 12.2750045 4.6650385 12.27372334 2.75878906 12.27175903 C1.39318848 12.27479538 1.39318848 12.27479538 0 12.27789307 C-6.37626125 12.25389622 -6.37626125 12.25389622 -7.49121094 11.13894653 C-7.58945031 9.47465602 -7.62094725 7.80612722 -7.61621094 6.13894653 C-7.61878906 5.23144653 -7.62136719 4.32394653 -7.62402344 3.38894653 C-7.34464676 -1.34402299 -3.97104915 0.01494491 0 0 Z " fill="#F0F0F0" transform="translate(297.4912109375,119.86105346679688)"/>
<path d="M0 0 C4.36004562 0.02868451 5.66530681 0.61246142 8.84375 3.69921875 C11.45337631 6.96642201 13.72898589 10.42929164 16 13.9375 C16.98748277 15.28013009 17.98129258 16.61840449 19 17.9375 C18.375 19.875 18.375 19.875 17 21.9375 C12.38868485 23.40473664 9.37419248 22.84363425 5 20.9375 C2.4453125 18.40625 2.4453125 18.40625 0.125 15.4375 C-0.65617187 14.4578125 -1.43734375 13.478125 -2.2421875 12.46875 C-4 9.9375 -4 9.9375 -4 7.9375 C-4.66 7.9375 -5.32 7.9375 -6 7.9375 C-6.625 5.5625 -6.625 5.5625 -7 2.9375 C-4.55400924 0.49150924 -3.40161905 0.3527247 0 0 Z " fill="#EDEDED" transform="translate(351,72.0625)"/>
<path d="M0 0 C2.98225974 0.16390436 5.65592307 0.4308687 8.5390625 1.22265625 C10.7890625 4.16015625 10.7890625 4.16015625 11.56640625 6.05078125 C13.2042718 9.70802319 15.82334721 12.7185754 18.24609375 15.890625 C19.5390625 18.22265625 19.5390625 18.22265625 19.23828125 20.5234375 C19.00753906 21.08417969 18.77679688 21.64492187 18.5390625 22.22265625 C14.57390891 23.70958885 10.54505628 23.39697044 6.5390625 22.22265625 C4.4765625 20.28515625 4.4765625 20.28515625 2.5390625 17.22265625 C1.94738281 16.43761719 1.35570312 15.65257813 0.74609375 14.84375 C-5.13427072 6.96805228 -5.13427072 6.96805228 -4.4609375 2.22265625 C-2.4609375 0.22265625 -2.4609375 0.22265625 0 0 Z " fill="#F3F3F3" transform="translate(161.4609375,71.77734375)"/>
<path d="M0 0 C0.495 0.99 0.495 0.99 1 2 C-0.98 2.99 -0.98 2.99 -3 4 C-0.525 4.495 -0.525 4.495 2 5 C1.34 6.32 0.68 7.64 0 9 C-1.10456543 9.03758423 -1.10456543 9.03758423 -2.23144531 9.07592773 C-5.57113378 9.19204273 -8.91055097 9.31469918 -12.25 9.4375 C-13.40886719 9.47681641 -14.56773437 9.51613281 -15.76171875 9.55664062 C-17.43427734 9.61948242 -17.43427734 9.61948242 -19.140625 9.68359375 C-20.68024902 9.73858032 -20.68024902 9.73858032 -22.25097656 9.79467773 C-24.93751037 9.91298588 -24.93751037 9.91298588 -27.22558594 10.57836914 C-29 11 -29 11 -31.25 10.0625 C-33.94135242 6.89054893 -33.11553082 4.08896564 -33 0 C-32.28344238 0.00523682 -31.56688477 0.01047363 -30.82861328 0.01586914 C-27.59408438 0.03660667 -24.35956944 0.04964984 -21.125 0.0625 C-19.99707031 0.07087891 -18.86914062 0.07925781 -17.70703125 0.08789062 C-16.09248047 0.09272461 -16.09248047 0.09272461 -14.4453125 0.09765625 C-12.95281982 0.10551147 -12.95281982 0.10551147 -11.43017578 0.11352539 C-1.704129 -0.3408258 -1.704129 -0.3408258 0 0 Z " fill="#EDEEEE" transform="translate(260,75)"/>
<path d="M0 0 C1.77206192 0.00015919 3.54412846 0.00585754 5.31616211 0.01586914 C6.24698105 0.01728409 7.17779999 0.01869904 8.13682556 0.02015686 C11.12241777 0.02577367 14.10793615 0.03832899 17.09350586 0.05102539 C19.11238499 0.05603823 21.13126529 0.06060151 23.15014648 0.06469727 C28.11046158 0.07574856 33.07072118 0.09302444 38.03100586 0.11352539 C40.3235784 4.11670974 40.03402038 6.59996004 39.03100586 11.11352539 C36.37030381 13.77422744 34.37620907 13.36269084 30.75708008 13.39141846 C29.46954834 13.38534576 29.46954834 13.38534576 28.15600586 13.37915039 C26.83560303 13.38202057 26.83560303 13.38202057 25.48852539 13.38494873 C23.62572952 13.38631091 21.76292417 13.38261221 19.90014648 13.37426758 C17.0425085 13.36356846 14.1854992 13.37416171 11.32788086 13.38696289 C9.5205878 13.3856413 7.71329513 13.38307892 5.90600586 13.37915039 C5.04765137 13.38319885 4.18929688 13.38724731 3.30493164 13.39141846 C-2.73907669 13.34344284 -2.73907669 13.34344284 -4.96899414 11.11352539 C-5.19946289 8.76586914 -5.19946289 8.76586914 -5.15649414 6.05102539 C-5.15004883 5.15254883 -5.14360352 4.25407227 -5.13696289 3.32836914 C-4.84257338 -0.55346458 -4.1359582 0.11830107 0 0 Z M-3.96899414 2.11352539 C-3.80399414 2.69102539 -3.63899414 3.26852539 -3.46899414 3.86352539 C-2.96899414 6.11352539 -2.96899414 6.11352539 -2.96899414 10.11352539 C0.64793118 11.31916717 3.92993178 11.21925822 7.69116211 11.17602539 C8.43683945 11.17223877 9.18251678 11.16845215 9.95079041 11.16455078 C12.33175428 11.15233759 14.71259696 11.13370462 17.09350586 11.11352539 C20.23022128 11.08699926 23.3668771 11.06697475 26.50366211 11.05102539 C27.22763687 11.04272705 27.95161163 11.03442871 28.69752502 11.02587891 C33.80541267 11.0007288 33.80541267 11.0007288 36.03100586 12.11352539 C38.18294956 8.88560984 38.23187029 7.8295173 38.03100586 4.11352539 C37.37100586 4.11352539 36.71100586 4.11352539 36.03100586 4.11352539 C36.03100586 3.45352539 36.03100586 2.79352539 36.03100586 2.11352539 C30.81675992 1.94588797 25.60236238 1.7853307 20.38769531 1.63134766 C18.61354701 1.57795931 16.83945595 1.52263241 15.06542969 1.46533203 C12.5163202 1.38333271 9.96708658 1.30829395 7.41772461 1.23461914 C6.62387863 1.20758408 5.83003265 1.18054901 5.01213074 1.1526947 C1.7246387 1.06348107 -0.82249195 1.06469133 -3.96899414 2.11352539 Z " fill="#FCFCFC" transform="translate(294.968994140625,72.886474609375)"/>
<path d="M0 0 C1.22052063 -0.0049926 1.22052063 -0.0049926 2.46569824 -0.01008606 C4.1872501 -0.015152 5.90881179 -0.01749449 7.63037109 -0.01733398 C10.27067123 -0.01952248 12.91055497 -0.03768692 15.55078125 -0.05664062 C17.22135273 -0.05957416 18.89192621 -0.06155922 20.5625 -0.0625 C21.35523315 -0.06968552 22.14796631 -0.07687103 22.96472168 -0.08427429 C28.55242318 -0.06085807 28.55242318 -0.06085807 30.78125 2.16796875 C32.22161468 8.15102203 32.22161468 8.15102203 30.82861328 11.36791992 C27.65258945 14.16029098 24.23121298 13.68037175 20.2109375 13.59375 C19.37410431 13.59046188 18.53727112 13.58717377 17.67507935 13.58378601 C15.90814426 13.57336827 14.14124336 13.55342344 12.37451172 13.5246582 C9.65964123 13.48052388 6.94565378 13.46321642 4.23046875 13.45117188 C2.51561214 13.43775063 0.80076649 13.42282844 -0.9140625 13.40625 C-1.73069366 13.39886307 -2.54732483 13.39147614 -3.38870239 13.38386536 C-9.10046849 13.28625026 -9.10046849 13.28625026 -10.21875 12.16796875 C-10.29101502 10.31509373 -10.3025622 8.45962997 -10.28125 6.60546875 C-10.27222656 5.59355469 -10.26320313 4.58164063 -10.25390625 3.5390625 C-10.24230469 2.75660156 -10.23070312 1.97414063 -10.21875 1.16796875 C-7.01175212 -0.43553019 -3.52273791 0.00494515 0 0 Z M-8.21875 2.16796875 C-9.7985009 8.48280859 -9.7985009 8.48280859 -8.21875 11.16796875 C3.99125 11.16796875 16.20125 11.16796875 28.78125 11.16796875 C28.78125 8.19796875 28.78125 5.22796875 28.78125 2.16796875 C16.57125 2.16796875 4.36125 2.16796875 -8.21875 2.16796875 Z " fill="#FBFBFB" transform="translate(300.21875,95.83203125)"/>
<path d="M0 0 C0.66 0.33 1.32 0.66 2 1 C0.7508258 4.45925163 -0.67527795 7.14693203 -3 10 C-4.32 9.67 -5.64 9.34 -7 9 C-7.33 9.66 -7.66 10.32 -8 11 C-9.32 11 -10.64 11 -12 11 C-11.01 11.99 -10.02 12.98 -9 14 C-9.99 14 -10.98 14 -12 14 C-12.33 15.65 -12.66 17.3 -13 19 C-12.34 19.33 -11.68 19.66 -11 20 C-14.33333333 20.66666667 -17.66666667 21.33333333 -21 22 C-21.6875 20.1875 -21.6875 20.1875 -22 18 C-20.625 16.5 -20.625 16.5 -19 15 C-18.28552357 12.89667109 -18.28552357 12.89667109 -18 11 C-17.01 11 -16.02 11 -15 11 C-14.9175 10.443125 -14.835 9.88625 -14.75 9.3125 C-12.33602625 1.86941428 -7.35435227 -0.40114649 0 0 Z " fill="#ECECEC" transform="translate(393,75)"/>
<path d="M0 0 C1.95803507 -0.05389087 3.91648909 -0.09274217 5.875 -0.125 C7.51082031 -0.15980469 7.51082031 -0.15980469 9.1796875 -0.1953125 C12 0 12 0 14 2 C14.265625 4.09375 14.265625 4.09375 14.25 6.5 C14.25515625 7.2940625 14.2603125 8.088125 14.265625 8.90625 C14 11 14 11 12 13 C9.46875 13.265625 9.46875 13.265625 6.5 13.25 C5.5203125 13.25515625 4.540625 13.2603125 3.53125 13.265625 C1 13 1 13 -1 11 C-1.23046875 8.90625 -1.23046875 8.90625 -1.1875 6.5 C-1.18105469 5.7059375 -1.17460938 4.911875 -1.16796875 4.09375 C-1 2 -1 2 0 0 Z " fill="#ECEDEC" transform="translate(102,73)"/>
<path d="M0 0 C0.66 0.66 1.32 1.32 2 2 C1.01 2.495 1.01 2.495 0 3 C0 3.99 0 4.98 0 6 C-0.88133069 8.74381918 -1.80953333 11.4267114 -2.8125 14.125 C-3.07353516 14.86621094 -3.33457031 15.60742188 -3.60351562 16.37109375 C-4.31149986 18.28352524 -5.14818678 20.14715081 -6 22 C-6.99 22.33 -7.98 22.66 -9 23 C-9.33 23.99 -9.66 24.98 -10 26 C-12.875 28.25 -12.875 28.25 -16 30 C-16.99 29.67 -17.98 29.34 -19 29 C-19 28.01 -19 27.02 -19 26 C-18.01 25.67 -17.02 25.34 -16 25 C-14.03957015 22.75127164 -12.33595517 20.67191034 -11 18 C-10.01 18 -9.02 18 -8 18 C-7.84850702 14.37114676 -7.84850702 14.37114676 -9 11 C-8.67 10.34 -8.34 9.68 -8 9 C-8.66 8.67 -9.32 8.34 -10 8 C-9.34 8 -8.68 8 -8 8 C-8 7.34 -8 6.68 -8 6 C-6.625 4.5 -6.625 4.5 -5 3 C-4.34 2.34 -3.68 1.68 -3 1 C-2.01 0.67 -1.02 0.34 0 0 Z " fill="#F6F8F7" transform="translate(73,28)"/>
<path d="M0 0 C0.66 0.66 1.32 1.32 2 2 C0.7260411 4.03833424 -0.61061923 6.03852126 -2 8 C-2.66 8 -3.32 8 -4 8 C-4 8.66 -4 9.32 -4 10 C-4.66 10 -5.32 10 -6 10 C-6.2475 10.515625 -6.495 11.03125 -6.75 11.5625 C-9.08428023 16.11434644 -11.3474604 20.36937596 -14.6875 24.25 C-17.1498355 26.8352669 -17.1498355 26.8352669 -18 30 C-17.61067144 32.14255793 -17.61067144 32.14255793 -17 34 C-17.66 33.34 -18.32 32.68 -19 32 C-19.99 32.99 -20.98 33.98 -22 35 C-18.79604584 35 -16.90600261 34.25664978 -14 33 C-14 33.99 -14 34.98 -14 36 C-13.34 36 -12.68 36 -12 36 C-12.33 34.68 -12.66 33.36 -13 32 C-12.01 32.33 -11.02 32.66 -10 33 C-9.34 31.68 -8.68 30.36 -8 29 C-7.34 29.33 -6.68 29.66 -6 30 C-7.61251896 33.1684583 -9.25703362 35.70917094 -12 38 C-16.08214762 38.7063258 -19.89848135 38.47784683 -24 38 C-24.69140625 35.7578125 -24.69140625 35.7578125 -25 33 C-23.83984375 30.9921875 -23.83984375 30.9921875 -21.9375 28.875 C-17.59914205 23.79819815 -13.62723319 18.51696503 -9.6875 13.125 C-8.48311192 11.48174225 -7.27868675 9.83851168 -6.07421875 8.1953125 C-5.55432373 7.48391113 -5.03442871 6.77250977 -4.4987793 6.03955078 C-3.01209533 4.01645942 -1.50968781 2.00596562 0 0 Z " fill="#F8F8F8" transform="translate(368,94)"/>
<path d="M0 0 C0.33 0 0.66 0 1 0 C1.125 2.375 1.125 2.375 1 5 C-1 7 -1 7 -4.6953125 7.1953125 C-6.17200108 7.182009 -7.64862358 7.15814835 -9.125 7.125 C-9.87910156 7.11597656 -10.63320312 7.10695313 -11.41015625 7.09765625 C-13.27357254 7.0740687 -15.13682593 7.03819719 -17 7 C-16.99777939 7.56154282 -16.99555878 8.12308563 -16.99327087 8.7016449 C-16.97121694 14.52480435 -16.95609295 20.34795201 -16.94506836 26.17114258 C-16.94002692 28.34692873 -16.93319393 30.52271147 -16.92456055 32.69848633 C-16.91248662 35.81853067 -16.90676995 38.93853038 -16.90234375 42.05859375 C-16.89718246 43.03775253 -16.89202118 44.01691132 -16.88670349 45.02574158 C-16.88662796 45.92659988 -16.88655243 46.82745819 -16.88647461 47.75561523 C-16.884254 48.55281479 -16.88203339 49.35001434 -16.87974548 50.17137146 C-17 52 -17 52 -18 53 C-20.33297433 53.04092937 -22.66705225 53.04241723 -25 53 C-24.360625 52.690625 -23.72125 52.38125 -23.0625 52.0625 C-21.06389179 51.1654837 -21.06389179 51.1654837 -20 50 C-19.87790076 48.58882298 -19.82229128 47.17179541 -19.79467773 45.75561523 C-19.7647599 44.40432777 -19.7647599 44.40432777 -19.73423767 43.02574158 C-19.71752518 42.04658279 -19.70081268 41.06742401 -19.68359375 40.05859375 C-19.66281265 39.06118668 -19.64203156 38.0637796 -19.62062073 37.03614807 C-19.55501363 33.83667157 -19.49618866 30.63711018 -19.4375 27.4375 C-19.39432538 25.27407961 -19.35071145 23.11066794 -19.30664062 20.94726562 C-19.19932091 15.63159836 -19.09808531 10.31584536 -19 5 C-13.06 5 -7.12 5 -1 5 C-0.67 3.35 -0.34 1.7 0 0 Z " fill="#FBFBFB" transform="translate(149,79)"/>
<path d="M0 0 C2.53731364 1.26865682 2.78646846 2.49709121 4 5 C4.66 5.66 5.32 6.32 6 7 C6 8.32 6 9.64 6 11 C6.99 11 7.98 11 9 11 C9.66 12.32 10.32 13.64 11 15 C5.82352941 17 5.82352941 17 2.9375 17 C-0.41041241 15.27204521 -2.01108227 13.15886934 -4 10 C-3.3125 6.125 -3.3125 6.125 -2 3 C-1.34 3 -0.68 3 0 3 C0 2.01 0 1.02 0 0 Z " fill="#ECECEC" transform="translate(169,77)"/>
<path d="M0 0 C0.73565186 0.00217529 1.47130371 0.00435059 2.22924805 0.0065918 C4.45282014 0.00972937 6.67503221 -0.01361969 8.8984375 -0.0390625 C10.32486813 -0.04133796 11.7513023 -0.04203785 13.17773438 -0.04101562 C14.46897217 -0.04399658 15.76020996 -0.04697754 17.09057617 -0.05004883 C21.30831082 0.37431255 24.01020155 1.47535306 27.79101562 3.32226562 C25.10545622 6.00782503 22.41480235 6.38276536 18.79101562 7.32226562 C18.46101563 6.66226563 18.13101562 6.00226563 17.79101562 5.32226562 C19.11101562 4.66226563 20.43101562 4.00226563 21.79101562 3.32226562 C16.74091968 2.3844048 16.74091968 2.3844048 11.79101562 3.32226562 C5.06079035 3.69739294 -1.53912578 3.19700118 -8.20898438 2.32226562 C-8.53898438 2.98226562 -8.86898437 3.64226562 -9.20898438 4.32226562 C-9.20898438 3.66226563 -9.20898438 3.00226563 -9.20898438 2.32226562 C-9.86898437 2.32226562 -10.52898437 2.32226562 -11.20898438 2.32226562 C-11.06460938 3.58039063 -10.92023438 4.83851562 -10.77148438 6.13476562 C-10.69027344 6.84246094 -10.6090625 7.55015625 -10.52539062 8.27929688 C-10.23727702 10.51622955 -10.23727702 10.51622955 -9.20898438 13.32226562 C-10.52898437 12.66226563 -11.84898437 12.00226563 -13.20898438 11.32226562 C-13.26298174 9.86433678 -13.30177614 8.40583851 -13.33398438 6.94726562 C-13.36878906 5.72910156 -13.36878906 5.72910156 -13.40429688 4.48632812 C-12.8217031 -1.9688109 -4.83731464 0.01897841 0 0 Z " fill="#F9FAFA" transform="translate(238.208984375,72.677734375)"/>
<path d="M0 0 C4.20527769 1.5072013 5.58326589 4.08784509 7.75 7.875 C8.36359375 8.92429687 8.9771875 9.97359375 9.609375 11.0546875 C11 14 11 14 11 18 C8.47524538 19.26237731 6.68799534 19.09856404 3.875 19.0625 C2.96492188 19.05347656 2.05484375 19.04445312 1.1171875 19.03515625 C0.06917969 19.01775391 0.06917969 19.01775391 -1 19 C-1.33 18.34 -1.66 17.68 -2 17 C-0.68 17.33 0.64 17.66 2 18 C2.74957157 14.52852158 2.74957157 14.52852158 3 11 C2.34 11 1.68 11 1 11 C0.67 10.01 0.34 9.02 0 8 C0.66 7.34 1.32 6.68 2 6 C2 5.34 2 4.68 2 4 C1.34 3.34 0.68 2.68 0 2 C0 1.34 0 0.68 0 0 Z " fill="#F1F1F1" transform="translate(264,113)"/>
<path d="M0 0 C1.95803507 -0.05389087 3.91648909 -0.09274217 5.875 -0.125 C7.51082031 -0.15980469 7.51082031 -0.15980469 9.1796875 -0.1953125 C12 0 12 0 14 2 C14.265625 4.09375 14.265625 4.09375 14.25 6.5 C14.25515625 7.2940625 14.2603125 8.088125 14.265625 8.90625 C14 11 14 11 12 13 C9.46875 13.265625 9.46875 13.265625 6.5 13.25 C5.5203125 13.25515625 4.540625 13.2603125 3.53125 13.265625 C1 13 1 13 -1 11 C-1.23046875 8.90625 -1.23046875 8.90625 -1.1875 6.5 C-1.18105469 5.7059375 -1.17460938 4.911875 -1.16796875 4.09375 C-1 2 -1 2 0 0 Z M1 2 C0.979375 3.299375 0.95875 4.59875 0.9375 5.9375 C0.92589844 6.66839844 0.91429688 7.39929688 0.90234375 8.15234375 C0.79438816 10.01732141 0.79438816 10.01732141 2 11 C7.17735677 11.37052339 7.17735677 11.37052339 12 10 C12 7.36 12 4.72 12 2 C8.37 2 4.74 2 1 2 Z " fill="#FCFCFC" transform="translate(102,73)"/>
<path d="M0 0 C2.79736328 -0.34057617 2.79736328 -0.34057617 6.3203125 -0.29296875 C7.57714844 -0.28330078 8.83398438 -0.27363281 10.12890625 -0.26367188 C12.10697266 -0.2259668 12.10697266 -0.2259668 14.125 -0.1875 C15.46482903 -0.17245483 16.80467404 -0.15876613 18.14453125 -0.14648438 C21.43008842 -0.11102872 24.71484582 -0.06160849 28 0 C28.33 1.65 28.66 3.3 29 5 C28.01 4.67 27.02 4.34 26 4 C26 3.34 26 2.68 26 2 C22.54168414 1.97105453 19.08339928 1.95322 15.625 1.9375 C14.64015625 1.92912109 13.6553125 1.92074219 12.640625 1.91210938 C11.69960937 1.90888672 10.75859375 1.90566406 9.7890625 1.90234375 C8.91975098 1.89710693 8.05043945 1.89187012 7.15478516 1.88647461 C4.94950006 1.85877649 4.94950006 1.85877649 3 3 C2.01 2.67 1.02 2.34 0 2 C0.02320312 2.69867188 0.04640625 3.39734375 0.0703125 4.1171875 C0.08835937 5.02726562 0.10640625 5.93734375 0.125 6.875 C0.14820312 7.77992187 0.17140625 8.68484375 0.1953125 9.6171875 C0 12 0 12 -2 14 C-2.05410687 12.22950311 -2.09284119 10.45853151 -2.125 8.6875 C-2.14820312 7.70136719 -2.17140625 6.71523437 -2.1953125 5.69921875 C-2 3 -2 3 0 0 Z " fill="#FAFAFA" transform="translate(121,73)"/>
<path d="M0 0 C4.61598837 0.42848837 4.61598837 0.42848837 7.0625 2.875 C6.76937705 6.771811 4.41485061 9.54097608 2.1875 12.625 C1.48882812 13.60984375 0.79015625 14.5946875 0.0703125 15.609375 C-0.59226562 16.35703125 -1.25484375 17.1046875 -1.9375 17.875 C-2.9275 17.875 -3.9175 17.875 -4.9375 17.875 C-3.5625 15.375 -3.5625 15.375 -1.9375 12.875 C-1.2775 12.875 -0.6175 12.875 0.0625 12.875 C0.330625 12.318125 0.59875 11.76125 0.875 11.1875 C2.16372647 8.67787477 3.59176478 6.28165764 5.0625 3.875 C-1.29761891 3.2289393 -1.29761891 3.2289393 -6.8125 6.0625 C-8.72532652 8.59418216 -10.42426142 11.08745524 -11.9375 13.875 C-12.9275 13.545 -13.9175 13.215 -14.9375 12.875 C-7.18944591 0.01896951 -7.18944591 0.01896951 0 0 Z " fill="#FCFCFC" transform="translate(389.9375,72.125)"/>
<path d="M0 0 C1.09658936 3.28976808 0.79953138 4.71303767 0 8 C-0.66 8 -1.32 8 -2 8 C-2.33 8.99 -2.66 9.98 -3 11 C-5.875 13.25 -5.875 13.25 -9 15 C-9.99 14.67 -10.98 14.34 -12 14 C-12 13.01 -12 12.02 -12 11 C-11.01 10.67 -10.02 10.34 -9 10 C-7.03957015 7.75127164 -5.33595517 5.67191034 -4 3 C-3.01 3 -2.02 3 -1 3 C-0.67 2.01 -0.34 1.02 0 0 Z " fill="#E8E9E8" transform="translate(66,43)"/>
<path d="M0 0 C0.66 0.33 1.32 0.66 2 1 C1.67 2.65 1.34 4.3 1 6 C0.34 6 -0.32 6 -1 6 C-1.7412036 8.30596675 -2.10276212 9.63462359 -1.4375 12 C-0.86333986 14.62473206 -1.63831556 15.75722562 -3 18 C-3.66 17.67 -4.32 17.34 -5 17 C-5.5625 14.75 -5.5625 14.75 -6 12 C-6.28875 11.175 -6.5775 10.35 -6.875 9.5 C-7 7 -7 7 -4.6875 4.3125 C-3.800625 3.549375 -2.91375 2.78625 -2 2 C-1.34 1.34 -0.68 0.68 0 0 Z " fill="#ECEDED" transform="translate(28,81)"/>
<path d="M0 0 C2.0625 1.6875 2.0625 1.6875 4 4 C3.67 5.65 3.34 7.3 3 9 C-0.96 9 -4.92 9 -9 9 C-8.67 8.34 -8.34 7.68 -8 7 C-6.02 7 -4.04 7 -2 7 C-2.3403125 6.1028125 -2.3403125 6.1028125 -2.6875 5.1875 C-2.790625 4.465625 -2.89375 3.74375 -3 3 C-1.5625 1.25 -1.5625 1.25 0 0 Z " fill="#F2F2F2" transform="translate(394,123)"/>
<path d="M0 0 C1.00023193 0.00523682 2.00046387 0.01047363 3.03100586 0.01586914 C4.1105957 0.0190918 5.19018555 0.02231445 6.30249023 0.02563477 C8.00695312 0.03820312 8.00695312 0.03820312 9.74584961 0.05102539 C11.45611328 0.05779297 11.45611328 0.05779297 13.20092773 0.06469727 C16.02845312 0.07652792 18.85587601 0.09301129 21.68334961 0.11352539 C21.68334961 0.44352539 21.68334961 0.77352539 21.68334961 1.11352539 C10.79334961 1.60852539 10.79334961 1.60852539 -0.31665039 2.11352539 C-0.64665039 6.40352539 -0.97665039 10.69352539 -1.31665039 15.11352539 C-1.97665039 14.78352539 -2.63665039 14.45352539 -3.31665039 14.11352539 C-3.34350977 11.96775903 -3.36298127 9.82189894 -3.37915039 7.67602539 C-3.39075195 6.48106445 -3.40235352 5.28610352 -3.41430664 4.05493164 C-3.28502537 0.16097974 -3.28502537 0.16097974 0 0 Z " fill="#F9F9F9" transform="translate(228.316650390625,99.886474609375)"/>
<path d="M0 0 C4.25209792 4.12324647 8.13635705 8.51282966 12 13 C11.1875 15.4375 11.1875 15.4375 10 18 C9.01 18.33 8.02 18.66 7 19 C6.34 18.67 5.68 18.34 5 18 C5 17.34 5 16.68 5 16 C5.99 16 6.98 16 8 16 C7.8042208 13.59855733 7.8042208 13.59855733 7 11 C5.67732273 9.98594743 4.34275169 8.98731742 3 8 C0 2.75 0 2.75 0 0 Z " fill="#FBFBFB" transform="translate(358,76)"/>
<path d="M0 0 C0.33 0.66 0.66 1.32 1 2 C1.66 2 2.32 2 3 2 C4.7265625 4.1171875 4.7265625 4.1171875 6.625 6.875 C7.25664062 7.77992187 7.88828125 8.68484375 8.5390625 9.6171875 C10 12 10 12 10 14 C10.66 14 11.32 14 12 14 C12 14.66 12 15.32 12 16 C10.51793505 15.745504 9.03931385 15.47088238 7.5625 15.1875 C6.73878906 15.03667969 5.91507812 14.88585937 5.06640625 14.73046875 C4.38449219 14.48941406 3.70257813 14.24835938 3 14 C2.67 13.01 2.34 12.02 2 11 C2.66 10.01 3.32 9.02 4 8 C3.01 6.8553125 3.01 6.8553125 2 5.6875 C0 3 0 3 0 0 Z " fill="#F5F5F5" transform="translate(382,107)"/>
<path d="M0 0 C0.33 0.99 0.66 1.98 1 3 C0.67 3.66 0.34 4.32 0 5 C-0.66 5 -1.32 5 -2 5 C-2.2475 5.9075 -2.495 6.815 -2.75 7.75 C-4.06050513 11.15731334 -5.4287784 12.51172103 -8 15 C-8.36162029 16.32594105 -8.69728039 17.65938457 -9 19 C-10.4375 20.5625 -10.4375 20.5625 -12 22 C-12.66 22.99 -13.32 23.98 -14 25 C-14.28177888 21.04044656 -13.78879761 19.08807409 -11.4453125 15.8984375 C-10.91292969 15.16109375 -10.38054687 14.42375 -9.83203125 13.6640625 C-9.26871094 12.90867187 -8.70539063 12.15328125 -8.125 11.375 C-7.56941406 10.611875 -7.01382813 9.84875 -6.44140625 9.0625 C-5.40930145 7.64491027 -4.37222882 6.23091452 -3.32861328 4.82177734 C-2.17780559 3.24380473 -1.08335035 1.62502552 0 0 Z " fill="#FCFCFC" transform="translate(193,84)"/>
<path d="M0 0 C0.33 0 0.66 0 1 0 C1.3125 2.8125 1.3125 2.8125 1 6 C-0.64333504 7.03789581 -2.31243867 8.03567924 -4 9 C-5.35980881 12.07561246 -5.35980881 12.07561246 -6 15 C-6.99 14.67 -7.98 14.34 -9 14 C-8.67 11.36 -8.34 8.72 -8 6 C-7.13375 5.9071875 -7.13375 5.9071875 -6.25 5.8125 C-3.12266432 4.68318434 -1.9477378 2.61937152 0 0 Z " fill="#EEEEEE" transform="translate(61,100)"/>
<path d="M0 0 C1.21816406 0.03480469 1.21816406 0.03480469 2.4609375 0.0703125 C3.68683594 0.09738281 3.68683594 0.09738281 4.9375 0.125 C5.87722656 0.15980469 5.87722656 0.15980469 6.8359375 0.1953125 C4.2704781 2.7607719 2.35907082 2.73577337 -1.1640625 3.1953125 C0.33429855 6.30729315 2.03527508 9.248774 3.8359375 12.1953125 C2.8459375 12.6903125 2.8459375 12.6903125 1.8359375 13.1953125 C-1.1640625 9.4453125 -1.1640625 9.4453125 -1.1640625 7.1953125 C-1.8240625 7.1953125 -2.4840625 7.1953125 -3.1640625 7.1953125 C-3.7890625 4.8203125 -3.7890625 4.8203125 -4.1640625 2.1953125 C-2.1640625 0.1953125 -2.1640625 0.1953125 0 0 Z " fill="#FCFCFC" transform="translate(348.1640625,72.8046875)"/>
<path d="M0 0 C3 1 3 1 3.94921875 2.84765625 C4.31466797 3.94400391 4.31466797 3.94400391 4.6875 5.0625 C5.06455078 6.16271484 5.06455078 6.16271484 5.44921875 7.28515625 C5.63097656 7.85105469 5.81273437 8.41695312 6 9 C4.68 9.33 3.36 9.66 2 10 C1.34 9.01 0.68 8.02 0 7 C-2.56282742 6.27034634 -2.56282742 6.27034634 -5 6 C-3.4198632 3.84526801 -1.89353366 1.89353366 0 0 Z " fill="#F2F2F2" transform="translate(355,73)"/>
<path d="M0 0 C1.97909398 -0.02686553 3.95828971 -0.04633375 5.9375 -0.0625 C7.03964844 -0.07410156 8.14179688 -0.08570312 9.27734375 -0.09765625 C12 0 12 0 13 1 C13.3125 3.3125 13.3125 3.3125 13 6 C11 8.3125 11 8.3125 9 10 C9.33 7.69 9.66 5.38 10 3 C6.67465243 1.89155081 4.37817425 2.15545644 1 3 C0.67 2.01 0.34 1.02 0 0 Z " fill="#FCFCFC" transform="translate(200,73)"/>
<path d="M0 0 C2.375 0.625 2.375 0.625 5 2 C6.69835501 5.62830387 7.28163292 7.15510125 6 11 C5.401875 10.01 4.80375 9.02 4.1875 8 C3.465625 7.01 2.74375 6.02 2 5 C1.01 5 0.02 5 -1 5 C-0.67 3.35 -0.34 1.7 0 0 Z M7 5 C9 6 9 6 9 6 Z " fill="#F5F5F5" transform="translate(369,108)"/>
<path d="M0 0 C0.33 0.66 0.66 1.32 1 2 C1.66 2.33 2.32 2.66 3 3 C1.03617993 4.50559539 -0.78263366 5.89131683 -3 7 C-2.67 7.66 -2.34 8.32 -2 9 C-3.65 9.33 -5.3 9.66 -7 10 C-7.33 9.01 -7.66 8.02 -8 7 C-7.34 7 -6.68 7 -6 7 C-6 6.01 -6 5.02 -6 4 C-3 2 -3 2 0 2 C0 1.34 0 0.68 0 0 Z " fill="#ECECEC" transform="translate(136,26)"/>
<path d="M0 0 C2.5625 2.25 2.5625 2.25 5 5 C4.6875 7.1875 4.6875 7.1875 4 9 C4.66 9.66 5.32 10.32 6 11 C5.01 11 4.02 11 3 11 C1.39453125 9.03125 1.39453125 9.03125 -0.1875 6.5 C-0.71730469 5.6646875 -1.24710937 4.829375 -1.79296875 3.96875 C-2.19128906 3.3190625 -2.58960938 2.669375 -3 2 C-2.01 1.34 -1.02 0.68 0 0 Z " fill="#F4F4F4" transform="translate(379,117)"/>
<path d="M0 0 C2.31 0.66 4.62 1.32 7 2 C5.75 3.5625 5.75 3.5625 4 5 C2.65559302 4.71459018 1.32274955 4.37312535 0 4 C-1.439735 3.85966422 -2.88337149 3.75583143 -4.328125 3.68359375 C-5.52695313 3.62075195 -5.52695313 3.62075195 -6.75 3.55664062 C-7.9875 3.49766602 -7.9875 3.49766602 -9.25 3.4375 C-10.09046875 3.39431641 -10.9309375 3.35113281 -11.796875 3.30664062 C-13.86440671 3.20091457 -15.93218281 3.09998705 -18 3 C-18 2.67 -18 2.34 -18 2 C-12.06 2 -6.12 2 0 2 C0 1.34 0 0.68 0 0 Z " fill="#FAFAFA" transform="translate(253,82)"/>
<path d="M0 0 C1.65 0 3.3 0 5 0 C5.66 1.65 6.32 3.3 7 5 C2.25 8 2.25 8 0 8 C0.185625 7.05125 0.37125 6.1025 0.5625 5.125 C1.28686632 2.10131207 1.28686632 2.10131207 0 0 Z " fill="#F3F3F3" transform="translate(121,37)"/>
<path d="M0 0 C0.99 0 1.98 0 3 0 C3.33 0.99 3.66 1.98 4 3 C2.3125 5.0625 2.3125 5.0625 0 7 C-2.625 6.9375 -2.625 6.9375 -5 6 C-5.66 5.01 -6.32 4.02 -7 3 C-5.68 3.33 -4.36 3.66 -3 4 C-2.67 3.34 -2.34 2.68 -2 2 C-1.34 1.34 -0.68 0.68 0 0 Z " fill="#EAEAEA" transform="translate(268,98)"/>
<path d="M0 0 C0.66 0 1.32 0 2 0 C0.79383553 2.61335636 -0.45462279 4.58090689 -2.25 6.875 C-4.41103815 9.9200321 -4.41103815 9.9200321 -3.25 13.375 C-2.8375 14.24125 -2.425 15.1075 -2 16 C-3.32 15.67 -4.64 15.34 -6 15 C-6.70703125 12.83203125 -6.70703125 12.83203125 -7 10 C-5.63671875 7.32421875 -5.63671875 7.32421875 -3.6875 4.6875 C-3.05199219 3.80449219 -2.41648437 2.92148438 -1.76171875 2.01171875 C-1.18035156 1.34785156 -0.59898437 0.68398437 0 0 Z " fill="#FAFAFA" transform="translate(384,91)"/>
<path d="M0 0 C1.32 0 2.64 0 4 0 C4 1.65 4 3.3 4 5 C1.36095629 6.41377341 -1.07120629 7.37240135 -4 8 C-4.33 7.34 -4.66 6.68 -5 6 C-3 4 -3 4 0 2 C0 1.34 0 0.68 0 0 Z " fill="#EAEAEA" transform="translate(349,123)"/>
<path d="M0 0 C2 2 2 2 2.125 4.625 C2.08375 5.40875 2.0425 6.1925 2 7 C-0.375 8.0625 -0.375 8.0625 -3 9 C-3.66 8.67 -4.32 8.34 -5 8 C-3.62845496 5.04590299 -2.01136276 2.55991624 0 0 Z " fill="#E8E8E8" transform="translate(358,111)"/>
<path d="M0 0 C2.1640625 0.0234375 2.1640625 0.0234375 4.625 0.375 C5.85089844 0.54128906 5.85089844 0.54128906 7.1015625 0.7109375 C7.72804687 0.80632812 8.35453125 0.90171875 9 1 C9 1.33 9 1.66 9 2 C6.36 2 3.72 2 1 2 C1.33 4.64 1.66 7.28 2 10 C0 8.8125 0 8.8125 -2 7 C-2.375 4.4375 -2.375 4.4375 -2 2 C-1.34 1.34 -0.68 0.68 0 0 Z " fill="#FBFBFB" transform="translate(159,72)"/>
<path d="M0 0 C0 2.64 0 5.28 0 8 C-0.66 8 -1.32 8 -2 8 C-3.09658936 4.71023192 -2.79953138 3.28696233 -2 0 C-5.3 0 -8.6 0 -12 0 C-12 -0.33 -12 -0.66 -12 -1 C-3.42857143 -2.42857143 -3.42857143 -2.42857143 0 0 Z " fill="#F4F5F5" transform="translate(116,75)"/>
<path d="M0 0 C1.32 0.99 2.64 1.98 4 3 C2.84826645 5.46800047 1.95216435 7.04783565 0 9 C-0.33 8.01 -0.66 7.02 -1 6 C-1.66 5.34 -2.32 4.68 -3 4 C-2.67 3.01 -2.34 2.02 -2 1 C-1.34 1.33 -0.68 1.66 0 2 C0 1.34 0 0.68 0 0 Z " fill="#F4F4F4" transform="translate(362,114)"/>
<path d="M0 0 C0.99 0 1.98 0 3 0 C3.33 0.99 3.66 1.98 4 3 C2.68 3.33 1.36 3.66 0 4 C0 4.99 0 5.98 0 7 C-2.97 6.505 -2.97 6.505 -6 6 C-5.34 4.35 -4.68 2.7 -4 1 C-3.01 1.33 -2.02 1.66 -1 2 C-0.67 1.34 -0.34 0.68 0 0 Z " fill="#EAEAEA" transform="translate(203,80)"/>
<path d="M0 0 C0.99 0.99 1.98 1.98 3 3 C2.34 3 1.68 3 1 3 C1 3.99 1 4.98 1 6 C-0.98 6.99 -0.98 6.99 -3 8 C-3 7.34 -3 6.68 -3 6 C-3.66 5.67 -4.32 5.34 -5 5 C-4.01 4.67 -3.02 4.34 -2 4 C-2 3.01 -2 2.02 -2 1 C-1.34 0.67 -0.68 0.34 0 0 Z " fill="#EDEDED" transform="translate(100,167)"/>
<path d="M0 0 C2.34545328 2.34545328 2.95508888 3.95985838 3.09765625 7.26171875 C3.08605469 8.06222656 3.07445312 8.86273438 3.0625 9.6875 C3.05347656 10.49574219 3.04445313 11.30398437 3.03515625 12.13671875 C3.02355469 12.75160156 3.01195312 13.36648437 3 14 C2.34 13.67 1.68 13.34 1 13 C0.60689586 10.67711188 0.49250305 8.38154824 0.34375 6.03125 C0.2303125 5.3609375 0.116875 4.690625 0 4 C-0.66 3.67 -1.32 3.34 -2 3 C-1 1 -1 1 0 0 Z " fill="#FCFCFC" transform="translate(271,83)"/>
<path d="M0 0 C0.66 0 1.32 0 2 0 C2 0.66 2 1.32 2 2 C2.66 2 3.32 2 4 2 C5.39300182 3.95890881 6.72245446 5.9639118 8 8 C8.99 9.485 8.99 9.485 10 11 C7.32543283 10.62207203 6.19388186 10.20233084 4.296875 8.22265625 C3.78640625 7.50980469 3.2759375 6.79695313 2.75 6.0625 C2.22921875 5.35222656 1.7084375 4.64195313 1.171875 3.91015625 C0 2 0 2 0 0 Z " fill="#F9F9F9" transform="translate(161,83)"/>
<path d="M0 0 C0.66 0 1.32 0 2 0 C2 0.66 2 1.32 2 2 C2.99 2.33 3.98 2.66 5 3 C5.33 4.65 5.66 6.3 6 8 C5.67 7.34 5.34 6.68 5 6 C4.01 5.67 3.02 5.34 2 5 C1.67 5.66 1.34 6.32 1 7 C0.34 6.67 -0.32 6.34 -1 6 C-1.042721 4.33388095 -1.04063832 2.66617115 -1 1 C-0.67 0.67 -0.34 0.34 0 0 Z " fill="#F1F1F1" transform="translate(88,176)"/>
<path d="M0 0 C0.66 0.33 1.32 0.66 2 1 C1.21654285 2.17219543 0.42297164 3.33763668 -0.375 4.5 C-0.81585938 5.1496875 -1.25671875 5.799375 -1.7109375 6.46875 C-2.13632813 6.9740625 -2.56171875 7.479375 -3 8 C-3.66 8 -4.32 8 -5 8 C-5 7.34 -5 6.68 -5 6 C-5.66 5.67 -6.32 5.34 -7 5 C-6.401875 4.731875 -5.80375 4.46375 -5.1875 4.1875 C-3.02775192 3.01506533 -1.64209744 1.80630718 0 0 Z " fill="#F8F8F8" transform="translate(194,102)"/>
<path d="M0 0 C0.66 0.66 1.32 1.32 2 2 C1.01 2.495 1.01 2.495 0 3 C0 3.99 0 4.98 0 6 C-1.875 6.625 -1.875 6.625 -4 7 C-4.66 6.34 -5.32 5.68 -6 5 C-3.375 1.125 -3.375 1.125 0 0 Z " fill="#EDF0EF" transform="translate(73,28)"/>
<path d="M0 0 C2.70931419 0.15481795 4.46584039 0.48172081 6.4453125 2.40234375 C7.67679642 3.89771708 8.8429837 5.4462924 10 7 C6.12697862 5.85569823 2.99736561 4.76679902 0 2 C0 1.34 0 0.68 0 0 Z " fill="#F2F2F2" transform="translate(101,165)"/>
<path d="M0 0 C0.99 0 1.98 0 3 0 C3.66 1.65 4.32 3.3 5 5 C5.66 5 6.32 5 7 5 C7 5.66 7 6.32 7 7 C8.32 7 9.64 7 11 7 C11 7.66 11 8.32 11 9 C5.33644285 7.68289369 3.29411959 5.5536359 0 1 C0 0.67 0 0.34 0 0 Z " fill="#F9F9F9" transform="translate(351,86)"/>
<path d="M0 0 C0.33 0.99 0.66 1.98 1 3 C-0.4375 5.6875 -0.4375 5.6875 -2 8 C-3.32 7.67 -4.64 7.34 -6 7 C-4.02 4.69 -2.04 2.38 0 0 Z " fill="#ECECEC" transform="translate(72,195)"/>
<path d="M0 0 C1.875 0.25 1.875 0.25 4 1 C5.375 2.8125 5.375 2.8125 6 5 C5.125 7.25 5.125 7.25 4 9 C3.34 8.67 2.68 8.34 2 8 C1.60828247 6.34608154 1.27942455 4.67654729 1 3 C0.67 2.01 0.34 1.02 0 0 Z " fill="#F2F3F3" transform="translate(21,90)"/>
<path d="M0 0 C0.99 0 1.98 0 3 0 C3 0.99 3 1.98 3 3 C2.34 3 1.68 3 1 3 C1 4.65 1 6.3 1 8 C0.01 7.67 -0.98 7.34 -2 7 C-1.125 1.125 -1.125 1.125 0 0 Z " fill="#EDEFEF" transform="translate(45,114)"/>
<path d="M0 0 C0.33 1.32 0.66 2.64 1 4 C-1.95664519 5.4783226 -4.74229737 5.06032783 -8 5 C-7 3 -7 3 -5.0625 2.3125 C-3 2 -3 2 -1 3 C-0.67 2.01 -0.34 1.02 0 0 Z " fill="#FCFCFC" transform="translate(274,127)"/>
<path d="M0 0 C0.66 0 1.32 0 2 0 C5.18076689 5.26049909 5.18076689 5.26049909 4.3125 8.8125 C3 11 3 11 1 12 C1.20625 11.13375 1.4125 10.2675 1.625 9.375 C2.04047622 5.63571398 1.39666276 3.45057859 0 0 Z " fill="#FBFBFB" transform="translate(259,86)"/>
<path d="M0 0 C2 3.75 2 3.75 2 6 C2.99 6 3.98 6 5 6 C5.33 6.99 5.66 7.98 6 9 C4.33388095 9.042721 2.66617115 9.04063832 1 9 C0 8 0 8 -0.09765625 6.15234375 C-0.06510417 4.1015625 -0.03255208 2.05078125 0 0 Z " fill="#F9F9F9" transform="translate(290,123)"/>
<path d="M0 0 C0.66 0.66 1.32 1.32 2 2 C1.625 4.625 1.625 4.625 1 7 C-1 7 -3 7 -5 7 C-3.35 4.69 -1.7 2.38 0 0 Z " fill="#FAFAFA" transform="translate(374,86)"/>
<path d="M0 0 C3.3 0.33 6.6 0.66 10 1 C9 3 9 3 7.25 3.6875 C4.60760177 4.05449975 2.57327078 3.64331769 0 3 C0 2.01 0 1.02 0 0 Z " fill="#EFEFEF" transform="translate(117,196)"/>
<path d="M0 0 C-0.33 0.99 -0.66 1.98 -1 3 C-3.97 3 -6.94 3 -10 3 C-4 0 -4 0 0 0 Z " fill="#F7F7F7" transform="translate(237,129)"/>
<path d="M0 0 C0.33 0.66 0.66 1.32 1 2 C1.66 2 2.32 2 3 2 C3 2.66 3 3.32 3 4 C2.34 4 1.68 4 1 4 C0.67 4.99 0.34 5.98 0 7 C-0.99 5.02 -1.98 3.04 -3 1 C-2.01 0.67 -1.02 0.34 0 0 Z " fill="#F7F7F7" transform="translate(260,121)"/>
<path d="M0 0 C0.99 0.66 1.98 1.32 3 2 C3 2.99 3 3.98 3 5 C2.34 5 1.68 5 1 5 C0.67 5.66 0.34 6.32 0 7 C-0.66 6.34 -1.32 5.68 -2 5 C-1.34 3.35 -0.68 1.7 0 0 Z " fill="#F1F1F1" transform="translate(84,129)"/>
<path d="M0 0 C1.5625 1.1875 1.5625 1.1875 3 3 C2.6875 5.6875 2.6875 5.6875 2 8 C1.34 8 0.68 8 0 8 C-0.38063221 5.6739143 -0.71269945 3.33944736 -1 1 C-0.67 0.67 -0.34 0.34 0 0 Z " fill="#F9F9F9" transform="translate(395,124)"/>
<path d="M0 0 C0.66 0.33 1.32 0.66 2 1 C0.02 3.31 -1.96 5.62 -4 8 C-4.33 6.68 -4.66 5.36 -5 4 C-4.01 3.67 -3.02 3.34 -2 3 C-1.34 2.01 -0.68 1.02 0 0 Z " fill="#FCFCFC" transform="translate(270,101)"/>
<path d="M0 0 C2.8992226 0.46761655 3.86675182 0.86675182 6 3 C5.34 3 4.68 3 4 3 C3.67 3.99 3.34 4.98 3 6 C1 4 1 4 -1 1 C-0.67 0.67 -0.34 0.34 0 0 Z " fill="#F0F0F0" transform="translate(169,81)"/>
<path d="M0 0 C0.33 0.66 0.66 1.32 1 2 C0.34 2 -0.32 2 -1 2 C-1.33 3.32 -1.66 4.64 -2 6 C-2.99 5.67 -3.98 5.34 -5 5 C-5 4.01 -5 3.02 -5 2 C-3.35 1.34 -1.7 0.68 0 0 Z " fill="#EFEFEF" transform="translate(59,52)"/>
<path d="M0 0 C2.1385485 2.1385485 2.42655063 3.13275314 3 6 C2.01 6 1.02 6 0 6 C-0.66 4.68 -1.32 3.36 -2 2 C-1.34 2 -0.68 2 0 2 C0 1.34 0 0.68 0 0 Z " fill="#EDEEED" transform="translate(37,176)"/>
<path d="M0 0 C1.875 0.625 1.875 0.625 4 2 C5.25 5.125 5.25 5.125 6 8 C1.3125 4.38671875 1.3125 4.38671875 0 3 C0 2.01 0 1.02 0 0 Z " fill="#FCFCFC" transform="translate(264,113)"/>
<path d="M0 0 C1.9375 0.8125 1.9375 0.8125 4 2 C4.33 2.99 4.66 3.98 5 5 C4.34 5.66 3.68 6.32 3 7 C2.01 4.69 1.02 2.38 0 0 Z " fill="#F1F1F1" transform="translate(379,112)"/>
<path d="M0 0 C1.32 0.33 2.64 0.66 4 1 C4 1.99 4 2.98 4 4 C2 5.6875 2 5.6875 0 7 C0 4.69 0 2.38 0 0 Z " fill="#F0F0F0" transform="translate(10,75)"/>
<path d="M0 0 C0.66 0 1.32 0 2 0 C2.6875 1.8125 2.6875 1.8125 3 4 C1.5625 5.75 1.5625 5.75 0 7 C-0.93423645 3.98968256 -1.04449911 3.13349732 0 0 Z " fill="#F4F5F5" transform="translate(47,59)"/>
<path d="M0 0 C2.51083114 1.25541557 2.87125446 2.50063488 4 5 C2.35 5.33 0.7 5.66 -1 6 C-1.33 5.01 -1.66 4.02 -2 3 C-1.34 3 -0.68 3 0 3 C0 2.01 0 1.02 0 0 Z " fill="#F2F2F2" transform="translate(130,30)"/>
<path d="M0 0 C2.97 0.495 2.97 0.495 6 1 C6 1.99 6 2.98 6 4 C4.02 3.34 2.04 2.68 0 2 C0 1.34 0 0.68 0 0 Z " fill="#F2F3F5" transform="translate(102,18)"/>
<path d="M0 0 C3 1 3 1 3 1 Z " fill="#E2F3F3" transform="translate(96,15)"/>
<path d="" fill="#FFFFFF" transform="translate(0,0)"/>
<path d="M0 0 C2 1 2 1 2 1 Z " fill="#FFFFFF" transform="translate(93,15)"/>
<path d="" fill="#FFFFFF" transform="translate(0,0)"/>
<path d="" fill="#FFFFFF" transform="translate(0,0)"/>
<path d="" fill="#FFFFFF" transform="translate(0,0)"/>
<path d="" fill="#FFFFFF" transform="translate(0,0)"/>
<path d="" fill="#FFFFFF" transform="translate(0,0)"/>
<path d="" fill="#FFFFFF" transform="translate(0,0)"/>
<path d="" fill="#FFFFFF" transform="translate(0,0)"/>
<path d="" fill="#FFFFFF" transform="translate(0,0)"/>
<path d="" fill="#FFFFFF" transform="translate(0,0)"/>
<path d="" fill="#EEEEEE" transform="translate(0,0)"/>
<path d="" fill="#FFFFFF" transform="translate(0,0)"/>
<path d="" fill="#FFFFFF" transform="translate(0,0)"/>
<path d="" fill="#FFFFFF" transform="translate(0,0)"/>
<path d="" fill="#FFFFFF" transform="translate(0,0)"/>
<path d="" fill="#FFFFFF" transform="translate(0,0)"/>
<path d="" fill="#FFFFFF" transform="translate(0,0)"/>
<path d="" fill="#FFFFFF" transform="translate(0,0)"/>
<path d="" fill="#FFFFFF" transform="translate(0,0)"/>
<path d="" fill="#FFFFFF" transform="translate(0,0)"/>
<path d="" fill="#FFFFFF" transform="translate(0,0)"/>
</svg>
