<?xml version="1.0" encoding="UTF-8"?>
<svg version="1.1" xmlns="http://www.w3.org/2000/svg" width="5100" height="800">
<path d="M0 0 C39.6 0 79.2 0 120 0 C126.93 18.15 133.86 36.3 141 55 C148.18763244 73.54909724 148.18763244 73.54909724 155.38671875 92.09375 C159.96142219 103.88177875 164.48638595 115.68847082 169 127.5 C175.12122005 143.51782041 181.29042912 159.51622463 187.5 175.5 C193.64475201 191.31796938 199.75315819 207.1491131 205.8125 223 C213.39548305 242.83598676 221.03193019 262.65099609 228.68457031 282.46020508 C233.16687923 294.06389792 237.64532795 305.66901536 242.10546875 317.28125 C242.51804932 318.35540665 242.93062988 319.42956329 243.35571289 320.53627014 C244.18220215 322.6881667 245.00867927 324.84006792 245.83514404 326.99197388 C256.47483173 354.69331002 267.22353581 382.35162476 278 410 C280.10629918 407.89370082 280.67115005 406.62718953 281.70141602 403.88134766 C282.0274733 403.02070709 282.35353058 402.16006653 282.68946838 401.27334595 C283.04073288 400.32978241 283.39199738 399.38621887 283.75390625 398.4140625 C284.12631943 397.42739594 284.4987326 396.44072937 284.88243103 395.42416382 C285.68973138 393.28381337 286.49460844 391.14254771 287.29736328 389.00048828 C289.44917495 383.25927869 291.6185163 377.52468866 293.78515625 371.7890625 C294.22586456 370.62086975 294.66657288 369.452677 295.12063599 368.24908447 C299.18799358 357.47629594 303.33413919 346.73499333 307.5 336 C313.56468227 320.35761713 319.55278049 304.68740209 325.5 289 C331.74311832 272.53312593 338.03775104 256.08769601 344.400177 239.66656494 C351.50128073 221.33539281 358.51723904 202.97208569 365.51904297 184.6027832 C370.9137955 170.45103167 376.33380108 156.30925796 381.77688599 142.17602539 C383.75847717 137.0304839 385.73855903 131.88436171 387.71875 126.73828125 C388.29965897 125.22871101 388.29965897 125.22871101 388.89230347 123.68864441 C396.33996974 104.33429806 403.78060664 84.97732177 411.19387817 65.60977173 C412.30337408 62.71134043 413.41321997 59.8130434 414.52319336 56.91479492 C414.88420639 55.97213272 415.24521942 55.02947052 415.61717224 54.0582428 C416.33751107 52.1773294 417.05785807 50.29641913 417.7782135 48.41551208 C419.59372559 43.67449547 421.4081356 38.93306118 423.22070312 34.19091797 C424.99874451 29.53922137 426.77927975 24.88848681 428.56161499 20.23843384 C429.22389895 18.50912897 429.88522973 16.77945873 430.54556274 15.04940796 C431.44590064 12.69084841 432.34948648 10.3335592 433.25390625 7.9765625 C433.5196344 7.27804672 433.78536255 6.57953094 434.05914307 5.85984802 C435.88594104 1.11405896 435.88594104 1.11405896 437 0 C476.6 0 516.2 0 557 0 C557 178.53 557 357.06 557 541 C524.66 541 492.32 541 459 541 C458.34 426.49 457.68 311.98 457 194 C446.74574251 220.48647252 446.74574251 220.48647252 436.5625 247 C435.80617377 248.9761638 435.04982536 250.95231911 434.29345703 252.9284668 C421.85049866 285.44403436 409.43499222 317.97011828 397.04568481 350.50616455 C389.07083307 371.44861579 381.07486446 392.38299962 373.079422 413.31759644 C369.92694374 421.57202488 366.77567185 429.82691315 363.625 438.08203125 C358.84364568 450.60946142 354.06042643 463.13617819 349.27514648 475.66210938 C348.42107875 477.89776208 347.56707543 480.13343939 346.71313477 482.36914062 C344.21927087 488.89818525 341.72414929 495.42674658 339.22714233 501.95458984 C338.46521232 503.94695209 337.70366134 505.93945934 336.9425354 507.93212891 C335.89118403 510.6843446 334.83834638 513.43598751 333.78515625 516.1875 C333.48913513 516.96335449 333.19311401 517.73920898 332.88812256 518.53857422 C330.00569169 526.06019901 326.99278763 533.51803093 324 541 C293.97 541 263.94 541 233 541 C230.30146227 535.60292453 227.91274524 530.46012851 225.85546875 524.83984375 C225.5694278 524.07050003 225.28338684 523.30115631 224.98867798 522.50849915 C224.37322449 520.85233915 223.75967158 519.19547184 223.14785767 517.53796387 C221.48134014 513.02535489 219.79853327 508.51881934 218.1171875 504.01171875 C217.5996566 502.62305099 217.5996566 502.62305099 217.07167053 501.20632935 C213.71028828 492.19828394 210.27315711 483.22029341 206.8125 474.25 C206.5108493 473.46749878 206.20919861 472.68499756 205.89840698 471.87878418 C204.29808411 467.7275339 202.69655001 463.57675252 201.09423828 459.42626953 C197.13996488 449.18239973 193.19404152 438.93531289 189.25 428.6875 C188.61970886 427.04995758 188.61970886 427.04995758 187.97668457 425.3793335 C179.64627005 403.73037302 171.40437229 382.04820979 163.17463684 360.36082458 C155.10201904 339.09124517 146.94596723 317.85393064 138.7739563 296.62237549 C138.35355072 295.53011658 137.93314514 294.43785767 137.5 293.3125 C136.87217117 291.68136261 136.87217117 291.68136261 136.23165894 290.01727295 C129.33793175 272.1043086 122.47199606 254.1808669 115.625 236.25 C115.18260986 235.09190826 114.74021973 233.93381653 114.28442383 232.7406311 C109.48487448 220.17456478 104.69989305 207.60372321 100 195 C99.06831773 199.73265647 98.85042478 204.32543538 98.84851074 209.13200378 C98.84427957 209.93634082 98.8400484 210.74067786 98.83568901 211.56938875 C98.82269271 214.26265107 98.81664406 216.95588381 98.81054688 219.64916992 C98.80257563 221.59058528 98.79416682 223.53199888 98.78535557 225.47341061 C98.76722883 229.67411339 98.75219172 233.87481207 98.73951912 238.07553482 C98.71914629 244.82071327 98.69196883 251.56585434 98.66392517 258.31100464 C98.62455518 267.93992218 98.58828206 277.56884688 98.5541687 287.19778442 C98.47026845 310.80740464 98.36995426 334.41695881 98.26957965 358.02651381 C98.25388197 361.73229338 98.23836507 365.43807366 98.22288704 369.14385414 C98.09632274 399.35405862 97.94808272 429.56385203 97.71484375 459.7734375 C97.70940213 460.48111535 97.70396052 461.18879319 97.69835401 461.91791582 C97.49482584 488.27885506 97.24057926 514.63938708 97 541 C64.99 541 32.98 541 0 541 C0 362.47 0 183.94 0 0 Z " fill="#000000" transform="translate(3974,134)"/>
<path d="M0 0 C0.75651855 0.62116699 0.75651855 0.62116699 1.52832031 1.25488281 C15.27383297 12.57133771 28.09638785 24.89482388 39 39 C40.08686376 40.34900982 41.17555929 41.69654494 42.265625 43.04296875 C49.88174606 52.5292034 56.64213233 62.23622079 62.71630859 72.77636719 C63.97611508 74.95862613 65.2621714 77.1237227 66.55078125 79.2890625 C87.59987283 115.25624453 100.18432311 159.29734709 101 201 C101.02046387 201.92039062 101.04092773 202.84078125 101.06201172 203.7890625 C102.30267188 269.24670254 83.07094873 330.97182323 43 383 C42.38769531 383.80824219 41.77539062 384.61648438 41.14453125 385.44921875 C34.95374668 393.43519885 27.98419611 400.71205688 21 408 C20.49500977 408.52835449 19.99001953 409.05670898 19.46972656 409.60107422 C13.04303457 416.28878203 6.30415036 422.29248553 -1 428 C-2.24483022 428.99734772 -3.48961931 429.99474677 -4.734375 430.9921875 C-52.84864139 469.10146564 -113.23564113 489.28626923 -174.5 489.1875 C-175.19865173 489.18689575 -175.89730347 489.1862915 -176.61712646 489.18566895 C-232.90282104 489.05428385 -288.06830556 471.61463239 -334 439 C-334.56509277 438.60071289 -335.13018555 438.20142578 -335.71240234 437.79003906 C-352.00281388 426.18494515 -368.20302783 412.41140734 -381 397 C-381.88418701 395.99776077 -382.77117094 394.9979856 -383.66015625 394 C-400.6136505 374.84573133 -414.07265011 353.08595048 -425 330 C-425.44601563 329.08734375 -425.89203125 328.1746875 -426.3515625 327.234375 C-435.51279192 307.96624086 -441.46642551 287.21617582 -445.75 266.375 C-446.04801514 264.94776611 -446.04801514 264.94776611 -446.35205078 263.49169922 C-449.57625503 247.05019153 -450.38038598 230.59094705 -450.3125 213.875 C-450.31067719 212.93700562 -450.30885437 211.99901123 -450.30697632 211.03259277 C-450.16898003 168.70953635 -440.92484304 126.41160201 -420.97363281 88.85009766 C-420.02695006 87.05121051 -419.11540846 85.23837861 -418.2109375 83.41796875 C-407.90983641 62.9907381 -394.10165815 44.30758935 -378.47265625 27.66015625 C-376.47078103 25.50648006 -374.56812291 23.32019017 -372.6875 21.0625 C-363.41408683 10.42015441 -352.27321531 1.42258968 -341 -7 C-340.42781738 -7.42909668 -339.85563477 -7.85819336 -339.26611328 -8.30029297 C-263.80913823 -64.51520724 -164.13946265 -76.68702518 0 0 Z M-217 33 C-218.28632324 33.31348389 -218.28632324 33.31348389 -219.59863281 33.63330078 C-248.7602723 41.04304359 -278.25792503 55.7368967 -299.4440918 77.42700195 C-301.76043055 79.768783 -304.2750267 81.83908453 -306.8125 83.93359375 C-340.49045599 115.74723432 -358.56354576 163.36384879 -360 209 C-360.41311614 255.87392809 -344.37201852 301.78552807 -312.578125 336.65625 C-310.75883917 338.48921467 -308.90616725 340.25839396 -307 342 C-302 347 -302 347 -300.53833008 348.53198242 C-296.10902313 353.10864787 -291.38635258 356.99357102 -286.25 360.75 C-285.42508057 361.35344238 -284.60016113 361.95688477 -283.75024414 362.57861328 C-243.98987301 391.16686685 -195.71856056 403.68077002 -147.03393555 396.48266602 C-95.97328247 388.01409283 -52.5697182 359.90182137 -22.45605469 318.08154297 C-18.61575605 312.59153858 -15.24357048 306.85742558 -12 301 C-11.6601709 300.39816895 -11.3203418 299.79633789 -10.97021484 299.17626953 C12.73999437 256.71106938 15.13681161 205.69604994 2.328125 159.58105469 C-4.56406125 135.90919988 -16.5962554 113.44296696 -33 95 C-33.71542969 94.17628906 -34.43085938 93.35257812 -35.16796875 92.50390625 C-37.40672856 89.96400352 -39.689888 87.47512 -42 85 C-42.79664062 84.13761719 -43.59328125 83.27523437 -44.4140625 82.38671875 C-73.62462687 51.89653751 -117.5642602 30.73381728 -159.92382812 28.82299805 C-161.29287262 28.7969122 -162.66203914 28.77671618 -164.03125 28.76171875 C-164.77633316 28.7519249 -165.52141632 28.74213104 -166.28907776 28.73204041 C-183.53217698 28.55225581 -200.14721548 28.89225181 -217 33 Z " fill="#000000" transform="translate(2927,191)"/>
<path d="M0 0 C0.89090332 0.12358887 1.78180664 0.24717773 2.69970703 0.37451172 C51.98466461 7.45445078 98.77759795 28.12744861 137 60 C137.94359375 60.75925781 138.8871875 61.51851562 139.859375 62.30078125 C153.4909053 73.39365472 166.39753438 85.96993662 177 100 C178.18336879 101.52881999 179.36698672 103.05744714 180.55078125 104.5859375 C188.06933214 114.3688968 195.07318487 124.17636483 201 135 C201.45439453 135.81742676 201.90878906 136.63485352 202.37695312 137.47705078 C238.22014018 202.35133038 247.60252996 277.74829847 227.671875 349.2734375 C217.09058757 385.95938344 199.43639602 419.62339395 175 449 C174.58588867 449.5043457 174.17177734 450.00869141 173.74511719 450.52832031 C162.43937959 464.26081522 150.12708063 477.14603792 136 488 C134.76082965 488.9897733 133.52261912 489.980749 132.28515625 490.97265625 C76.31263395 535.35887314 3.26773692 555.56813951 -67.66992188 547.98461914 C-99.90472782 544.06477913 -130.7629435 535.07258279 -160 521 C-161.05985107 520.49460693 -161.05985107 520.49460693 -162.14111328 519.97900391 C-187.4523426 507.74835749 -209.88912991 490.46439154 -230 471 C-230.5873291 470.43458496 -231.1746582 469.86916992 -231.77978516 469.28662109 C-239.06758414 462.24427142 -245.7311528 454.9807247 -252 447 C-252.6290625 446.24976563 -253.258125 445.49953125 -253.90625 444.7265625 C-298.29277436 391.42635087 -317.75453124 319.1141598 -312.50390625 250.59765625 C-311.12240112 235.49666261 -308.54254673 220.73655875 -305 206 C-304.81743652 205.22076172 -304.63487305 204.44152344 -304.44677734 203.63867188 C-299.83363134 184.3000912 -292.36369975 165.27924361 -282.95019531 147.78271484 C-281.98865753 145.97871975 -281.06553752 144.15896809 -280.1484375 142.33203125 C-268.37567393 119.14751921 -252.09856584 98.54665213 -234 80 C-233.43893555 79.41847168 -232.87787109 78.83694336 -232.29980469 78.23779297 C-225.256347 70.94701712 -218.01629372 64.23115268 -210 58 C-208.52660156 56.81857422 -208.52660156 56.81857422 -207.0234375 55.61328125 C-149.56970435 9.91575752 -72.58383145 -10.33662007 0 0 Z M-166.60302734 141.66601562 C-167.79431246 142.80358673 -168.99929764 143.92678224 -170.20703125 145.046875 C-176.53638624 151.0797429 -181.7438361 158.04014259 -187 165 C-187.6290625 165.82242188 -188.258125 166.64484375 -188.90625 167.4921875 C-192.74663506 172.7274294 -195.95606538 178.28073265 -199.125 183.9375 C-199.73710327 185.02853027 -199.73710327 185.02853027 -200.36157227 186.14160156 C-211.10423371 205.67844738 -217.81696052 226.96795492 -221 249 C-221.10094971 249.6820752 -221.20189941 250.36415039 -221.3059082 251.06689453 C-224.81611403 278.05927549 -221.80095308 306.33055351 -213 332 C-212.68772461 332.95398682 -212.68772461 332.95398682 -212.36914062 333.92724609 C-206.66644512 351.25028037 -197.84171881 367.37950693 -187 382 C-185.87851563 383.59908203 -185.87851563 383.59908203 -184.734375 385.23046875 C-181.97268304 389.19616488 -181.97268304 389.19616488 -179 393 C-178.34 393 -177.68 393 -177 393 C-176.60167969 393.87205078 -176.60167969 393.87205078 -176.1953125 394.76171875 C-172.47672479 401.72495652 -166.00450568 407.04556686 -160 412 C-159.50032715 412.42265137 -159.0006543 412.84530273 -158.48583984 413.28076172 C-118.02118354 447.44325292 -68.92481397 462.03659251 -16.36035156 457.69970703 C-9.47860572 456.89027184 -2.74068207 455.59185489 4 454 C4.8981543 453.79101074 5.79630859 453.58202148 6.72167969 453.36669922 C46.71100571 443.74070747 84.28592925 418.91726125 109 386 C109.62003906 385.20851563 110.24007813 384.41703125 110.87890625 383.6015625 C139.8466857 345.56306424 151.86797559 296.40813886 145.8125 249.1875 C139.25061174 202.71174828 114.77697942 157.32127603 77.11376953 128.55957031 C2.08919587 72.84134413 -98.25247906 76.26255263 -166.60302734 141.66601562 Z " fill="#000000" transform="translate(1926,131)"/>
<path d="M0 0 C32.34 0 64.68 0 98 0 C98 75.57 98 151.14 98 229 C161.69 229 225.38 229 291 229 C291 153.43 291 77.86 291 0 C323.01 0 355.02 0 388 0 C388 178.53 388 357.06 388 541 C355.99 541 323.98 541 291 541 C291 469.06 291 397.12 291 323 C227.31 323 163.62 323 98 323 C98 394.94 98 466.88 98 541 C65.66 541 33.32 541 0 541 C0 362.47 0 183.94 0 0 Z " fill="#000000" transform="translate(3050,134)"/>
<path d="M0 0 C51.65578006 -8.69090498 51.65578006 -8.69090498 70.05668259 3.57095909 C85.47695483 14.80295243 98.198015 30.0857368 110.08529282 44.87900925 C113.75243702 49.4394777 117.40541933 53.48389127 121.90979004 57.21473694 C126.39725502 61.04751241 130.46597312 65.34508419 134.625 69.52734375 C135.62225677 70.52647028 136.61973802 71.5253728 137.61743164 72.52406311 C140.21705679 75.1274695 142.81366231 77.7338667 145.40960693 80.34094238 C148.06939763 83.01104274 150.7320934 85.67824277 153.39453125 88.34570312 C158.59916888 93.56100038 163.8006134 98.77946716 169 104 C169.556875 103.43152344 170.11375 102.86304688 170.6875 102.27734375 C171.450625 101.50519531 172.21375 100.73304688 173 99.9375 C174.11375 98.80634766 174.11375 98.80634766 175.25 97.65234375 C177.39061342 95.58774643 179.55094007 93.66758541 181.81433105 91.74595642 C186.27233313 87.8732057 190.10087548 83.57709525 193.97070312 79.12719727 C204.60412552 67.07379981 215.4557112 55.23942548 226.5 43.5625 C226.98965366 43.04429813 227.47930733 42.52609627 227.98379898 41.99219131 C272.14618788 -4.66194552 272.14618788 -4.66194552 298.63708496 -6.14122009 C311.90533308 -6.44659373 325.41547253 -4.05550673 338 0 C332.25622793 7.02391302 325.80287016 13.33045879 319.38525391 19.72827148 C318.10338206 21.00986093 316.82173102 22.29167126 315.5402832 23.57368469 C312.07604196 27.03821186 308.6087347 30.49965555 305.14085436 33.96053958 C301.51157119 37.58355505 297.88513548 41.20941842 294.25839233 44.8349762 C287.39698239 51.69328289 280.53302817 58.54903729 273.6681484 65.40387064 C265.84997505 73.21085159 258.03465418 81.0206854 250.21956754 88.83075607 C234.1495426 104.89033939 218.07595206 120.94635 202 137 C202.95640926 138.12203297 203.91370268 139.24331233 204.87136841 140.36427307 C205.40436617 140.98876626 205.93736393 141.61325945 206.48651314 142.25667667 C208.20750388 144.23901519 210.00290519 146.1169148 211.8671875 147.96484375 C212.52460937 148.61904297 213.18203125 149.27324219 213.859375 149.94726562 C214.52453125 150.60404297 215.1896875 151.26082031 215.875 151.9375 C216.56335938 152.62134766 217.25171875 153.30519531 217.9609375 154.00976562 C219.63833511 155.67551464 221.31803791 157.3388622 223 159 C227.30069387 157.37844139 229.97980919 154.09997678 233.01068115 150.79916382 C233.61006036 150.15633725 234.20943957 149.51351068 234.82698178 148.85120451 C236.14145601 147.44084825 237.45349824 146.02822244 238.76343346 144.61364937 C242.41197976 140.67551838 246.0808746 136.75642372 249.74871826 132.83627319 C250.92359952 131.57960897 250.92359952 131.57960897 252.12221575 130.29755759 C263.10845411 118.56466161 274.26900667 106.99779108 285.42332077 95.424963 C294.47790335 86.02064602 303.46424823 76.56543141 312.31396484 66.96777344 C322.54381006 55.89022153 332.91807798 44.96959878 343.546875 34.2734375 C344.39978559 33.41495807 345.25269619 32.55647863 346.13145256 31.67198467 C365.70218428 12.12166611 383.54540657 -5.09634103 412.50958252 -5.33798218 C424.55385279 -5.1023176 436.40454867 -3.25942377 448 0 C446.52571923 3.41096484 444.61907732 5.6280625 441.99674988 8.24375916 C441.15981094 9.08344742 440.32287201 9.92313568 439.46057129 10.78826904 C438.08052917 12.15752533 438.08052917 12.15752533 436.67260742 13.55444336 C435.69478622 14.53170022 434.71740559 15.50939809 433.74043274 16.48750305 C431.08773515 19.14077463 428.42891313 21.7878314 425.76896071 24.43382716 C422.98369457 27.20657692 420.20410416 29.98500456 417.42390442 32.76283264 C412.15340415 38.02711443 406.87782883 43.2862797 401.60041171 48.54362637 C395.61294021 54.50881224 389.63108133 60.47961258 383.6497215 66.45092571 C373.41952864 76.66374364 363.1851088 86.872309 352.9460144 97.07620239 C345.75417926 104.2314678 345.75417926 104.2314678 338.60546875 111.4296875 C337.80753906 112.23664063 337.00960938 113.04359375 336.1875 113.875 C335.39730469 114.67679687 334.60710937 115.47859375 333.79296875 116.3046875 C331.65792692 118.36507752 329.50732665 120.30831763 327.26086426 122.24012756 C323.36605755 125.63766713 319.67558791 129.18863028 316.03320312 132.85327148 C315.38829926 133.49802933 314.74339539 134.14278717 314.07894897 134.80708313 C311.97733287 136.90938818 309.8792673 139.01519777 307.78125 141.12109375 C306.313167 142.59104456 304.84486103 144.06077272 303.37634277 145.5302887 C299.53386864 149.37655945 295.6944086 153.22582506 291.85559082 157.07574463 C287.92899789 161.0126134 283.99953094 164.94661131 280.0703125 168.88085938 C272.37740957 176.58444922 264.68769113 184.29120935 257 192 C257.95640926 193.12203297 258.91370268 194.24331233 259.87136841 195.36427307 C260.40436617 195.98876626 260.93736393 196.61325945 261.48651314 197.25667667 C263.20750388 199.23901519 265.00290519 201.1169148 266.8671875 202.96484375 C267.52460937 203.61904297 268.18203125 204.27324219 268.859375 204.94726562 C269.52453125 205.60404297 270.1896875 206.26082031 270.875 206.9375 C271.56335938 207.62134766 272.25171875 208.30519531 272.9609375 209.00976562 C274.63833511 210.67551464 276.31803791 212.3388622 278 214 C281.19253626 212.60004155 283.23680419 210.96978011 285.62430191 208.44302177 C286.33127724 207.70055982 287.03825257 206.95809786 287.76665139 206.19313705 C288.5362254 205.37408169 289.30579941 204.55502634 290.09869385 203.71115112 C290.92266844 202.84372917 291.74664302 201.97630722 292.59558654 201.08259976 C294.40569423 199.17648727 296.21382373 197.26869037 298.01908112 195.35800171 C302.51195741 190.60396097 307.02329498 185.86746914 311.53436702 181.13070133 C312.60894433 180.00234255 313.68334771 178.87381812 314.75758463 177.74513528 C323.22748191 168.84735981 331.74445704 159.99656182 340.29779053 151.1789856 C340.87798723 150.58080591 341.45818393 149.98262622 342.05596235 149.36631988 C348.06177989 143.1756913 354.07342158 136.99074601 360.08932985 130.80992388 C363.18167986 127.63225189 366.27246881 124.4530658 369.36230469 121.27294922 C369.97726515 120.64006989 370.5922256 120.00719056 371.22582123 119.35513307 C381.11514635 109.17095958 390.88805659 98.88197141 400.62150958 88.54898249 C410.66123994 77.89631623 420.82477981 67.37343254 431.10603118 56.95364583 C436.85969166 51.11534701 442.54634098 45.23536419 448.09400177 39.20040512 C485.50706845 -1.4060247 485.50706845 -1.4060247 513.75680336 -2.96622424 C528.55363984 -3.55287125 543.37803804 -2.19409032 558 0 C553.03858125 5.98572165 547.67116317 11.4665872 542.16714478 16.95310974 C541.17180109 17.94889009 540.17667743 18.94489041 539.18175352 19.94109017 C536.46117099 22.66389893 533.73749685 25.38359623 531.01328874 28.10277689 C528.07085541 31.04087893 525.1313258 33.98188364 522.19143677 36.92253113 C517.10212397 42.01236746 512.0109881 47.10037429 506.91859818 52.18713188 C499.55592139 59.54167063 492.1960179 66.89897957 484.83678143 74.25696064 C472.89591065 86.19564452 460.9528099 98.13209499 449.00830078 110.06713867 C437.40751772 121.65873825 425.80778874 133.25139098 414.20947266 144.84545898 C413.49417006 145.56049886 412.77886746 146.27553873 412.04188903 147.01224648 C408.45331852 150.59951192 404.86476869 154.18679805 401.27622914 157.77409446 C371.5206915 187.51927076 341.76153218 217.26082161 312 247 C312.95640926 248.12203297 313.91370268 249.24331233 314.87136841 250.36427307 C315.40436617 250.98876626 315.93736393 251.61325945 316.48651314 252.25667667 C318.20750388 254.23901519 320.00290519 256.1169148 321.8671875 257.96484375 C322.52460937 258.61904297 323.18203125 259.27324219 323.859375 259.94726562 C324.52453125 260.60404297 325.1896875 261.26082031 325.875 261.9375 C326.90753906 262.96327148 326.90753906 262.96327148 327.9609375 264.00976562 C329.63833511 265.67551464 331.31803791 267.3388622 333 269 C336.60281108 267.32426299 338.58389248 265.46792842 341.1875 262.4375 C344.3586094 258.83062557 347.57107179 255.30115517 350.9375 251.875 C351.66839844 251.12992188 352.39929688 250.38484375 353.15234375 249.6171875 C355 248 355 248 357 248 C357.20778076 247.46624756 357.41556152 246.93249512 357.62963867 246.38256836 C359.54821079 243.04685745 362.20153657 240.55334222 364.92578125 237.87890625 C365.5103862 237.2971312 366.09499115 236.71535614 366.6973114 236.11595154 C368.56438702 234.26004158 370.43828434 232.41119648 372.3125 230.5625 C373.5623092 229.32272942 374.81166318 228.08249975 376.06054688 226.84179688 C378.3660834 224.55255606 380.67425764 222.26604865 382.9855957 219.98266602 C385.6673889 217.33203129 388.33620406 214.66873449 391 212 C406.67773438 196.32226562 422.35546875 180.64453125 438.03320312 164.96679688 C438.53554977 164.46435959 439.03789642 163.9619223 439.5554657 163.44425964 C440.9130372 162.08694627 442.27155 160.73057456 443.63012695 159.37426758 C445.80966446 157.19068848 447.97569588 154.99484858 450.13671875 152.79296875 C451.65353498 151.25770297 453.17046469 149.7225493 454.6875 148.1875 C455.45900391 147.39923828 456.23050781 146.61097656 457.02539062 145.79882812 C457.76337891 145.05439453 458.50136719 144.30996094 459.26171875 143.54296875 C459.93162842 142.86258545 460.60153809 142.18220215 461.29174805 141.48120117 C463 140 463 140 465 140 C465 139.34 465 138.68 465 138 C465.66 138 466.32 138 467 138 C467.2291381 137.45484364 467.4582762 136.90968727 467.69435787 136.34801102 C469.37031089 133.33404871 471.56435407 130.94783618 473.89027405 128.43182373 C474.64483868 127.60590316 474.64483868 127.60590316 475.41464704 126.76329732 C477.1033519 124.91906224 478.79943336 123.08180853 480.49633789 121.24511719 C481.08987627 120.59985455 481.68341465 119.9545919 482.29493904 119.28977585 C494.10225814 106.45588449 506.12041916 93.82425859 518.21076298 81.25718307 C525.89000047 73.26731817 533.4973918 65.22853834 540.95532227 57.03125 C595.52058164 -2.83567667 595.52058164 -2.83567667 626.5571928 -4.46261215 C640.4916853 -4.872029 654.42858278 -3.06277939 668 0 C662.44789293 6.76469695 656.26777022 12.86890083 650.07913208 19.04112244 C648.85692428 20.26376668 647.6349364 21.4866308 646.41314876 22.70969492 C643.06548261 26.05959176 639.71471541 29.40637149 636.3634243 32.75264132 C632.74614127 36.36559954 629.13175518 39.98145381 625.51701355 43.59695435 C619.25725036 49.85724148 612.99566116 56.11569737 606.73282242 62.37290764 C597.6778485 71.41974907 588.62564232 80.46935572 579.57410584 89.51963622 C564.88794828 104.20360602 550.19955966 118.885342 535.50976562 133.56567383 C521.24134045 147.82491778 506.97396758 162.08521329 492.70800781 176.34692383 C491.82842046 177.22624846 490.9488331 178.10557309 490.04259159 179.01154392 C485.62989717 183.42293329 481.21722342 187.83434333 476.80455995 192.24576366 C440.20624425 228.83371531 403.60430666 265.41804206 367 302 C367.95640926 303.12203297 368.91370268 304.24331233 369.87136841 305.36427307 C370.40436617 305.98876626 370.93736393 306.61325945 371.48651314 307.25667667 C373.20750388 309.23901519 375.00290519 311.1169148 376.8671875 312.96484375 C377.52460937 313.61904297 378.18203125 314.27324219 378.859375 314.94726562 C379.52453125 315.60404297 380.1896875 316.26082031 380.875 316.9375 C381.90753906 317.96327148 381.90753906 317.96327148 382.9609375 319.00976562 C384.63833641 320.67551593 386.31848946 322.33840361 388 324 C394.37852611 318.84039175 399.99183391 312.99273991 405.66669588 307.08906658 C407.53864561 305.141729 409.41443256 303.19815298 411.29110682 301.25536859 C414.05050444 298.398076 416.80834813 295.53929606 419.56503296 292.67938614 C427.23665945 284.72194179 434.9223661 276.77811048 442.60995483 268.83609009 C443.4256721 267.99329149 444.24138937 267.1504929 445.08182535 266.28215495 C457.96344316 252.97631645 470.89124916 239.71644775 483.85269165 226.4883728 C484.73139098 225.59156991 485.61009032 224.69476701 486.51541691 223.77078827 C495.60457057 214.49592152 504.69988261 205.22711847 513.8007374 195.96373359 C518.47573258 191.20481455 523.1492582 186.44445539 527.82177734 181.68310547 C528.28665778 181.20944281 528.75153821 180.73578015 529.23050593 180.24776408 C544.70821107 164.47611387 560.06687722 148.59423574 575.37813656 132.6610672 C590.66850737 116.75501506 606.08341538 100.9776401 621.61646044 85.30845773 C630.31735625 76.52415224 638.95350657 67.69221677 647.44919968 58.7089119 C706.40467367 -3.53591663 706.40467367 -3.53591663 739.1066215 -4.65366154 C752.22910913 -4.80658951 765.24901993 -3.03833225 778 0 C772.5114989 6.6482923 766.47774504 12.73821348 760.43023872 18.87158108 C759.24010586 20.08188832 758.05015982 21.2923793 756.86038315 22.50303671 C753.5861275 25.83348546 750.30894103 29.16103655 747.03114893 32.48800438 C744.19958672 35.36267403 741.36958229 38.23887496 738.53953882 41.11503966 C729.90966064 49.88537178 721.27494688 58.65093334 712.63897753 67.41526711 C708.43678765 71.67995148 704.23527187 75.94529925 700.03397045 80.21085885 C657.59163068 123.30199202 615.09062377 166.33452237 572.51217651 209.29115295 C571.77424382 210.03565347 571.77424382 210.03565347 571.0214034 210.79519439 C548.61038482 233.40559205 526.19092528 256.00760079 503.7625853 278.60081631 C494.31903588 288.11388208 484.87681319 297.62826445 475.43534698 307.14339772 C473.85407837 308.73698931 472.27277354 310.33054494 470.69146734 311.92409922 C446.36758159 336.43703236 422.07149323 360.97672333 397.85601807 385.59680176 C397.336084 386.12542247 396.81614993 386.65404319 396.28046029 387.19868272 C387.89845826 395.72106979 379.5188268 404.24578708 371.13950417 412.77080845 C346.96903933 437.36147282 322.78183527 461.93459587 298.48153496 486.39706516 C297.73017856 487.15346025 297.73017856 487.15346025 296.96364325 487.92513604 C285.96091819 499.00103267 274.94946445 510.06820927 263.9297464 521.12719815 C259.49446955 525.578584 255.06043715 530.03120878 250.62682724 534.48425484 C249.89899674 535.21518478 249.89899674 535.21518478 249.1564626 535.96088098 C233.59029008 551.59456724 218.1280099 567.32628685 202.71826404 583.11406097 C186.73130803 599.49220981 170.63124188 615.75239382 154.39730616 631.88629519 C145.87818228 640.3592998 137.41750914 648.87498741 129.09806633 657.54454231 C73.65196515 715.23815399 73.65196515 715.23815399 41.48687712 716.31842157 C28.5164405 716.47957245 15.64578476 714.825165 3 712 C6.86425532 707.37832995 10.86968087 702.98910362 15.14469051 698.74622822 C15.73609047 698.1551724 16.32749043 697.56411658 16.9368116 696.95514998 C18.91007659 694.98424221 20.88691523 693.01695928 22.86375427 691.04963684 C24.29704877 689.6194883 25.73011402 688.18910997 27.16297013 686.75852221 C30.27403097 683.65336393 33.38669047 680.54982009 36.50058365 677.44750214 C41.56710046 672.39979966 46.63013159 667.34861005 51.69273376 662.29698181 C58.56457818 655.44058949 65.43765871 648.58543868 72.31171249 641.7312615 C83.90878876 630.16759224 95.5000894 618.59814671 107.0893887 607.02668375 C109.55676526 604.56311781 112.0241938 602.09960394 114.49161619 599.6360839 C117.4865989 596.64582891 120.4815768 593.65556909 123.47653897 590.66529352 C134.76188032 579.39764379 146.04792184 568.13069561 157.3347168 556.86450195 C157.85036581 556.34978962 158.36601482 555.83507729 158.89728956 555.30476762 C175.64025785 538.59231375 192.39005417 521.88672058 209.14284223 505.1841108 C226.3677725 488.01067974 243.58442028 470.82898502 260.79115778 453.63732516 C263.21852634 451.21209772 265.64599711 448.78697261 268.07353401 446.36191368 C268.5512925 445.88463881 269.02905099 445.40736394 269.521287 444.91562619 C277.22243285 437.22279401 284.93243118 429.53889285 292.64584018 421.85835878 C300.38803932 414.14882398 308.12109379 406.43020104 315.84532832 398.70266537 C320.03324187 394.51352834 324.22521556 390.32866586 328.42806244 386.15450668 C332.26948822 382.33913624 336.09939366 378.51259553 339.92016376 374.67654344 C341.30992338 373.28535525 342.70399231 371.89845704 344.10258644 370.51615069 C345.99212863 368.64741526 347.86586587 366.76418071 349.73619747 364.87624836 C350.29221292 364.33365382 350.84822837 363.79105929 351.42109278 363.23202249 C353.09389836 361.5815083 353.09389836 361.5815083 355 359 C354.50222117 354.48102137 351.4399929 352.02897942 348.34840298 348.9820528 C347.74956485 348.38005274 347.15072672 347.77805267 346.53374198 347.15781018 C344.50975002 345.12683748 342.47516597 343.10681405 340.4405365 341.08650208 C338.97885146 339.62422533 337.51782678 338.16128824 336.05740935 336.6977455 C332.03023422 332.66578595 327.99373454 328.64327403 323.95571601 324.6221782 C319.60739521 320.28882584 315.26771557 315.94683549 310.92701721 311.60585022 C303.4011426 304.08181595 295.86988631 296.56320792 288.33491325 289.04828835 C280.43051319 281.16485083 272.52943055 273.27811169 264.63269234 265.38699913 C263.89664531 264.65147912 263.89664531 264.65147912 263.14572864 263.90110011 C260.65380914 261.41092342 258.16195428 258.92068205 255.67012782 256.43041226 C238.0123515 238.78383043 220.34800539 221.14383883 202.67944336 203.50805664 C198.39640456 199.23294931 194.11337306 194.95783467 189.8303833 190.68267822 C189.29907019 190.15233702 188.76775707 189.62199581 188.22034356 189.07558366 C175.87495896 176.75266706 163.53221412 164.4271078 151.19018555 152.10083008 C150.66142128 151.57274345 150.13265701 151.04465683 149.58786959 150.50056758 C137.52320572 138.45133778 125.4592804 126.40136888 113.39628696 114.35046673 C112.6364975 113.59144195 112.6364975 113.59144195 111.86135875 112.81708334 C107.30573522 108.2660426 102.75011557 103.71499797 98.19461948 99.16382965 C86.33082133 87.31132997 74.46478979 75.46107604 62.59486044 63.61471643 C55.15386459 56.18842944 47.71450093 48.76050987 40.27638071 41.3313425 C35.97803842 37.03834051 31.67882442 32.74621997 27.37743759 28.45626831 C23.44692459 24.5361997 19.51865387 20.61389916 15.59221394 16.68975099 C14.16446693 15.26367656 12.73585317 13.8384693 11.30632924 12.41417608 C9.37718371 10.49186573 7.45107521 8.56656512 5.52575588 6.64042377 C4.95810344 6.07625589 4.39045101 5.51208801 3.80559698 4.93082413 C0 1.11413228 0 1.11413228 0 0 Z " fill="#DE0715" transform="translate(495,45)"/>
<path d="M0 0 C32.67 0 65.34 0 99 0 C106.425 20.295 106.425 20.295 114 41 C117.59266797 50.74931646 117.59266797 50.74931646 121.19671631 60.49438477 C122.92992112 65.17263605 124.6601033 69.8520057 126.390625 74.53125 C126.75586273 75.51871216 127.12110046 76.50617432 127.49740601 77.52355957 C132.30034919 90.5118661 137.08777565 103.50589347 141.875 116.5 C142.33011963 117.73518372 142.78523926 118.97036743 143.25415039 120.24298096 C148.05824877 133.28197074 152.85515046 146.3234442 157.625 159.375 C162.84795924 173.66145412 168.18037778 187.90702256 173.49853516 202.15823364 C178.92101769 216.69268871 184.30807179 231.23909567 189.625 245.8125 C194.75998257 259.88683748 199.92622599 273.94909217 205.125 288 C211.72075092 305.82876716 218.30351921 323.66227153 224.875 341.5 C225.32945496 342.73352203 225.78390991 343.96704407 226.25213623 345.23794556 C231.09503074 358.38404507 235.93391613 371.53155317 240.75 384.6875 C245.12388119 396.63312676 249.52739747 408.56770573 253.9375 420.5 C254.29362366 421.46355408 254.64974731 422.42710815 255.0166626 423.41986084 C259.34233429 435.12198193 263.6742943 446.82176142 268.01171875 458.51953125 C283.2608742 499.64822884 283.2608742 499.64822884 290.7543335 520.09579468 C291.4138553 521.8953193 292.07388288 523.69465864 292.73443604 525.49380493 C293.63195215 527.9392609 294.52730588 530.38549597 295.421875 532.83203125 C295.8186998 533.91212463 295.8186998 533.91212463 296.22354126 535.01403809 C298 539.8850636 298 539.8850636 298 541 C264.34 541 230.68 541 196 541 C191.49995261 530.87489338 191.49995261 530.87489338 190.20751953 527.28271484 C189.91210266 526.46675842 189.61668579 525.650802 189.31231689 524.81011963 C189.00558044 523.95238953 188.69884399 523.09465942 188.3828125 522.2109375 C188.049328 521.28682068 187.71584351 520.36270386 187.37225342 519.4105835 C186.28667343 516.39985062 185.20582142 513.38744405 184.125 510.375 C183.36243127 508.25754552 182.59956932 506.14019661 181.83642578 504.02294922 C178.31325015 494.24284526 174.8044606 484.45757895 171.296875 474.671875 C171.0090918 473.86909622 170.72130859 473.06631744 170.42480469 472.23921204 C168.11048735 465.78302026 168.11048735 465.78302026 167.0378418 462.78573608 C163.66247952 453.35464197 160.25242852 443.93719095 156.796875 434.53515625 C156.44726715 433.5832843 156.0976593 432.63141235 155.73745728 431.6506958 C154.03652912 427.02140534 152.33162916 422.39363494 150.62060547 417.76806641 C150.00999793 416.10973484 149.3994788 414.45137072 148.7890625 412.79296875 C148.50544861 412.03041275 148.22183472 411.26785675 147.92962646 410.48219299 C146 405.22663986 146 405.22663986 146 403 C50.465 403.495 50.465 403.495 -47 404 C-60.4216751 441.2639235 -60.4216751 441.2639235 -73.79498291 478.54504395 C-79.29205089 493.90328339 -84.79169063 509.26079965 -90.34625244 524.59835815 C-90.86002076 526.01787518 -91.37285857 527.43772938 -91.88470459 528.85794067 C-92.56882105 530.75524697 -93.25693028 532.65111224 -93.9453125 534.546875 C-94.32187988 535.58682617 -94.69844727 536.62677734 -95.08642578 537.69824219 C-96 540 -96 540 -97 541 C-100.16612663 541.09536242 -103.31040628 541.12550636 -106.47680664 541.11352539 C-107.96932198 541.11374443 -107.96932198 541.11374443 -109.49198914 541.1139679 C-112.79806662 541.11326831 -116.10408854 541.10547379 -119.41015625 541.09765625 C-121.69559193 541.09579223 -123.98102801 541.09436825 -126.26646423 541.09336853 C-132.29498387 541.08954207 -138.32347959 541.0797107 -144.35198975 541.06866455 C-150.49832841 541.05845317 -156.64467093 541.0538715 -162.79101562 541.04882812 C-174.86068762 541.03808854 -186.93034182 541.0210106 -199 541 C-198.53468105 539.42917923 -198.06776068 537.85883279 -197.60018921 536.28868103 C-197.34034933 535.41414245 -197.08050945 534.53960386 -196.81279564 533.63856411 C-195.56425723 529.58545596 -194.12372267 525.60988424 -192.6640625 521.62890625 C-192.34894211 520.76271667 -192.03382172 519.8965271 -191.70915222 519.00408936 C-190.68404241 516.1891438 -189.65467856 513.37577724 -188.625 510.5625 C-187.89791196 508.56994889 -187.17094423 506.57735387 -186.4440918 504.5847168 C-181.76608249 491.77240764 -177.04195624 478.9776464 -172.27880859 466.19677734 C-167.06646166 452.206969 -161.90777292 438.19750637 -156.75 424.1875 C-150.19796554 406.39195199 -143.6395545 388.59881714 -137.0625 370.8125 C-132.03324675 357.21142336 -127.010398 343.60803425 -122 330 C-116.90515726 316.16321568 -111.79968182 302.33038761 -106.6875 288.5 C-106.15508194 287.05959351 -106.15508194 287.05959351 -105.61190796 285.59008789 C-102.71040522 277.74059601 -99.80839701 269.89129102 -96.90637207 262.04199219 C-94.37484826 255.19474762 -91.84358083 248.34740833 -89.3125 241.5 C-88.95764526 240.54008148 -88.60279053 239.58016296 -88.23718262 238.59115601 C-84.61343918 228.78809714 -80.99190921 218.98424327 -77.3828125 209.17578125 C-77.09504944 208.39375336 -76.80728638 207.61172546 -76.51080322 206.80599976 C-75.93696792 205.24648145 -75.3631357 203.68696201 -74.78930664 202.12744141 C-74.50821045 201.36351074 -74.22711426 200.59958008 -73.9375 199.8125 C-73.65801514 199.05291992 -73.37853027 198.29333984 -73.09057617 197.51074219 C-68.36178783 184.66240468 -63.59256162 171.82933945 -58.8125 159 C-54.02957514 146.16196976 -49.26599778 133.31774769 -44.56030273 120.45117188 C-33.24859464 89.53127155 -21.83131746 58.64972599 -10.42559814 27.7644043 C-9.68885098 25.76920394 -8.95231626 23.77392513 -8.21600342 21.77856445 C-7.20327158 19.03441789 -6.18966019 16.29059791 -5.17578125 13.546875 C-4.88094345 12.74751526 -4.58610565 11.94815552 -4.28233337 11.12457275 C-4.00909744 10.38575867 -3.73586151 9.64694458 -3.4543457 8.88574219 C-3.22012405 8.25158386 -2.9859024 7.61742554 -2.74458313 6.96405029 C-1.86009425 4.63095869 -0.92666529 2.31666322 0 0 Z M49 144 C48.4755127 145.43883545 48.4755127 145.43883545 47.94042969 146.90673828 C37.95530945 174.28898907 27.856032 201.62813754 17.72187805 228.95553589 C14.96604066 236.38868629 12.21667668 243.82419836 9.47265625 251.26171875 C9.11270065 252.23723694 8.75274506 253.21275513 8.38188171 254.21783447 C7.66772331 256.15329949 6.95356619 258.08876498 6.2394104 260.02423096 C5.89227997 260.96498474 5.54514954 261.90573853 5.1875 262.875 C4.84480072 263.80382996 4.50210144 264.73265991 4.14901733 265.68963623 C0.32844974 276.04118446 -3.51115557 286.3852105 -7.390625 296.71484375 C-7.74456833 297.65728943 -8.09851166 298.59973511 -8.46318054 299.57073975 C-10.14978504 304.05926151 -11.83925856 308.5466816 -13.5324707 313.03271484 C-13.98617035 314.23741173 -13.98617035 314.23741173 -14.44903564 315.46644592 C-15.01361066 316.96553342 -15.57950116 318.46412637 -16.14691162 319.96214294 C-17.44217385 322.90259353 -17.44217385 322.90259353 -18 326 C26.22 326 70.44 326 116 326 C114.21452562 319.45326059 112.51538723 313.27226179 110.09375 307.00390625 C109.81695908 306.2737178 109.54016815 305.54352936 109.25498962 304.79121399 C108.65543398 303.2101881 108.05376517 301.62996221 107.45016479 300.05047607 C105.76823345 295.64639272 104.10510556 291.23521528 102.44140625 286.82421875 C102.08554947 285.88141052 101.72969269 284.93860229 101.36305237 283.96722412 C96.96912657 272.3011669 92.70491831 260.58778332 88.4375 248.875 C86.81787615 244.43223048 85.19799198 239.98955588 83.578125 235.546875 C83.18590256 234.47091568 82.79368011 233.39495636 82.38957214 232.28639221 C78.29317783 221.05313866 74.16482236 209.83176266 70.0222168 198.61547852 C69.47182784 197.12516816 68.92145346 195.63485241 68.37109375 194.14453125 C68.1004863 193.41186539 67.82987885 192.67919952 67.55107117 191.92433167 C65.72141104 186.96643536 63.90293219 182.00453472 62.08992004 177.04052734 C60.79193133 173.48730096 59.49109655 169.93511941 58.19009399 166.38299561 C57.56903 164.68482257 56.94935426 162.98614109 56.33114624 161.28692627 C55.4795205 158.94647962 54.62310044 156.60783984 53.765625 154.26953125 C53.51422256 153.57462082 53.26282013 152.87971039 53.00379944 152.16374207 C51.8946816 149.15240545 50.79144904 146.68717357 49 144 Z " fill="#000000" transform="translate(4757,134)"/>
<path d="M0 0 C32.34 0 64.68 0 98 0 C106.03331309 20.65709079 106.03331309 20.65709079 108.8828125 28.47265625 C109.38105278 29.83195 109.38105278 29.83195 109.88935852 31.21870422 C110.5998394 33.15754878 111.30955 35.09667576 112.01852417 37.03607178 C113.57045524 41.28090736 115.12675355 45.52413846 116.68266296 49.76751709 C117.51172398 52.02871734 118.34058902 54.28998945 119.16926575 56.55133057 C123.91341029 69.49694609 128.67271908 82.43696727 133.4375 95.375 C133.87689911 96.56827911 134.31629822 97.76155823 134.76901245 98.99099731 C141.42443486 117.06054299 148.12984466 135.111003 154.86383057 153.15139771 C162.61081194 173.90934532 170.25803208 194.70324421 177.88449097 215.50572205 C181.26873999 224.73608625 184.6630861 233.9627112 188.0625 243.1875 C188.34077637 243.94269928 188.61905273 244.69789856 188.90576172 245.47598267 C195.50325289 263.37845049 202.11938647 281.27403591 208.73548889 299.16963196 C211.2446925 305.95666789 213.75340517 312.74388508 216.26171875 319.53125 C216.61155823 320.47789017 216.96139771 321.42453033 217.32183838 322.39985657 C219.09012069 327.18475678 220.85832546 331.96968564 222.62646484 336.75463867 C225.80377748 345.35287982 228.98152512 353.95095857 232.16186523 362.54808044 C233.92074933 367.30276155 235.67921354 372.05759786 237.4375 376.8125 C237.96201752 378.23086655 237.96201752 378.23086655 238.49713135 379.67788696 C242.47805786 390.44473847 246.44963483 401.21494208 250.40234375 411.9921875 C250.76960068 412.99351715 251.1368576 413.9948468 251.51524353 415.02651978 C252.26103503 417.06005566 253.00681849 419.09359449 253.75259399 421.12713623 C260.36847128 439.16605533 267.0342776 457.18550854 273.75 475.1875 C274.5445767 477.3185805 275.33909227 479.4496838 276.13354492 481.58081055 C276.52143692 482.62131058 276.90932892 483.66181061 277.30897522 484.73384094 C278.08058884 486.8037299 278.8521853 488.87362526 279.62376404 490.94352722 C279.99945023 491.95135757 280.37513641 492.95918793 280.76220703 493.99755859 C281.13339661 494.99333923 281.50458618 495.98911987 281.88702393 497.01507568 C282.9890766 499.97070419 284.0919323 502.92603223 285.19482422 505.88134766 C286.88716652 510.41782088 288.57441202 514.95615832 290.25769043 519.4960022 C290.87173278 521.14963188 291.48750376 522.80262082 292.10510254 524.45492554 C292.94308069 526.69746868 293.77505271 528.94214778 294.60546875 531.1875 C294.8513121 531.84112015 295.09715546 532.4947403 295.35044861 533.16816711 C296.36998624 535.94288594 297 538.01388295 297 541 C263.34 541 229.68 541 195 541 C190.79608141 530.18992363 186.64766195 519.43401721 182.8125 508.5 C182.34766773 507.18184007 181.88255626 505.86377858 181.41719055 504.54580688 C180.44219714 501.78298701 179.46886099 499.01959209 178.49697876 496.25567627 C176.97778796 491.93550587 175.45457135 487.61676228 173.93041992 483.29833984 C173.67605384 482.57762236 173.42168776 481.85690487 173.15961361 481.11434746 C172.64693969 479.66178352 172.13425045 478.20922499 171.62154579 476.75667191 C170.85797134 474.59302877 170.09474544 472.42926294 169.33158875 470.26547241 C165.01967719 458.04204688 160.67642828 445.82995487 156.3125 433.625 C156.01093994 432.78098633 155.70937988 431.93697266 155.39868164 431.06738281 C154.55403893 428.70360021 153.70879176 426.34003482 152.86328125 423.9765625 C152.61023224 423.26856506 152.35718323 422.56056763 152.09646606 421.83111572 C150.31936626 416.86740767 148.5031609 411.91897078 146.65307617 406.98193359 C146 405 146 405 146 403 C81.98 403 17.96 403 -48 403 C-48.66 405.97 -49.32 408.94 -50 412 C-50.85499671 414.60091994 -51.73761742 417.14581345 -52.703125 419.703125 C-52.97330948 420.43427521 -53.24349396 421.16542542 -53.52186584 421.91873169 C-54.11350092 423.51840335 -54.70767728 425.11713691 -55.30410767 426.71502686 C-56.98486443 431.21942245 -58.64547803 435.73125529 -60.30859375 440.2421875 C-60.67345383 441.23042511 -61.0383139 442.21866272 -61.41423035 443.23684692 C-64.49142612 451.5847647 -67.5205777 459.94964087 -70.53515625 468.3203125 C-70.77313053 468.98102249 -71.01110481 469.64173248 -71.25629044 470.32246399 C-73.40550773 476.290595 -75.55234783 482.25958007 -77.69763184 488.22912598 C-78.60542197 490.75510771 -79.51387778 493.28084838 -80.42295837 495.80636597 C-81.24841141 498.09985391 -82.07290908 500.39368616 -82.89601135 502.6880188 C-87.50607443 515.49347965 -92.27236146 528.23537595 -97 541 C-130.66 541 -164.32 541 -199 541 C-197.87507821 534.25046924 -197.87507821 534.25046924 -196.6875 531.1015625 C-196.42140427 530.38767365 -196.15530853 529.67378479 -195.88114929 528.93826294 C-195.59037003 528.17488617 -195.29959076 527.4115094 -195 526.625 C-194.6929866 525.80546844 -194.38597321 524.98593689 -194.06965637 524.14157104 C-193.40255045 522.36267037 -192.73296584 520.5846977 -192.06118774 518.80755615 C-190.97686699 515.93879761 -189.89905859 513.06766721 -188.82299805 510.19580078 C-187.69013636 507.17245148 -186.55691687 504.14924243 -185.42179871 501.1267395 C-181.5150562 490.7231113 -177.66017894 480.30058621 -173.8125 469.875 C-173.11202192 467.97849983 -172.41150054 466.08201566 -171.7109375 464.18554688 C-165.51427931 447.40737508 -159.33334913 430.62340452 -153.15188599 413.83963013 C-145.13708534 392.07820886 -137.10381899 370.32366541 -129.06054688 348.57275391 C-126.96156988 342.89640632 -124.86348043 337.21973093 -122.765625 331.54296875 C-122.41419434 330.59200317 -122.06276367 329.6410376 -121.70068359 328.66125488 C-120.6337751 325.77417508 -119.56688408 322.88708882 -118.5 320 C-110.67474554 298.82412419 -110.67474554 298.82412419 -106.91516113 288.65731812 C-98.76237657 266.61017013 -90.62389431 244.55781094 -82.5 222.5 C-76.2146549 205.43516483 -69.92804444 188.37080727 -63.625 171.3125 C-63.29080048 170.40803131 -62.95660095 169.50356262 -62.61227417 168.57168579 C-58.23939619 156.73953851 -53.8553152 144.91156648 -49.46484375 133.0859375 C-48.97924102 131.77790396 -48.49364024 130.4698697 -48.00804138 129.16183472 C-47.51748753 127.84047409 -47.02693271 126.51911382 -46.53637695 125.19775391 C-46.29176066 124.53885351 -46.04714437 123.87995312 -45.79511547 123.20108604 C-44.55617286 119.86389708 -43.31714706 116.52673904 -42.07797241 113.18963623 C-37.03889813 99.61845385 -32.00701667 86.04481419 -27.0234375 72.453125 C-26.43395576 70.84568169 -26.43395576 70.84568169 -25.83256531 69.20576477 C-24.0388476 64.31243194 -22.24772668 59.41817276 -20.46118164 54.5222168 C-13.78873567 36.28884008 -6.8729154 18.16413354 0 0 Z M48 146 C47.28066479 147.94643646 46.56132973 149.89287297 45.84199524 151.83930969 C45.18695809 153.61176132 44.53191853 155.38421205 43.87687683 157.15666199 C41.9943597 162.25049826 40.111889 167.34435168 38.22949219 172.43823242 C34.42862469 182.72347392 30.6273091 193.00854895 26.82421875 203.29296875 C16.2966294 231.76395284 5.79378217 260.24402298 -4.69189453 288.73046875 C-6.43137173 293.45601413 -8.17215211 298.18107735 -9.91363525 302.90588379 C-10.97971997 305.79925171 -12.04450262 308.69309696 -13.10870361 311.5871582 C-13.79066368 313.44065126 -14.47416388 315.29357743 -15.15771484 317.14648438 C-15.54523926 318.20158203 -15.93276367 319.25667969 -16.33203125 320.34375 C-16.65921143 321.23255859 -16.9863916 322.12136719 -17.32348633 323.03710938 C-18.05430702 324.81153721 -18.05430702 324.81153721 -18 326 C26.22 326 70.44 326 116 326 C109.97315124 308.77696729 109.97315124 308.77696729 103.7578125 291.625 C103.28801318 290.34752398 102.8182993 289.07001654 102.34866333 287.79248047 C97.4591215 274.50042902 92.53056614 261.22278762 87.59813309 247.94660568 C85.34165098 241.87236987 83.08684664 235.79751091 80.83203125 229.72265625 C80.58336493 229.05276232 80.3346986 228.38286839 80.07849693 227.69267464 C76.71469457 218.63017135 73.35843702 209.56492349 70.01171875 200.49609375 C69.62792053 199.4562735 69.24412231 198.41645325 68.84869385 197.34512329 C67.09075804 192.58156962 65.33414606 187.81753383 63.57958984 183.05273438 C62.04709801 178.89382061 60.50669451 174.73791849 58.96026611 170.58416748 C58.28122801 168.75681132 57.60485137 166.92846514 56.93035889 165.09942627 C55.84464447 162.15869773 54.74947845 159.22164034 53.65234375 156.28515625 C53.31666885 155.37060165 52.98099396 154.45604706 52.63514709 153.51377869 C52.31976486 152.67528885 52.00438263 151.83679901 51.67944336 150.97290039 C51.40289413 150.22843155 51.12634491 149.48396271 50.84141541 148.7169342 C50.1210255 146.80786183 50.1210255 146.80786183 48 146 Z " fill="#000000" transform="translate(3657,134)"/>
<path d="M0 0 C31.35 0 62.7 0 95 0 C95.33 74.91 95.66 149.82 96 227 C106.81316142 212.34453215 106.81316142 212.34453215 117.453125 197.57421875 C120.38542733 193.45110426 123.34848276 189.35034806 126.3125 185.25 C126.86043213 184.49195068 127.40836426 183.73390137 127.97290039 182.95288086 C129.09072453 181.40666903 130.20864504 179.86052687 131.32666016 178.31445312 C134.05263139 174.54406981 136.77621534 170.77196306 139.5 167 C140.58332144 165.49999141 141.66665479 163.99999142 142.75 162.5 C143.28625 161.7575 143.8225 161.015 144.375 160.25 C227.25 45.5 227.25 45.5 228.87573242 43.24902344 C229.95667191 41.75231299 231.03756401 40.25556832 232.1184082 38.75878906 C234.8629754 34.95817363 237.60841966 31.15819702 240.35546875 27.359375 C240.91363281 26.58722656 241.47179688 25.81507813 242.046875 25.01953125 C243.08431604 23.58440448 244.12203985 22.14948206 245.16015625 20.71484375 C245.64742187 20.04066406 246.1346875 19.36648437 246.63671875 18.671875 C247.14975052 18.00751434 247.66278229 17.34315369 248.19136047 16.65866089 C250.13709867 13.96458799 250.13709867 13.96458799 251.5587616 10.52932739 C253.65878447 6.22655216 255.94660244 2.67416145 260 0 C268.67308268 -2.62473183 278.28477646 -1.6233414 287.2265625 -1.3671875 C289.90286328 -1.34105219 292.57863842 -1.32044728 295.25497437 -1.30715942 C301.56033231 -1.26381286 307.86225173 -1.14918158 314.16610181 -1.00826657 C321.34829642 -0.85123737 328.53066414 -0.77467542 335.71415067 -0.70453048 C350.47785134 -0.55858099 365.23886552 -0.31267987 380 0 C378.02734136 3.3280182 375.9882661 6.45206757 373.62890625 9.51953125 C372.97857422 10.36837891 372.32824219 11.21722656 371.65820312 12.09179688 C370.96662109 12.98962891 370.27503906 13.88746094 369.5625 14.8125 C368.10497819 16.71446792 366.64795067 18.61681473 365.19140625 20.51953125 C364.11656982 21.92259521 364.11656982 21.92259521 363.02001953 23.35400391 C360.32380972 26.88573244 357.65801172 30.43948551 355 34 C349.75842803 41.01358577 344.45132233 47.97609501 339.13720703 54.93481445 C334.51528306 60.99360883 329.93496076 67.08198134 325.375 73.1875 C320.63252362 79.53579921 315.82457216 85.82489084 310.9375 92.0625 C305.57238431 98.91089466 300.38290225 105.87133656 295.24975586 112.89477539 C290.69949488 119.10083107 285.99986141 125.17651593 281.25 131.23046875 C277.06571982 136.58223782 273.0083248 142.01548354 269 147.5 C263.75446061 154.67643989 258.37217564 161.72908042 252.89404297 168.72924805 C249.0430235 173.65120013 245.2604535 178.61666765 241.52734375 183.62890625 C238.11599384 188.19596716 234.64636495 192.71890303 231.1875 197.25 C225.81227314 204.29342226 220.46831444 211.3584594 215.16357422 218.45507812 C211.66956392 223.12333444 208.12767909 227.75239517 204.56347656 232.3671875 C201.9730052 235.72466994 199.41323623 239.10288988 196.875 242.5 C192.5110729 248.33685043 188.102597 254.13927694 183.6875 259.9375 C182.99317871 260.85015625 182.29885742 261.7628125 181.58349609 262.703125 C178.43239826 266.83822301 175.27780638 270.96383225 172 275 C173.37964261 277.94079548 174.97503924 280.48058368 176.90625 283.08984375 C177.47980225 283.86706787 178.05335449 284.64429199 178.64428711 285.44506836 C179.25667236 286.2675708 179.86905762 287.09007324 180.5 287.9375 C181.13365479 288.79287354 181.76730957 289.64824707 182.42016602 290.52954102 C186.66094649 296.23995739 190.96575723 301.89456497 195.32421875 307.515625 C198.68387484 311.86781875 201.96040353 316.28229035 205.25 320.6875 C210.79764156 328.11081624 216.43412605 335.45714194 222.14038086 342.7590332 C226.84229004 348.78013956 231.44252234 354.86859267 236 361 C242.0783308 369.14609941 248.22730042 377.23483902 254.40625 385.3046875 C263.53333896 397.2256798 272.64393048 409.15835768 281.63305664 421.18383789 C285.76112372 426.6993495 289.94623249 432.17005762 294.13867188 437.63671875 C297.85265716 442.48491512 301.53060016 447.35863155 305.1875 452.25 C309.46938595 457.97553666 313.79951051 463.66037146 318.16796875 469.3203125 C326.70363651 480.39310139 335.16467843 491.52453141 343.53515625 502.72265625 C346.97813165 507.31279222 350.46049458 511.87312997 353.9375 516.4375 C354.6284375 517.34540283 355.319375 518.25330566 356.03125 519.1887207 C359.08624546 523.19840225 362.14753726 527.20181246 365.25390625 531.171875 C365.72513916 531.77588135 366.19637207 532.3798877 366.68188477 533.00219727 C367.90890183 534.57102461 369.14172189 536.13530852 370.375 537.69921875 C372 540 372 540 372 542 C356.59737765 542.46893563 341.19529376 542.82070471 325.78719902 543.03624344 C318.63092204 543.13902931 311.47909873 543.27888354 304.32568359 543.50878906 C298.08415576 543.7092901 291.84585213 543.83741502 285.60119355 543.8817699 C282.2974639 543.90768455 279.00500987 543.97838453 275.70373154 544.11460114 C255.69610733 544.90685297 255.69610733 544.90685297 249.57083893 540.08955383 C245.28433856 535.41995615 242.27036554 530.20453111 239.40159988 524.58431244 C237.11920298 520.37595971 234.24959295 516.62899824 231.375 512.8125 C230.29811786 511.33266367 229.22356489 509.85112685 228.15234375 508.3671875 C227.62882324 507.64370117 227.10530273 506.92021484 226.56591797 506.17480469 C222.49320018 500.51846387 218.49320544 494.81023577 214.48388672 489.10888672 C211.99351226 485.56958851 209.49648152 482.03499187 207 478.5 C204.00845651 474.26400553 201.01821172 470.02713391 198.03515625 465.78515625 C192.90173107 458.49028889 187.73256995 451.22415173 182.5 444 C175.75669759 434.69011208 169.13165286 425.29947981 162.52050781 415.89550781 C161.03540872 413.78386724 159.54932091 411.67292857 158.0625 409.5625 C157.32265869 408.51219604 157.32265869 408.51219604 156.56787109 407.44067383 C152.94143204 402.30449279 149.2586479 397.2111475 145.5625 392.125 C141.05907629 385.92462426 136.67891669 379.65286363 132.375 373.3125 C128.11900643 367.04300649 123.76316675 360.87460838 119.24707031 354.7902832 C113.56218589 347.10619378 108.13148485 339.24183492 102.67822266 331.39257812 C100.47221056 328.2475507 98.23286923 325.12601693 96 322 C95.67 394.6 95.34 467.2 95 542 C63.65 542 32.3 542 0 542 C0 363.14 0 184.28 0 0 Z " fill="#000000" transform="translate(2186,129)"/>
<path d="M0 0 C33.99 0 67.98 0 103 0 C110.18065454 14.36130907 117.30251307 28.66575425 124.1875 43.15625 C127.21102352 49.47816282 130.35154291 55.73959904 133.5 62 C140.33725509 75.6029106 146.91059529 89.32321224 153.40234375 103.09375 C157.73966056 112.2913941 162.16647751 121.43092869 166.74511719 130.51074219 C169.44079368 135.85804132 172.12930608 141.20892726 174.8125 146.5625 C175.26515732 147.4655336 175.26515732 147.4655336 175.72695923 148.3868103 C180.33471978 157.58742254 184.82932907 166.83768961 189.24414062 176.13256836 C191.71275958 181.3255107 194.21961171 186.49304069 196.8125 191.625 C200.44985317 198.83865709 203.99682697 206.09619662 207.52352905 213.36444092 C208.17254644 214.70077131 208.82294967 216.03642956 209.47476196 217.37139893 C210.39328432 219.25356631 211.30666289 221.13814495 212.21875 223.0234375 C212.75435547 224.12606934 213.28996094 225.22870117 213.84179688 226.36474609 C215 229 215 229 215 231 C215.66 231 216.32 231 217 231 C217.33 229.84757813 217.66 228.69515625 218 227.5078125 C220.26397469 220.7291126 223.62449589 214.45486812 226.86328125 208.10452271 C228.79691601 204.31195519 230.70982255 200.50894317 232.625 196.70703125 C233.00446777 195.95491867 233.38393555 195.20280609 233.77490234 194.42790222 C238.67790063 184.6957516 243.35400369 174.85686691 248 165 C249.56178473 161.68716178 251.1238616 158.37446378 252.6875 155.0625 C253.05496338 154.28382568 253.42242676 153.50515137 253.80102539 152.70288086 C256.42611025 147.1603815 259.14647143 141.67156898 261.91088867 136.19750977 C264.6909981 130.67083568 267.3528903 125.09141055 270 119.5 C272.89621247 113.38389037 275.82318725 107.29004606 278.875 101.25 C282.84878027 93.38454236 286.64925947 85.437913 290.43701172 77.48144531 C293.09299568 71.91695599 295.79819832 66.38055559 298.56640625 60.87109375 C302.16380775 53.70950331 305.69550849 46.5166493 309.21484375 39.31640625 C310.03355453 37.64214066 310.03355453 37.64214066 310.86880493 35.93405151 C313.14151699 31.28539206 315.4134397 26.6363508 317.68286133 21.98608398 C319.35837284 18.5536338 321.03640481 15.12242568 322.71484375 11.69140625 C323.23143051 10.63119766 323.74801727 9.57098907 324.28025818 8.47865295 C324.75487991 7.5093132 325.22950165 6.53997345 325.71850586 5.54125977 C326.34516396 4.25796532 326.34516396 4.25796532 326.98448181 2.94874573 C328 1 328 1 329 0 C332.16612663 -0.09536242 335.31040628 -0.12550636 338.47680664 -0.11352539 C339.96932198 -0.11374443 339.96932198 -0.11374443 341.49198914 -0.1139679 C344.79806662 -0.11326831 348.10408854 -0.10547379 351.41015625 -0.09765625 C353.69559193 -0.09579223 355.98102801 -0.09436825 358.26646423 -0.09336853 C364.29498387 -0.08954207 370.32347959 -0.0797107 376.35198975 -0.06866455 C382.49832841 -0.05845317 388.64467093 -0.0538715 394.79101562 -0.04882812 C406.86068762 -0.03808854 418.93034182 -0.0210106 431 0 C429.61880075 4.25305632 428.04074185 8.15406347 426.0234375 12.1484375 C425.43933105 13.31028564 424.85522461 14.47213379 424.25341797 15.66918945 C423.62737934 16.90451067 423.00123793 18.13977981 422.375 19.375 C421.73155535 20.65109516 421.0884911 21.92738219 420.44580078 23.20385742 C419.18823019 25.70073563 417.92880273 28.1966628 416.66796875 30.69189453 C415.04516802 33.91041763 413.43796729 37.13611739 411.8396101 40.36681557 C409.00730695 46.07976441 406.09485091 51.74418769 403.12712574 57.38770103 C395.74728391 71.43386195 388.63585669 85.61063461 381.56005311 99.81143141 C379.88446361 103.1728254 378.20611537 106.53284141 376.52799988 109.89297485 C372.28707475 118.38577376 368.04959554 126.88029001 363.8125 135.375 C359.22301735 144.57615101 354.632869 153.77696689 350.03879565 162.97582686 C348.38025217 166.29702489 346.72254542 169.61863457 345.06693459 172.94129562 C332.70923913 197.7413679 332.70923913 197.7413679 327.04006767 208.25908947 C325.32127367 211.4563566 323.66408447 214.66308144 322.11737061 217.94752502 C318.66029514 225.25737925 314.85470417 231.92174257 310.15063477 238.5090332 C262.69007399 305.02307236 256.95487184 366.16522825 258.125 446.25 C258.14990942 448.00125647 258.14990942 448.00125647 258.17532206 449.78789186 C258.29498126 457.95200326 258.44201339 466.11534034 258.61157227 474.27856445 C258.63282036 475.30569247 258.65406845 476.33282048 258.67596042 477.39107358 C259.13641546 498.60927942 260.12273271 519.79053303 261 541 C231.3 541 201.6 541 171 541 C171.64710938 527.85671875 172.29421875 514.7134375 172.9609375 501.171875 C173.27791366 492.59611021 173.582049 484.02565169 173.79516602 475.44750977 C173.82243873 474.35409433 173.84971144 473.26067888 173.8778106 472.13412964 C174.07445971 464.00659065 174.23480422 455.87869599 174.375 447.75 C174.40547369 446.02648512 174.40547369 446.02648512 174.43656301 444.26815176 C175.54004515 379.05916893 172.20962508 323.06626601 139.5625 265.5625 C139.02204497 264.60741326 139.02204497 264.60741326 138.47067165 263.63303185 C130.52004259 249.61596227 122.03766144 236.01684823 113.00625515 222.66679859 C107.28798261 214.12594681 102.56215276 205.19627648 98 196 C97.06963229 194.13783372 96.13787993 192.27636329 95.20615691 190.41487479 C91.31003343 182.62957983 87.42202966 174.84021665 83.53253365 167.05160904 C76.12617857 152.22073821 68.71715596 137.39120081 61.30701637 122.56222057 C57.03822325 114.01948193 52.77018857 105.47636591 48.50390625 96.93237305 C44.75577385 89.42607434 41.0061881 81.92050365 37.25492799 74.41576749 C35.27960846 70.46383907 33.30496377 66.51157709 31.33208084 62.55843163 C29.12669515 58.13968443 26.91927955 53.72195779 24.70947266 49.30541992 C24.36379344 48.61448097 24.01811423 47.92354201 23.66195989 47.21166551 C19.32207316 38.54455257 14.94409225 29.90042214 10.32126808 21.37966442 C6.55383316 14.37284777 3.38799889 7.25999761 0 0 Z " fill="#000000" transform="translate(1256,134)"/>
<path d="M0 0 C20.99077162 -5.78661203 47.30842993 -9.23095152 67.45014983 1.27841759 C94.97809416 17.6750373 117.31922507 44.41509591 139.21475482 67.41344781 C146.38328491 74.94303718 153.62546796 82.39272714 160.94381523 89.77679443 C161.43288661 90.27033389 161.92195799 90.76387334 162.42584971 91.27236854 C164.9110618 93.7795795 167.39748288 96.28558784 169.88437074 98.7911365 C187.39026918 116.43271698 204.7414206 134.21933538 222.00317383 152.09960938 C238.74803267 169.44375213 255.56155558 186.71655107 272.47094727 203.90039062 C272.99428197 204.43227453 273.51761667 204.96415843 274.05681 205.51216003 C279.31356239 210.85463366 284.57172292 216.1957195 289.83091527 221.53579115 C300.53960248 232.40922759 311.23888795 243.29189413 321.93247986 254.18017578 C322.42391007 254.68052984 322.91534028 255.18088389 323.42166231 255.6964002 C356.1062089 288.97661431 388.57023472 322.47165942 421 356 C419.3626798 360.08107626 416.45444803 362.89767222 413.43536186 365.98950577 C412.85792081 366.58842868 412.28047976 367.1873516 411.6855405 367.80442369 C409.73739499 369.82236177 407.78222942 371.83334865 405.82687378 373.84429932 C404.41849522 375.29935703 403.01046115 376.75474826 401.60274327 378.21044517 C397.72254381 382.21970517 393.83553328 386.22230137 389.94691539 390.22339487 C387.4603055 392.78283211 384.975509 395.34401701 382.4912529 397.90573883 C362.01217709 419.02118857 341.46259184 440.06670699 320.84744263 461.04925537 C320.36019958 461.54518516 319.87295653 462.04111494 319.37094854 462.5520729 C308.26369675 473.85655326 297.14684775 485.15154281 286.02056699 496.43729361 C281.33735781 501.18794512 276.65548537 505.93991337 271.97412109 510.69238281 C271.19824568 511.47996244 271.19824568 511.47996244 270.40669602 512.28345276 C253.70262897 529.24102279 237.10876824 546.30157903 220.57092134 563.42116695 C203.53551305 581.05469428 186.39459128 598.57875542 169.11726801 615.97547537 C166.66458992 618.44518863 164.21310294 620.91608105 161.76233292 623.38768768 C161.03894157 624.11711213 161.03894157 624.11711213 160.30093626 624.86127243 C153.55985483 631.66391385 146.8972698 638.5357672 140.29033272 645.46867094 C73.15550343 715.9151138 73.15550343 715.9151138 40.71231767 717.15758236 C27.93828309 717.32476208 15.297568 715.40127865 3 712 C6.87042643 707.37237113 10.88212455 702.97406489 15.15751457 698.7194376 C15.75030331 698.12549502 16.34309204 697.53155244 16.95384407 696.9196116 C18.93186591 694.93895237 20.91342046 692.96186688 22.89498901 690.98475647 C24.3316865 689.54762269 25.76816413 688.11026909 27.20444119 686.67271513 C31.14498726 682.72993546 35.08864054 678.7902766 39.03281116 674.85112321 C43.28813485 670.60012012 47.54056604 666.34622527 51.79335022 662.09268188 C59.15972107 654.72578682 66.52790278 647.36070625 73.89736557 639.99690437 C81.62486865 632.275322 89.35133348 624.55270315 97.07641983 616.82870293 C97.55706973 616.34812177 98.03771962 615.86754062 98.53293466 615.3723964 C100.97399119 612.93167821 103.41502923 610.49094155 105.85606016 608.05019777 C123.13771705 590.77064027 140.42169036 573.49340149 157.70703125 556.2175293 C174.49759476 539.43615283 191.2871056 522.65372432 208.07519531 505.86987305 C208.59284356 505.35235633 209.1104918 504.83483961 209.64382636 504.30164057 C214.84234787 499.10443759 220.04084802 493.90721326 225.23933252 488.70997326 C235.828875 478.12296688 246.41856003 467.53610309 257.0083313 456.94932556 C257.49521222 456.46258193 257.98209313 455.97583831 258.48372802 455.47434487 C290.98676357 422.98050716 323.49313237 390.49000405 356 358 C352.11630865 353.35501903 348.08748936 348.94432805 343.79563332 344.6753788 C343.19777946 344.0766707 342.59992561 343.47796259 341.98395497 342.86111182 C339.98870764 340.86422583 337.98991881 338.87092399 335.99111938 336.87759399 C334.54204567 335.42880043 333.09319369 333.97978507 331.64454401 332.53056753 C327.6697888 328.55551713 323.69192881 324.58358649 319.71355987 320.61215329 C315.42141042 316.32638237 311.13216748 312.03770436 306.84259033 307.74935913 C299.41230956 300.32196389 291.98026522 292.89633674 284.54704666 285.47188187 C273.79935826 274.73680426 263.05495795 263.99844024 252.31143026 253.25919883 C247.30542488 248.25519948 242.29925883 243.25136088 237.29305077 238.24756432 C236.79195655 237.74671111 236.29086232 237.2458579 235.77458343 236.72982732 C223.85460275 224.81565461 211.93304798 212.90305732 200.01123047 200.99072266 C199.48973284 200.46963868 198.96823522 199.9485547 198.43093464 199.41168029 C190.49568306 191.48272684 182.56034953 183.55385541 174.625 175.625 C166.15213274 167.15906521 157.67929841 158.69309748 149.20654297 150.22705078 C148.68441256 149.70533496 148.16228214 149.18361914 147.6243296 148.64609374 C135.71084907 136.74205594 123.79781568 124.83757113 111.88619041 112.93167686 C111.38606108 112.43178853 110.88593175 111.93190019 110.37064699 111.41686372 C105.37894424 106.42754581 100.38731989 101.43814946 95.39581281 96.44863579 C84.66077481 85.71791982 73.92435552 74.98859105 63.18516248 64.2620333 C55.36287833 56.44891131 47.54232539 48.63405942 39.72349389 40.81748207 C35.4838266 36.57916565 31.24331614 32.34170125 27.00064468 28.10639191 C23.12397324 24.2364225 19.24956278 20.36420499 15.37700634 16.49011795 C13.96892124 15.08230639 12.55997226 13.6753583 11.15011604 12.26932044 C9.24755853 10.37168065 7.3480424 8.47105008 5.44931984 6.56957436 C4.88951402 6.0126814 4.3297082 5.45578844 3.75293857 4.88201994 C0 1.1141414 0 1.1141414 0 0 Z " fill="#DE0715" transform="translate(275,45)"/>
<path d="M0 0 C8.22349029 -0.16257911 16.44630336 -0.28676154 24.6710062 -0.3626852 C28.49064168 -0.39913561 32.30917352 -0.4485286 36.12817383 -0.52807617 C39.81762885 -0.6044397 43.50602625 -0.64605187 47.19621086 -0.6641407 C48.6000934 -0.67702149 50.00392148 -0.70217677 51.40735054 -0.7401104 C62.35473578 -1.02409562 62.35473578 -1.02409562 66.18307495 1.3588562 C67.91772461 3.10522461 67.91772461 3.10522461 69.34038925 4.96250439 C70.97586661 6.97037156 72.64887119 8.52733569 74.63021851 10.18809509 C79.3052162 14.21057048 83.64929602 18.51611549 87.9987793 22.88525391 C88.85998383 23.74631241 89.72118835 24.60737091 90.60848999 25.49452209 C92.94687226 27.83347753 95.2830272 30.17461496 97.6181829 32.51678896 C100.0737033 34.97861276 102.53210592 37.43755512 104.9901886 39.89682007 C109.63963657 44.54936455 114.28653323 49.20444846 118.93249398 53.86047494 C124.2056506 59.14481001 129.48164506 64.42630778 134.75788629 69.70756269 C143.78036506 78.73870985 152.80073688 87.77195585 161.81871033 96.80760193 C168.96115963 103.97412928 168.96115963 103.97412928 176.13793945 111.10620117 C179.20999316 114.14285473 182.27609602 117.1854379 185.34008789 120.23022461 C186.66222634 121.54221668 187.98614091 122.85242117 189.31176758 124.16088867 C191.22944426 126.05443769 193.14070408 127.95425812 195.05078125 129.85546875 C195.6475618 130.44192673 196.24434235 131.0283847 196.85920715 131.63261414 C198.27793655 133.05094989 199.64458583 134.52104029 201 136 C201 136.66 201 137.32 201 138 C201.66 138 202.32 138 203 138 C203 138.66 203 139.32 203 140 C203.58338135 140.25740967 204.1667627 140.51481934 204.76782227 140.7800293 C207.19272655 142.10533245 208.78039329 143.55227211 210.71484375 145.51953125 C211.74448242 146.55883789 211.74448242 146.55883789 212.79492188 147.61914062 C213.50197266 148.34294922 214.20902344 149.06675781 214.9375 149.8125 C215.64068359 150.52470703 216.34386719 151.23691406 217.06835938 151.97070312 C218.39027054 153.30995896 219.7101058 154.65126958 221.02709961 155.99536133 C223.33819511 158.34363569 225.66830594 160.67217526 228 163 C228.98902624 163.98883834 229.97795386 164.97777531 230.96679688 165.96679688 C231.49084106 166.49084106 232.01488525 167.01488525 232.55480957 167.55480957 C295.36987305 230.36987305 358.18493652 293.18493652 421 356 C419.3626798 360.08107626 416.45444803 362.89767222 413.43536186 365.98950577 C412.85792081 366.58842868 412.28047976 367.1873516 411.6855405 367.80442369 C409.73739499 369.82236177 407.78222942 371.83334865 405.82687378 373.84429932 C404.41849522 375.29935703 403.01046115 376.75474826 401.60274327 378.21044517 C397.72254381 382.21970517 393.83553328 386.22230137 389.94691539 390.22339487 C387.4603055 392.78283211 384.975509 395.34401701 382.4912529 397.90573883 C362.01217709 419.02118857 341.46259184 440.06670699 320.84744263 461.04925537 C320.36019958 461.54518516 319.87295653 462.04111494 319.37094854 462.5520729 C308.26369675 473.85655326 297.14684775 485.15154281 286.02056699 496.43729361 C281.33735781 501.18794512 276.65548537 505.93991337 271.97412109 510.69238281 C271.19824568 511.47996244 271.19824568 511.47996244 270.40669602 512.28345276 C253.70262897 529.24102279 237.10876824 546.30157903 220.57092134 563.42116695 C203.53551305 581.05469428 186.39459128 598.57875542 169.11726801 615.97547537 C166.66458992 618.44518863 164.21310294 620.91608105 161.76233292 623.38768768 C161.03894157 624.11711213 161.03894157 624.11711213 160.30093626 624.86127243 C153.55985483 631.66391385 146.8972698 638.5357672 140.29033272 645.46867094 C73.15550343 715.9151138 73.15550343 715.9151138 40.71231767 717.15758236 C27.93828309 717.32476208 15.297568 715.40127865 3 712 C6.87042643 707.37237113 10.88212455 702.97406489 15.15751457 698.7194376 C15.75030331 698.12549502 16.34309204 697.53155244 16.95384407 696.9196116 C18.93186591 694.93895237 20.91342046 692.96186688 22.89498901 690.98475647 C24.3316865 689.54762269 25.76816413 688.11026909 27.20444119 686.67271513 C31.14498726 682.72993546 35.08864054 678.7902766 39.03281116 674.85112321 C43.28813485 670.60012012 47.54056604 666.34622527 51.79335022 662.09268188 C59.15972107 654.72578682 66.52790278 647.36070625 73.89736557 639.99690437 C81.62486865 632.275322 89.35133348 624.55270315 97.07641983 616.82870293 C97.55706973 616.34812177 98.03771962 615.86754062 98.53293466 615.3723964 C100.97399119 612.93167821 103.41502923 610.49094155 105.85606016 608.05019777 C123.13771705 590.77064027 140.42169036 573.49340149 157.70703125 556.2175293 C174.49759476 539.43615283 191.2871056 522.65372432 208.07519531 505.86987305 C208.59284356 505.35235633 209.1104918 504.83483961 209.64382636 504.30164057 C214.84234787 499.10443759 220.04084802 493.90721326 225.23933252 488.70997326 C235.828875 478.12296688 246.41856003 467.53610309 257.0083313 456.94932556 C257.49521222 456.46258193 257.98209313 455.97583831 258.48372802 455.47434487 C290.98676357 422.98050716 323.49313237 390.49000405 356 358 C352.11630865 353.35501903 348.08748936 348.94432805 343.79563332 344.6753788 C343.19777946 344.0766707 342.59992561 343.47796259 341.98395497 342.86111182 C339.98870764 340.86422583 337.98991881 338.87092399 335.99111938 336.87759399 C334.54204567 335.42880043 333.09319369 333.97978507 331.64454401 332.53056753 C327.6697888 328.55551713 323.69192881 324.58358649 319.71355987 320.61215329 C315.42141042 316.32638237 311.13216748 312.03770436 306.84259033 307.74935913 C299.41230956 300.32196389 291.98026522 292.89633674 284.54704666 285.47188187 C273.79935826 274.73680426 263.05495795 263.99844024 252.31143026 253.25919883 C247.30542488 248.25519948 242.29925883 243.25136088 237.29305077 238.24756432 C236.79195655 237.74671111 236.29086232 237.2458579 235.77458343 236.72982732 C223.85460275 224.81565461 211.93304798 212.90305732 200.01123047 200.99072266 C199.48973284 200.46963868 198.96823522 199.9485547 198.43093464 199.41168029 C190.49568306 191.48272684 182.56034953 183.55385541 174.625 175.625 C166.15213274 167.15906521 157.67929841 158.69309748 149.20654297 150.22705078 C148.68441256 149.70533496 148.16228214 149.18361914 147.6243296 148.64609374 C135.71084907 136.74205594 123.79781568 124.83757113 111.88619041 112.93167686 C111.38606108 112.43178853 110.88593175 111.93190019 110.37064699 111.41686372 C105.37894424 106.42754581 100.38731989 101.43814946 95.39581281 96.44863579 C84.66077481 85.71791982 73.92435552 74.98859105 63.18516248 64.2620333 C55.36287833 56.44891131 47.54232539 48.63405942 39.72349389 40.81748207 C35.4838266 36.57916565 31.24331614 32.34170125 27.00064468 28.10639191 C23.12397324 24.2364225 19.24956278 20.36420499 15.37700634 16.49011795 C13.96892124 15.08230639 12.55997226 13.6753583 11.15011604 12.26932044 C9.24755853 10.37168065 7.3480424 8.47105008 5.44931984 6.56957436 C4.88951402 6.0126814 4.3297082 5.45578844 3.75293857 4.88201994 C0 1.1141414 0 1.1141414 0 0 Z " fill="#DE0716" transform="translate(55,45)"/>
<path d="M0 0 C8.20621927 -0.16269716 16.41175705 -0.28682088 24.61919403 -0.3626852 C28.4309565 -0.39911014 32.24161006 -0.44845573 36.05273438 -0.52807617 C39.73571039 -0.60453167 43.41762487 -0.64607096 47.10133362 -0.6641407 C48.50159914 -0.67700517 49.90181109 -0.70212794 51.30162048 -0.7401104 C53.27276179 -0.79143381 55.24498768 -0.79386372 57.21679688 -0.79467773 C58.89557922 -0.81799416 58.89557922 -0.81799416 60.60827637 -0.84178162 C65.64314967 0.40780834 68.37518877 3.40865423 72 7 C72.73617994 7.7134599 73.47235989 8.4269198 74.23084831 9.1619997 C76.72121355 11.59770419 79.18331264 14.05952384 81.64135742 16.52783203 C82.57083694 17.45716553 83.50031647 18.38649902 84.45796204 19.34399414 C86.98477982 21.87052726 89.50852083 24.40011298 92.03168654 26.93029261 C94.68340035 29.58830415 97.3379909 32.24343965 99.99226379 34.89889526 C105.01357853 39.92330787 110.03234201 44.95026074 115.05017215 49.97815311 C120.74653807 55.68569579 126.44574055 61.39040242 132.14518964 67.09486604 C141.89048994 76.84883622 151.63367309 86.60491646 161.3744812 96.3633728 C168.73868686 103.75237463 168.73868686 103.75237463 176.13793945 111.10620117 C179.20999316 114.14285473 182.27609602 117.1854379 185.34008789 120.23022461 C186.66222634 121.54221668 187.98614091 122.85242117 189.31176758 124.16088867 C191.22944426 126.05443769 193.14070408 127.95425812 195.05078125 129.85546875 C195.6475618 130.44192673 196.24434235 131.0283847 196.85920715 131.63261414 C198.27793655 133.05094989 199.64458583 134.52104029 201 136 C201 136.66 201 137.32 201 138 C201.66 138 202.32 138 203 138 C203 138.66 203 139.32 203 140 C203.58338135 140.25740967 204.1667627 140.51481934 204.76782227 140.7800293 C207.19272655 142.10533245 208.78039329 143.55227211 210.71484375 145.51953125 C211.74448242 146.55883789 211.74448242 146.55883789 212.79492188 147.61914062 C213.50197266 148.34294922 214.20902344 149.06675781 214.9375 149.8125 C215.64068359 150.52470703 216.34386719 151.23691406 217.06835938 151.97070312 C218.39027054 153.30995896 219.7101058 154.65126958 221.02709961 155.99536133 C223.33819511 158.34363569 225.66830594 160.67217526 228 163 C228.98902624 163.98883834 229.97795386 164.97777531 230.96679688 165.96679688 C231.49084106 166.49084106 232.01488525 167.01488525 232.55480957 167.55480957 C278 213 278 213 280.35229492 215.35668945 C282.83958994 217.83985618 285.33594429 220.31344763 287.83552551 222.78422546 C290.34067096 225.26257929 292.8404815 227.7462858 295.34008789 230.23022461 C296.66222634 231.54221668 297.98614091 232.85242117 299.31176758 234.16088867 C301.22944426 236.05443769 303.14070408 237.95425812 305.05078125 239.85546875 C305.6475618 240.44192673 306.24434235 241.0283847 306.85920715 241.63261414 C308.27793655 243.05094989 309.64458583 244.52104029 311 246 C311 246.66 311 247.32 311 248 C311.57435791 248.24838623 312.14871582 248.49677246 312.74047852 248.75268555 C315.33942136 250.18736939 317.06959671 251.84318058 319.15234375 253.95703125 C320.31733398 255.13168945 320.31733398 255.13168945 321.50585938 256.33007812 C322.30830078 257.14927734 323.11074219 257.96847656 323.9375 258.8125 C324.73607422 259.62009766 325.53464844 260.42769531 326.35742188 261.25976562 C327.85509877 262.77481408 329.35070465 264.2919148 330.84350586 265.81176758 C333.21693271 268.22012543 335.60704834 270.61103992 338 273 C339.01962568 274.01943681 340.03915135 275.03897366 341.05859375 276.05859375 C341.60265869 276.60265869 342.14672363 277.14672363 342.70727539 277.70727539 C349.45198568 284.45198568 356.19669596 291.19669596 362.94140625 297.94140625 C363.7208107 298.72074272 363.7208107 298.72074272 364.51596069 299.51582336 C365.89589415 300.89588452 367.27535882 302.27641438 368.65478516 303.65698242 C370.75166192 305.75189459 372.85462348 307.84036635 374.9609375 309.92578125 C376.43234884 311.3879633 377.9037016 312.8502043 379.375 314.3125 C380.10460937 315.03373047 380.83421875 315.75496094 381.5859375 316.49804688 C384.91053606 319.80780348 388.15798149 323.12601278 391.19921875 326.69921875 C396.59143481 332.96306813 402.57609396 338.68070518 408.4375 344.5 C409.6584369 345.71591114 410.87914192 346.93205516 412.09960938 348.1484375 C415.06374013 351.10164966 418.03098958 354.05169398 421 357 C417.14571098 361.58242206 413.17641618 366.00076126 409.00564003 370.29617977 C408.4303371 370.89181072 407.85503416 371.48744168 407.26229781 372.10112205 C405.34282731 374.08715315 403.42036831 376.07026142 401.49771118 378.0532074 C400.10262171 379.49458935 398.707628 380.93606401 397.31272161 382.37762314 C393.48462729 386.33201981 389.65325082 390.28322141 385.82082486 394.23341978 C383.36818734 396.76160911 380.91626022 399.29048585 378.46442795 401.8194561 C358.24565399 422.67038857 337.9694966 443.46396716 317.61801147 464.18531799 C316.89605207 464.92041919 316.89605207 464.92041919 316.15950763 465.67037091 C305.7030756 476.31653247 295.23913327 486.95528003 284.76644657 497.58545193 C279.63679285 502.79227288 274.5086614 508.00059166 269.38134766 513.2097168 C268.8712083 513.72794185 268.36106894 514.2461669 267.83547081 514.78009575 C251.35342215 531.52489015 234.98033114 548.37146833 218.66191442 565.27564078 C201.84370381 582.69641333 184.91980925 600.00755883 167.85984437 617.191807 C165.43813738 619.63124868 163.01763075 622.07187815 160.5978508 624.51323128 C160.12170851 624.99354214 159.64556621 625.47385301 159.15499537 625.96871875 C152.03299022 633.15882659 145.00937117 640.43588966 138.03151321 647.76577568 C73.11066828 715.86834876 73.11066828 715.86834876 40.78066612 717.09164144 C27.98965895 717.2570919 15.32813548 715.35397825 3 712 C6.87042643 707.37237113 10.88212455 702.97406489 15.15751457 698.7194376 C15.75030331 698.12549502 16.34309204 697.53155244 16.95384407 696.9196116 C18.93186591 694.93895237 20.91342046 692.96186688 22.89498901 690.98475647 C24.3316865 689.54762269 25.76816413 688.11026909 27.20444119 686.67271513 C31.14498726 682.72993546 35.08864054 678.7902766 39.03281116 674.85112321 C43.28813485 670.60012012 47.54056604 666.34622527 51.79335022 662.09268188 C59.15972107 654.72578682 66.52790278 647.36070625 73.89736557 639.99690437 C81.62486865 632.275322 89.35133348 624.55270315 97.07641983 616.82870293 C97.55706973 616.34812177 98.03771962 615.86754062 98.53293466 615.3723964 C100.97399119 612.93167821 103.41502923 610.49094155 105.85606016 608.05019777 C123.13771705 590.77064027 140.42169036 573.49340149 157.70703125 556.2175293 C174.49759476 539.43615283 191.2871056 522.65372432 208.07519531 505.86987305 C208.59284356 505.35235633 209.1104918 504.83483961 209.64382636 504.30164057 C214.84234787 499.10443759 220.04084802 493.90721326 225.23933252 488.70997326 C235.828875 478.12296688 246.41856003 467.53610309 257.0083313 456.94932556 C257.49521222 456.46258193 257.98209313 455.97583831 258.48372802 455.47434487 C290.98676357 422.98050716 323.49313237 390.49000405 356 358 C352.11630865 353.35501903 348.08748936 348.94432805 343.79563332 344.6753788 C343.19777946 344.0766707 342.59992561 343.47796259 341.98395497 342.86111182 C339.98870764 340.86422583 337.98991881 338.87092399 335.99111938 336.87759399 C334.54204567 335.42880043 333.09319369 333.97978507 331.64454401 332.53056753 C327.6697888 328.55551713 323.69192881 324.58358649 319.71355987 320.61215329 C315.42141042 316.32638237 311.13216748 312.03770436 306.84259033 307.74935913 C299.41230956 300.32196389 291.98026522 292.89633674 284.54704666 285.47188187 C273.79935826 274.73680426 263.05495795 263.99844024 252.31143026 253.25919883 C247.30542488 248.25519948 242.29925883 243.25136088 237.29305077 238.24756432 C236.79195655 237.74671111 236.29086232 237.2458579 235.77458343 236.72982732 C223.85460275 224.81565461 211.93304798 212.90305732 200.01123047 200.99072266 C199.48973284 200.46963868 198.96823522 199.9485547 198.43093464 199.41168029 C190.49568306 191.48272684 182.56034953 183.55385541 174.625 175.625 C166.15213274 167.15906521 157.67929841 158.69309748 149.20654297 150.22705078 C148.68441256 149.70533496 148.16228214 149.18361914 147.6243296 148.64609374 C135.71084907 136.74205594 123.79781568 124.83757113 111.88619041 112.93167686 C111.38606108 112.43178853 110.88593175 111.93190019 110.37064699 111.41686372 C105.37894424 106.42754581 100.38731989 101.43814946 95.39581281 96.44863579 C84.66077481 85.71791982 73.92435552 74.98859105 63.18516248 64.2620333 C55.36287833 56.44891131 47.54232539 48.63405942 39.72349389 40.81748207 C35.4838266 36.57916565 31.24331614 32.34170125 27.00064468 28.10639191 C23.12397324 24.2364225 19.24956278 20.36420499 15.37700634 16.49011795 C13.96892124 15.08230639 12.55997226 13.6753583 11.15011604 12.26932044 C9.24755853 10.37168065 7.3480424 8.47105008 5.44931984 6.56957436 C4.88951402 6.0126814 4.3297082 5.45578844 3.75293857 4.88201994 C0 1.1141414 0 1.1141414 0 0 Z " fill="#DE0715" transform="translate(385,45)"/>
<path d="M0 0 C51.49015885 -8.85829781 51.49015885 -8.85829781 70.12689877 3.64117527 C85.82515715 15.13588099 98.80408716 30.69581334 110.96415138 45.75786781 C114.68801593 50.36804524 118.39181425 54.48300886 122.95547485 58.26042175 C127.21423966 61.88397934 131.07183983 65.95116988 135.01171875 69.9140625 C135.94297073 70.84672943 136.87422272 71.77939636 137.83369446 72.74032593 C140.28837675 75.19878949 142.74004306 77.66023852 145.19104004 80.12237549 C147.68087423 82.62246636 150.17355917 85.11971135 152.66601562 87.6171875 C156.31623559 91.27532407 159.96493838 94.93496611 163.61206055 98.59619141 C168.33871427 103.34038089 173.07273254 108.07631551 177.83552551 112.78422546 C180.34067096 115.26257929 182.8404815 117.7462858 185.34008789 120.23022461 C186.66222634 121.54221668 187.98614091 122.85242117 189.31176758 124.16088867 C191.22944426 126.05443769 193.14070408 127.95425812 195.05078125 129.85546875 C195.6475618 130.44192673 196.24434235 131.0283847 196.85920715 131.63261414 C198.27793655 133.05094989 199.64458583 134.52104029 201 136 C201 136.66 201 137.32 201 138 C201.66 138 202.32 138 203 138 C203 138.66 203 139.32 203 140 C203.58091738 140.25599311 204.16183477 140.51198622 204.76035571 140.77573669 C207.22205605 142.12138315 208.85321932 143.60480389 210.83430862 145.58821297 C211.58771947 146.33764172 212.34113032 147.08707047 213.1173718 147.85920918 C213.93838337 148.68604643 214.75939494 149.51288368 215.60528564 150.36477661 C216.48258355 151.24036567 217.35988145 152.11595472 218.26376414 153.01807678 C220.69831645 155.44990188 223.12829483 157.88614048 225.55646229 160.32433105 C228.17584136 162.95233929 230.80098972 165.57457319 233.42544556 168.19750977 C237.97185613 172.74287116 242.5145877 177.29188287 247.05484772 181.8433876 C253.61932206 188.42410938 260.18930578 194.9993079 266.76065144 201.57316731 C277.42182391 212.23871807 288.07852151 222.90872841 298.73242188 233.58154297 C309.0822933 243.94976972 319.43426121 254.31589584 329.7890625 264.67919922 C330.42722866 265.31789083 331.06539482 265.95658243 331.72289935 266.61462833 C334.92437365 269.81871269 338.12588929 273.02275575 341.32742548 276.22677827 C367.89136192 302.81145138 394.44804341 329.40336205 421 356 C419.3626798 360.08107626 416.45444803 362.89767222 413.43536186 365.98950577 C412.85792081 366.58842868 412.28047976 367.1873516 411.6855405 367.80442369 C409.73739499 369.82236177 407.78222942 371.83334865 405.82687378 373.84429932 C404.41849522 375.29935703 403.01046115 376.75474826 401.60274327 378.21044517 C397.72254381 382.21970517 393.83553328 386.22230137 389.94691539 390.22339487 C387.4603055 392.78283211 384.975509 395.34401701 382.4912529 397.90573883 C362.01217709 419.02118857 341.46259184 440.06670699 320.84744263 461.04925537 C320.36019958 461.54518516 319.87295653 462.04111494 319.37094854 462.5520729 C308.26369675 473.85655326 297.14684775 485.15154281 286.02056699 496.43729361 C281.33735781 501.18794512 276.65548537 505.93991337 271.97412109 510.69238281 C271.19824568 511.47996244 271.19824568 511.47996244 270.40669602 512.28345276 C253.70262897 529.24102279 237.10876824 546.30157903 220.57092134 563.42116695 C203.53551305 581.05469428 186.39459128 598.57875542 169.11726801 615.97547537 C166.66458992 618.44518863 164.21310294 620.91608105 161.76233292 623.38768768 C161.03894157 624.11711213 161.03894157 624.11711213 160.30093626 624.86127243 C153.55985483 631.66391385 146.8972698 638.5357672 140.29033272 645.46867094 C73.15550343 715.9151138 73.15550343 715.9151138 40.71231767 717.15758236 C27.93828309 717.32476208 15.297568 715.40127865 3 712 C6.87042643 707.37237113 10.88212455 702.97406489 15.15751457 698.7194376 C15.75030331 698.12549502 16.34309204 697.53155244 16.95384407 696.9196116 C18.93186591 694.93895237 20.91342046 692.96186688 22.89498901 690.98475647 C24.3316865 689.54762269 25.76816413 688.11026909 27.20444119 686.67271513 C31.14498726 682.72993546 35.08864054 678.7902766 39.03281116 674.85112321 C43.28813485 670.60012012 47.54056604 666.34622527 51.79335022 662.09268188 C59.15972107 654.72578682 66.52790278 647.36070625 73.89736557 639.99690437 C81.62486865 632.275322 89.35133348 624.55270315 97.07641983 616.82870293 C97.55706973 616.34812177 98.03771962 615.86754062 98.53293466 615.3723964 C100.97399119 612.93167821 103.41502923 610.49094155 105.85606016 608.05019777 C123.13771705 590.77064027 140.42169036 573.49340149 157.70703125 556.2175293 C174.49759476 539.43615283 191.2871056 522.65372432 208.07519531 505.86987305 C208.59284356 505.35235633 209.1104918 504.83483961 209.64382636 504.30164057 C214.84234787 499.10443759 220.04084802 493.90721326 225.23933252 488.70997326 C235.828875 478.12296688 246.41856003 467.53610309 257.0083313 456.94932556 C257.49521222 456.46258193 257.98209313 455.97583831 258.48372802 455.47434487 C290.98676357 422.98050716 323.49313237 390.49000405 356 358 C352.11630865 353.35501903 348.08748936 348.94432805 343.79563332 344.6753788 C343.19777946 344.0766707 342.59992561 343.47796259 341.98395497 342.86111182 C339.98870764 340.86422583 337.98991881 338.87092399 335.99111938 336.87759399 C334.54204567 335.42880043 333.09319369 333.97978507 331.64454401 332.53056753 C327.6697888 328.55551713 323.69192881 324.58358649 319.71355987 320.61215329 C315.42141042 316.32638237 311.13216748 312.03770436 306.84259033 307.74935913 C299.41230956 300.32196389 291.98026522 292.89633674 284.54704666 285.47188187 C273.79935826 274.73680426 263.05495795 263.99844024 252.31143026 253.25919883 C247.30542488 248.25519948 242.29925883 243.25136088 237.29305077 238.24756432 C236.79195655 237.74671111 236.29086232 237.2458579 235.77458343 236.72982732 C223.85460275 224.81565461 211.93304798 212.90305732 200.01123047 200.99072266 C199.48973284 200.46963868 198.96823522 199.9485547 198.43093464 199.41168029 C190.49568306 191.48272684 182.56034953 183.55385541 174.625 175.625 C166.15213274 167.15906521 157.67929841 158.69309748 149.20654297 150.22705078 C148.68441256 149.70533496 148.16228214 149.18361914 147.6243296 148.64609374 C135.71084907 136.74205594 123.79781568 124.83757113 111.88619041 112.93167686 C111.38606108 112.43178853 110.88593175 111.93190019 110.37064699 111.41686372 C105.37894424 106.42754581 100.38731989 101.43814946 95.39581281 96.44863579 C84.66077481 85.71791982 73.92435552 74.98859105 63.18516248 64.2620333 C55.36287833 56.44891131 47.54232539 48.63405942 39.72349389 40.81748207 C35.4838266 36.57916565 31.24331614 32.34170125 27.00064468 28.10639191 C23.12397324 24.2364225 19.24956278 20.36420499 15.37700634 16.49011795 C13.96892124 15.08230639 12.55997226 13.6753583 11.15011604 12.26932044 C9.24755853 10.37168065 7.3480424 8.47105008 5.44931984 6.56957436 C4.88951402 6.0126814 4.3297082 5.45578844 3.75293857 4.88201994 C0 1.1141414 0 1.1141414 0 0 Z " fill="#DE0715" transform="translate(165,45)"/>
</svg>
